<?xml version="1.0" encoding="iso-8859-1"?>
<!-- Generator: Adobe Illustrator 16.0.4, SVG Export Plug-In . SVG Version: 6.00 Build 0)  -->
<!DOCTYPE svg PUBLIC "-//W3C//DTD SVG 1.1//EN" "http://www.w3.org/Graphics/SVG/1.1/DTD/svg11.dtd">
<svg version="1.1" id="Capa_1" xmlns="http://www.w3.org/2000/svg" xmlns:xlink="http://www.w3.org/1999/xlink" x="0px" y="0px"
	 width="32.287px" height="39.281px" viewBox="0 0 32.287 39.281" style="enable-background:new 0 0 32.287 39.281;"
	 xml:space="preserve">
<path style="fill:#262626;" d="M27.621,11.662h-9.826v-0.528c2.3-0.742,3.97-2.873,3.97-5.419C21.765,2.559,19.206,0,16.051,0
	c-3.158,0-5.716,2.559-5.716,5.715c0,2.546,1.673,4.676,3.975,5.418v0.529H4.668L0,39.281h32.287L27.621,11.662z M13.447,5.715
	c0-1.436,1.169-2.604,2.604-2.604c1.438,0,2.606,1.169,2.606,2.604c0,1.437-1.169,2.605-2.606,2.605
	C14.616,8.32,13.447,7.151,13.447,5.715z"/>
<g>
</g>
<g>
</g>
<g>
</g>
<g>
</g>
<g>
</g>
<g>
</g>
<g>
</g>
<g>
</g>
<g>
</g>
<g>
</g>
<g>
</g>
<g>
</g>
<g>
</g>
<g>
</g>
<g>
</g>
</svg>
