<?xml version="1.0" encoding="iso-8859-1"?>
<!-- Generator: Adobe Illustrator 16.0.4, SVG Export Plug-In . SVG Version: 6.00 Build 0)  -->
<!DOCTYPE svg PUBLIC "-//W3C//DTD SVG 1.1//EN" "http://www.w3.org/Graphics/SVG/1.1/DTD/svg11.dtd">
<svg version="1.1" id="Capa_1" xmlns="http://www.w3.org/2000/svg" xmlns:xlink="http://www.w3.org/1999/xlink" x="0px" y="0px"
	 width="29.179px" height="48.076px" viewBox="0 0 29.179 48.076" style="enable-background:new 0 0 29.179 48.076;"
	 xml:space="preserve">
<path style="fill:#262626;" d="M22.817,11.731v-0.032h-0.272c-0.946-0.108-1.833-0.088-2.542,0h-4.352l3.882-6.375
	c8.267,1.897,9.644-4.1,9.644-4.1c-3.855-2.755-9.644,0-9.644,0s-2.353,6.31-4.152,10.475h-3.229
	C10.827,8.374,9.645,5.21,9.645,5.21S3.857,2.455,0,5.21c0,0,1.379,5.995,9.645,4.1l1.457,2.39H2.238v36.377h20.579V33.018
	c5.887-8.449,7.669-14.38,5.425-18.096C27.009,12.876,24.817,12.008,22.817,11.731z M11.793,31.582
	c-0.013,0.034-0.021,0.064-0.032,0.099l0.032,0.05v11.898H6.098V16.071h5.695V31.582z M22.817,24.627v-8.406
	c0.685,0.16,1.331,0.449,1.649,0.979C24.807,17.761,25.375,19.678,22.817,24.627z"/>
<g>
</g>
<g>
</g>
<g>
</g>
<g>
</g>
<g>
</g>
<g>
</g>
<g>
</g>
<g>
</g>
<g>
</g>
<g>
</g>
<g>
</g>
<g>
</g>
<g>
</g>
<g>
</g>
<g>
</g>
</svg>
