<?xml version="1.0" encoding="iso-8859-1"?>
<!-- Generator: Adobe Illustrator 16.0.4, SVG Export Plug-In . SVG Version: 6.00 Build 0)  -->
<!DOCTYPE svg PUBLIC "-//W3C//DTD SVG 1.1//EN" "http://www.w3.org/Graphics/SVG/1.1/DTD/svg11.dtd">
<svg version="1.1" id="Capa_1" xmlns="http://www.w3.org/2000/svg" xmlns:xlink="http://www.w3.org/1999/xlink" x="0px" y="0px"
	 width="33.802px" height="33.417px" viewBox="0 0 33.802 33.417" style="enable-background:new 0 0 33.802 33.417;"
	 xml:space="preserve">
<path style="fill:#262626;" d="M31.994,1.462c0,0-11.161-6.099-23.872,6.615C-4.709,20.909,1.504,31.955,1.504,31.955
	s11.16,6.099,23.875-6.615C39.016,11.703,31.994,1.462,31.994,1.462z M21.523,13.085l2.478,2.472l-1.033,1.036L20.49,14.12
	l-1.327,1.33l2.469,2.472l-1.033,1.038l-2.475-2.474l-1.433,1.431l2.364,2.358l-1.039,1.036l-2.358-2.36l-1.497,1.496l2.358,2.358
	l-1.035,1.037l-2.362-2.359L3.005,31.608l-1.04-1.036l10.126-10.125l-2.82-2.819l1.039-1.035l2.812,2.818l1.5-1.495l-2.819-2.821
	l1.035-1.034l2.82,2.818l1.428-1.43l-2.7-2.706l1.034-1.034l2.704,2.704l1.327-1.33l-2.7-2.705l1.035-1.036l2.704,2.704
	L30.617,1.923l1.036,1.034L21.523,13.085z"/>
<g>
</g>
<g>
</g>
<g>
</g>
<g>
</g>
<g>
</g>
<g>
</g>
<g>
</g>
<g>
</g>
<g>
</g>
<g>
</g>
<g>
</g>
<g>
</g>
<g>
</g>
<g>
</g>
<g>
</g>
</svg>
