<?xml version="1.0" encoding="iso-8859-1"?>
<!-- Generator: Adobe Illustrator 16.0.4, SVG Export Plug-In . SVG Version: 6.00 Build 0)  -->
<!DOCTYPE svg PUBLIC "-//W3C//DTD SVG 1.1//EN" "http://www.w3.org/Graphics/SVG/1.1/DTD/svg11.dtd">
<svg version="1.1" id="Capa_1" xmlns="http://www.w3.org/2000/svg" xmlns:xlink="http://www.w3.org/1999/xlink" x="0px" y="0px"
	 width="56.227px" height="24.77px" viewBox="0 0 56.227 24.77" style="enable-background:new 0 0 56.227 24.77;"
	 xml:space="preserve">
<path style="fill:#262626;" d="M56.202,9.785c-0.028-0.079-0.116-0.079-0.154-0.079c-0.056,0-0.133,0.001-0.222,0.006
	c-0.98,0.036-3.581,0.139-7.22-2.363c-2.101-1.441-9.548-5.802-17.171-1.307c-6.247,3.683-9.144,0.929-9.169,0.904
	c-0.913-0.977-1.249-1.731-1.002-2.24c0.51-1.045,3.294-0.814,3.315-0.814c5.879,1.653,10.393,0.539,14.63-3.609L39.076,0.12
	c-6.314,4.081-10.774,2.619-15.496,1.072c-1.177-0.386-2.988-0.901-2.988-0.901s-0.294-0.156-0.915-0.261
	c-3.17-0.227-4.43,0.837-5.721,2.105c-0.805-0.179-1.64-0.283-2.5-0.283C5.128,1.853,0,6.982,0,13.312
	C0,19.64,5.128,24.77,11.458,24.77c4.531,0,8.438-2.639,10.296-6.456c0.278,0.207,0.574,0.391,0.894,0.525
	c0.564,0.238,1.182,0.357,1.817,0.357c0.716,0,1.461-0.149,2.197-0.449c1.235-0.64,2.213-1.32,3.075-1.922
	c1.815-1.265,3.125-2.179,5.258-1.54l0.098-0.184c-2.562-2.069-5.435-0.405-6.662,0.305c-0.229,0.134-0.466,0.27-0.526,0.273
	l-0.038,0.007c-0.577,0.218-1.713,0.281-2.44-0.263c-0.506-0.378-0.729-0.978-0.667-1.771c0.124-0.733,0.574-1.293,1.334-1.664
	c2.268-1.108,6.533-0.246,8.098,0.593c2.277,1.221,5.343,1.943,7.109,0.324c0.255-0.198,0.509-0.53,0.799-0.912
	c0.688-0.896,1.538-2.009,2.844-1.791l0.079-0.189c-1.275-0.917-2.755-0.088-3.945,0.577c-0.607,0.341-1.18,0.662-1.619,0.692
	l-0.125,0.011c-1.302,0.097-2.429,0.178-3.47-1.294c-0.706-0.711-0.823-1.409-0.346-2.021c1.26-1.612,6.311-2.225,10.156,0.063
	c5.031,2.988,10.306,2.022,10.491,1.869l0.062-0.054L56.202,9.785z M8.841,3.182c0.117-0.23,0.222-0.439,0.305-0.597
	c0.726-0.154,1.479-0.24,2.254-0.24c0.773,0,1.526,0.086,2.253,0.239c0.087,0.159,0.204,0.371,0.333,0.604
	c0.336,0.607,0.741,1.338,0.834,1.506c-0.032,0.013-0.092,0.035-0.166,0.064c-0.169,0.065-0.43,0.167-0.732,0.285
	c-0.749,0.291-1.751,0.682-2.218,0.863c-0.146,0.055-0.236,0.092-0.257,0.099c-0.016-0.007-0.111-0.044-0.254-0.099
	c-0.475-0.186-1.505-0.587-2.259-0.88C8.617,4.905,8.352,4.802,8.195,4.738C8.137,4.717,8.094,4.702,8.071,4.692
	C8.154,4.524,8.529,3.788,8.841,3.182z M9.352,16.096c-0.065-0.205-1.133-3.484-1.298-3.993c-0.004-0.007-0.004-0.014-0.006-0.018
	c-0.007-0.017-0.012-0.034-0.014-0.041c0.161-0.113,2.384-1.685,3.159-2.233c0.134-0.096,0.226-0.16,0.254-0.18
	c0.028,0.02,0.121,0.084,0.257,0.18c0.774,0.549,2.997,2.12,3.157,2.233c-0.002,0.007-0.006,0.024-0.011,0.041
	c-0.003,0.004-0.003,0.011-0.005,0.018c-0.167,0.509-1.235,3.788-1.302,3.993c-0.017,0-0.047,0-0.09,0c-0.116,0-0.324,0-0.587,0
	C11.719,16.096,9.527,16.096,9.352,16.096z M9.777,16.437l-1.911,2.696l-0.263-0.416l1.547-2.28H9.777z M11.193,9.395V6.273
	l0.254,0.099l0.257-0.099v3.121l-0.257-0.183L11.193,9.395z M14.417,5.217l0.687-0.269c1.166,0.525,2.197,1.29,3.037,2.234
	l-0.052,0.734C17.14,6.712,15.874,5.771,14.417,5.217z M13.693,16.437l1.617,2.276l-0.019,0.004l-0.312,0.442l-1.911-2.723H13.693z
	 M15.056,12.556l0.195-0.602l2.611-0.79l0.329,0.401L15.056,12.556z M7.739,4.929l0.689,0.27c-1.43,0.533-2.68,1.442-3.631,2.604
	L4.748,7.081C5.58,6.173,6.598,5.437,7.739,4.929z M5.024,11.138l2.622,0.816l0.195,0.602l-3.105-1.021L5.024,11.138z M2.396,13.862
	c-0.18-0.172-0.801-0.772-1.304-1.259c-0.186-0.18-0.354-0.341-0.479-0.461c0.149-1.544,0.624-2.99,1.351-4.279
	c0.175-0.03,0.408-0.07,0.661-0.113C3.348,7.624,4.24,7.472,4.431,7.438c0,0.002,0,0.004,0,0.006
	c0.006,0.094,0.027,0.389,0.054,0.77c0.066,0.94,0.17,2.407,0.192,2.762c0.003,0.042,0.005,0.07,0.006,0.08
	c-0.016,0.021-0.127,0.16-0.294,0.367c-0.381,0.479-1.051,1.32-1.505,1.892c-0.229,0.287-0.404,0.508-0.459,0.575
	C2.419,13.886,2.406,13.872,2.396,13.862z M2.452,14.391l0.006,0.007l0.45-0.567c0.109,1.461,0.588,2.816,1.345,3.979l-0.68-0.143
	C2.985,16.662,2.614,15.592,2.452,14.391z M7.797,22.854C7.571,22.972,7.36,23.08,7.19,23.165c-1.411-0.598-2.67-1.488-3.703-2.594
	c0.026-0.164,0.063-0.395,0.106-0.648c0.103-0.645,0.23-1.441,0.279-1.757c0.008-0.044,0.014-0.077,0.017-0.101
	c0.083,0.022,0.331,0.09,0.663,0.178C5.472,18.494,7.02,18.912,7.333,19c0.028,0.005,0.046,0.011,0.052,0.013
	c0.014,0.021,0.104,0.16,0.233,0.368c0.3,0.475,0.827,1.307,1.218,1.926c0.17,0.272,0.319,0.503,0.409,0.646
	c0.038,0.059,0.062,0.101,0.081,0.125C9.163,22.159,8.427,22.534,7.797,22.854z M11.4,22.215c-0.577,0-1.14-0.059-1.687-0.162
	l-0.382-0.605c0.662,0.165,1.355,0.254,2.069,0.254c0.755,0,1.488-0.1,2.186-0.285l-0.393,0.616
	C12.614,22.151,12.014,22.215,11.4,22.215z M15.687,23.131c-0.176-0.088-0.389-0.194-0.609-0.304
	c-0.633-0.317-1.347-0.672-1.505-0.75c0.018-0.029,0.051-0.082,0.097-0.151c0.096-0.151,0.243-0.388,0.417-0.661
	c0.56-0.891,1.378-2.18,1.423-2.252c0.084-0.022,1.697-0.46,2.715-0.734c0.366-0.101,0.655-0.179,0.765-0.208
	c0.006-0.001,0.017-0.005,0.02-0.005c0.034,0.178,0.186,1.014,0.313,1.726c0.044,0.241,0.084,0.465,0.116,0.646
	C18.404,21.584,17.125,22.509,15.687,23.131z M19.245,17.646l-0.718,0.195c0.786-1.197,1.278-2.606,1.375-4.121l0.458,0.578
	C20.21,15.504,19.822,16.637,19.245,17.646z M20.471,13.89c-0.015-0.016-0.037-0.047-0.064-0.08
	c-0.098-0.122-0.276-0.344-0.489-0.613c-0.449-0.563-1.059-1.328-1.416-1.773c-0.162-0.207-0.273-0.347-0.289-0.367
	c0-0.01,0.002-0.038,0.004-0.08c0.024-0.34,0.119-1.697,0.187-2.639c0.023-0.336,0.042-0.619,0.053-0.778
	c0.002-0.055,0.006-0.095,0.009-0.12c0.179,0.032,0.995,0.172,1.693,0.293c0.248,0.043,0.479,0.082,0.664,0.113
	c0.749,1.315,1.228,2.803,1.368,4.385c-0.136,0.129-0.302,0.291-0.481,0.462C21.199,13.187,20.602,13.762,20.471,13.89z"/>
<g>
</g>
<g>
</g>
<g>
</g>
<g>
</g>
<g>
</g>
<g>
</g>
<g>
</g>
<g>
</g>
<g>
</g>
<g>
</g>
<g>
</g>
<g>
</g>
<g>
</g>
<g>
</g>
<g>
</g>
</svg>
