<?xml version="1.0" encoding="iso-8859-1"?>
<!-- Generator: Adobe Illustrator 16.0.4, SVG Export Plug-In . SVG Version: 6.00 Build 0)  -->
<!DOCTYPE svg PUBLIC "-//W3C//DTD SVG 1.1//EN" "http://www.w3.org/Graphics/SVG/1.1/DTD/svg11.dtd">
<svg version="1.1" id="Capa_1" xmlns="http://www.w3.org/2000/svg" xmlns:xlink="http://www.w3.org/1999/xlink" x="0px" y="0px"
	 width="37.878px" height="37.873px" viewBox="0 0 37.878 37.873" style="enable-background:new 0 0 37.878 37.873;"
	 xml:space="preserve">
<g>
	<path style="fill:#262626;" d="M34.079,23.873l-2.4-0.856l1.257-3.527c-1.021-0.388-2.033-0.864-3.024-1.413l-1.686,2.979
		l-2.222-1.255l1.735-3.072c-1.107-0.771-2.176-1.649-3.197-2.628l-2.434,2.414l-1.8-1.811l2.467-2.448
		c-0.883-1.029-1.666-2.104-2.349-3.207l-3.265,1.49l-1.057-2.32l3.09-1.412c-0.449-0.924-0.826-1.858-1.137-2.794l-4.191,0.976
		l-0.578-2.484l4.115-0.958c-0.092-0.491-0.184-0.986-0.236-1.472C12.929,0.465,8.791,2.291,5.544,5.539
		c-3.252,3.247-5.076,7.384-5.469,11.624c0.688,0.08,1.382,0.213,2.082,0.372l1.451-4.091L6.013,14.3l-1.409,3.965
		c1.005,0.363,2.002,0.8,2.984,1.324L9.47,16.26l2.22,1.255l-1.914,3.388c1.098,0.734,2.158,1.574,3.177,2.51l2.631-2.611
		l1.797,1.809l-2.64,2.619c0.889,0.995,1.686,2.031,2.386,3.099l3.401-1.553l1.059,2.32l-3.152,1.443
		c0.468,0.913,0.858,1.835,1.19,2.764l4.195-0.977l0.577,2.484l-4.045,0.942c0.157,0.686,0.28,1.371,0.361,2.049
		c4.242-0.394,8.384-2.215,11.632-5.465c3.243-3.246,5.072-7.385,5.457-11.627c-0.799-0.093-1.615-0.26-2.436-0.462L34.079,23.873z"
		/>
	<path style="fill:#262626;" d="M22.051,0.465l0.574,2.486l-2.27,0.527c0.27,0.788,0.594,1.571,0.975,2.351l2.952-1.346l1.057,2.32
		l-2.746,1.255c0.559,0.861,1.173,1.707,1.868,2.526l2.226-2.213l1.802,1.811l-2.272,2.252c0.863,0.822,1.762,1.572,2.688,2.23
		l1.518-2.69l2.224,1.252l-1.577,2.799c0.874,0.487,1.763,0.905,2.651,1.25l0.974-2.726l2.402,0.855l-0.939,2.637
		c0.578,0.137,1.151,0.25,1.722,0.323c-0.136-4.656-1.981-9.273-5.531-12.828C28.79,1.98,24.172,0.142,19.512,0
		c0.043,0.335,0.114,0.676,0.183,1.015L22.051,0.465z"/>
	<path style="fill:#262626;" d="M15.647,36.848l-0.579-2.485l2.254-0.524c-0.296-0.777-0.633-1.551-1.033-2.32l-2.88,1.312
		l-1.056-2.323l2.597-1.185c-0.562-0.833-1.186-1.643-1.886-2.426l-2.06,2.044l-1.802-1.809l2.066-2.048
		c-0.855-0.785-1.744-1.494-2.66-2.118l-1.341,2.376l-2.223-1.254l1.384-2.453c-0.863-0.458-1.734-0.841-2.612-1.16L3,22.767
		L0.597,21.91l0.769-2.156C0.908,19.655,0.45,19.57,0,19.51c0.149,4.657,1.989,9.273,5.544,12.828
		c3.55,3.554,8.167,5.397,12.821,5.536c-0.066-0.525-0.168-1.058-0.286-1.592L15.647,36.848z"/>
</g>
<g>
</g>
<g>
</g>
<g>
</g>
<g>
</g>
<g>
</g>
<g>
</g>
<g>
</g>
<g>
</g>
<g>
</g>
<g>
</g>
<g>
</g>
<g>
</g>
<g>
</g>
<g>
</g>
<g>
</g>
</svg>
