<?xml version="1.0" encoding="iso-8859-1"?>
<!-- Generator: Adobe Illustrator 16.0.4, SVG Export Plug-In . SVG Version: 6.00 Build 0)  -->
<!DOCTYPE svg PUBLIC "-//W3C//DTD SVG 1.1//EN" "http://www.w3.org/Graphics/SVG/1.1/DTD/svg11.dtd">
<svg version="1.1" id="Capa_1" xmlns="http://www.w3.org/2000/svg" xmlns:xlink="http://www.w3.org/1999/xlink" x="0px" y="0px"
	 width="36.716px" height="36.501px" viewBox="0 0 36.716 36.501" style="enable-background:new 0 0 36.716 36.501;"
	 xml:space="preserve">
<g>
	<path style="fill:#262626;" d="M35.49,1.222c-1.127-1.129-2.333-1.756-3.462-0.626L13.037,22.057L1.936,33.16l-0.375-0.375
		c-0.356-0.357-0.937-0.356-1.293,0c-0.356,0.357-0.356,0.936,0,1.292l2.154,2.155c0.358,0.357,0.937,0.357,1.293,0
		c0.358-0.356,0.358-0.936,0-1.293l-0.162-0.161l11.105-11.103L36.12,4.688C37.251,3.558,36.621,2.353,35.49,1.222z"/>
	<path style="fill:#262626;" d="M34.619,21.806l-0.557-0.199l0.292-0.82c-0.236-0.091-0.474-0.2-0.702-0.327l-0.395,0.691
		l-0.513-0.292l0.402-0.712c-0.258-0.179-0.506-0.384-0.744-0.611l-0.564,0.561l-0.415-0.421l0.572-0.568
		c-0.207-0.239-0.39-0.489-0.546-0.745l-0.759,0.346l-0.244-0.538l0.717-0.328c-0.105-0.214-0.192-0.431-0.264-0.648l-0.974,0.227
		l-0.136-0.578l0.955-0.223c-0.021-0.114-0.039-0.229-0.055-0.341c-0.984,0.091-1.943,0.514-2.698,1.269
		c-0.753,0.754-1.179,1.715-1.271,2.7c0.16,0.018,0.322,0.049,0.484,0.085l0.338-0.95l0.557,0.199l-0.328,0.921
		c0.235,0.083,0.463,0.185,0.694,0.307l0.437-0.773l0.515,0.291l-0.444,0.787c0.256,0.172,0.504,0.366,0.74,0.583l0.61-0.606
		l0.415,0.419l-0.609,0.608c0.206,0.231,0.389,0.471,0.551,0.719l0.791-0.36l0.246,0.539l-0.732,0.335
		c0.108,0.212,0.197,0.426,0.277,0.642l0.974-0.227l0.134,0.577l-0.94,0.219c0.037,0.16,0.067,0.318,0.084,0.476
		c0.986-0.092,1.949-0.514,2.7-1.27c0.753-0.753,1.179-1.715,1.271-2.699c-0.186-0.022-0.376-0.061-0.566-0.107L34.619,21.806z"/>
	<path style="fill:#262626;" d="M31.236,16.262c0.01,0.078,0.027,0.157,0.042,0.236l0.546-0.128l0.136,0.577l-0.529,0.123
		c0.067,0.183,0.14,0.365,0.229,0.546l0.685-0.313l0.246,0.54l-0.64,0.291c0.131,0.2,0.275,0.396,0.433,0.586l0.521-0.513
		l0.416,0.42l-0.524,0.523c0.196,0.19,0.405,0.364,0.623,0.518l0.349-0.625l0.517,0.291l-0.365,0.65
		c0.205,0.113,0.407,0.209,0.613,0.291l0.229-0.634l0.557,0.199l-0.218,0.613c0.136,0.031,0.27,0.058,0.4,0.074
		c-0.032-1.081-0.459-2.153-1.287-2.979C33.393,16.722,32.319,16.294,31.236,16.262z"/>
	<path style="fill:#262626;" d="M30.341,24.819l-0.138-0.578l0.522-0.121c-0.066-0.181-0.144-0.36-0.238-0.539l-0.667,0.305
		l-0.244-0.539l0.601-0.275c-0.13-0.193-0.276-0.382-0.439-0.564l-0.477,0.476l-0.417-0.42l0.477-0.476
		c-0.196-0.183-0.404-0.347-0.616-0.492l-0.311,0.551l-0.517-0.291l0.322-0.57c-0.2-0.106-0.404-0.195-0.608-0.269l-0.188,0.532
		l-0.56-0.199l0.182-0.501c-0.104-0.022-0.216-0.042-0.318-0.056c0.036,1.082,0.464,2.153,1.287,2.978
		c0.823,0.827,1.897,1.254,2.979,1.286c-0.016-0.122-0.038-0.246-0.067-0.37L30.341,24.819z"/>
</g>
<g>
</g>
<g>
</g>
<g>
</g>
<g>
</g>
<g>
</g>
<g>
</g>
<g>
</g>
<g>
</g>
<g>
</g>
<g>
</g>
<g>
</g>
<g>
</g>
<g>
</g>
<g>
</g>
<g>
</g>
</svg>
