<?xml version="1.0" encoding="iso-8859-1"?>
<!-- Generator: Adobe Illustrator 16.0.4, SVG Export Plug-In . SVG Version: 6.00 Build 0)  -->
<!DOCTYPE svg PUBLIC "-//W3C//DTD SVG 1.1//EN" "http://www.w3.org/Graphics/SVG/1.1/DTD/svg11.dtd">
<svg version="1.1" id="Capa_1" xmlns="http://www.w3.org/2000/svg" xmlns:xlink="http://www.w3.org/1999/xlink" x="0px" y="0px"
	 width="26.53px" height="41.389px" viewBox="0 0 26.53 41.389" style="enable-background:new 0 0 26.53 41.389;"
	 xml:space="preserve">
<g>
	<path style="fill:#262626;" d="M18.375,7.03c1.941,0,3.514-1.577,3.514-3.516c0-1.94-1.572-3.514-3.514-3.514
		c-1.936,0-3.515,1.574-3.515,3.514C14.86,5.454,16.439,7.03,18.375,7.03z"/>
	<path style="fill:#262626;" d="M26.508,13.972l0.022,0.011l-0.01-2.02c-0.323-3.856-4.793-3.801-4.793-3.801h-7.044
		c-5.048,0.096-4.869,3.801-4.869,3.801v0.329L2.7,4.108c-0.619-0.619-1.623-0.619-2.236,0c-0.618,0.617-0.618,1.618,0,2.236
		l8.938,7.772c0.148,0.146,0.284,0.291,0.411,0.417v1.285h0.005c0,0.022-0.003,0.044-0.003,0.063c0,0.82,0.668,1.484,1.482,1.484
		c0.398,0,0.749-0.16,1.017-0.412l0.003,0.004c-0.777,0.507-1.173,1.349-0.901,2.078c0.297,0.792,1.285,1.14,2.292,0.903v1.902
		l-1.599,9.171l1.591,8.369c0,1.108,0.896,2.006,2.002,2.006c1.108,0,2.004-0.898,2.004-2.006l-1.594-8.633l1.593-9.21H18.6
		L21.788,39.4l0.015,0.015c0.016,1.089,0.9,1.971,1.991,1.971c1.101,0,1.995-0.893,1.995-1.994l-2.731-22.896l1.945-0.729
		C25.896,15.435,26.471,14.702,26.508,13.972z M13.709,12.604v3.703l-0.931-0.93v-2.773H13.709z M22.591,12.568h0.967l0.116,0.058
		l-1.029,0.387L22.591,12.568z"/>
</g>
<g>
</g>
<g>
</g>
<g>
</g>
<g>
</g>
<g>
</g>
<g>
</g>
<g>
</g>
<g>
</g>
<g>
</g>
<g>
</g>
<g>
</g>
<g>
</g>
<g>
</g>
<g>
</g>
<g>
</g>
</svg>
