<?xml version="1.0" encoding="iso-8859-1"?>
<!-- Generator: Adobe Illustrator 16.0.4, SVG Export Plug-In . SVG Version: 6.00 Build 0)  -->
<!DOCTYPE svg PUBLIC "-//W3C//DTD SVG 1.1//EN" "http://www.w3.org/Graphics/SVG/1.1/DTD/svg11.dtd">
<svg version="1.1" id="Capa_1" xmlns="http://www.w3.org/2000/svg" xmlns:xlink="http://www.w3.org/1999/xlink" x="0px" y="0px"
	 width="42.34px" height="42.332px" viewBox="0 0 42.34 42.332" style="enable-background:new 0 0 42.34 42.332;"
	 xml:space="preserve">
<g>
	<path style="fill:#262626;" d="M21.073,22.073L7.318,37.184c3.694,3.193,8.198,4.894,12.755,5.126
		c0.279-0.99,0.786-3.092,0.771-5.359c-0.011-3.064-0.017-7.634,3.537-11.866L21.073,22.073z"/>
	<path style="fill:#262626;" d="M16.815,18.202c-3.879,3.931-8.431,4.355-11.478,4.635c-2.168,0.195-4.139,0.846-5.145,1.226
		c0.625,4.518,2.701,8.858,6.184,12.256l13.748-15.107L16.815,18.202z"/>
	<path style="fill:#262626;" d="M20.983,20.269L34.865,5.011C31.13,1.839,26.574,0.183,21.99,0.009
		c-0.28,0.979-0.793,3.095-0.782,5.382c0.01,3.062,0.014,7.632-3.531,11.867L20.983,20.269z"/>
	<path style="fill:#262626;" d="M25.237,24.139c3.883-3.932,8.431-4.356,11.483-4.634c2.386-0.216,4.532-0.983,5.411-1.332
		c-0.644-4.547-2.767-8.908-6.313-12.305L21.927,21.128L25.237,24.139z"/>
	<path style="fill:#262626;" d="M22.125,36.945c0.01,2.214-0.425,4.237-0.729,5.387c5.451-0.062,10.864-2.207,14.931-6.378
		L25.323,25.943C22.108,29.806,22.118,33.913,22.125,36.945z"/>
	<path style="fill:#262626;" d="M15.871,17.341L5.016,7.467c-3.725,4.391-5.356,9.905-4.956,15.281
		c1.137-0.414,3.041-0.994,5.16-1.187C8.24,21.288,12.328,20.907,15.871,17.341z"/>
	<path style="fill:#262626;" d="M42.273,19.491c-1.087,0.412-3.137,1.079-5.44,1.29c-3.022,0.275-7.104,0.656-10.651,4.219
		l11.008,10.014C41.032,30.574,42.704,24.956,42.273,19.491z"/>
	<path style="fill:#262626;" d="M19.927,5.396C19.921,3.175,20.355,1.151,20.665,0C15.241,0.133,9.884,2.325,5.871,6.519
		l10.858,9.88C19.948,12.537,19.938,8.43,19.927,5.396z"/>
</g>
<g>
</g>
<g>
</g>
<g>
</g>
<g>
</g>
<g>
</g>
<g>
</g>
<g>
</g>
<g>
</g>
<g>
</g>
<g>
</g>
<g>
</g>
<g>
</g>
<g>
</g>
<g>
</g>
<g>
</g>
</svg>
