<?xml version="1.0" encoding="iso-8859-1"?>
<!-- Generator: Adobe Illustrator 16.0.4, SVG Export Plug-In . SVG Version: 6.00 Build 0)  -->
<!DOCTYPE svg PUBLIC "-//W3C//DTD SVG 1.1//EN" "http://www.w3.org/Graphics/SVG/1.1/DTD/svg11.dtd">
<svg version="1.1" id="Capa_1" xmlns="http://www.w3.org/2000/svg" xmlns:xlink="http://www.w3.org/1999/xlink" x="0px" y="0px"
	 width="40.45px" height="40.446px" viewBox="0 0 40.45 40.446" style="enable-background:new 0 0 40.45 40.446;"
	 xml:space="preserve">
<g>
	<path style="fill:#262626;" d="M20.222,0C9.058,0,0,9.055,0,20.224c0,11.167,9.058,20.223,20.222,20.223
		c11.175,0,20.229-9.055,20.229-20.223C40.45,9.055,31.396,0,20.222,0z M35.186,20.986c1.271,0,2.309-0.942,2.482-2.164
		c0.016,0.116,0.036,0.232,0.036,0.353c0,1.354-1.099,2.449-2.45,2.449c-1.319,0-2.39-1.045-2.441-2.353
		C33.148,20.265,34.079,20.986,35.186,20.986z M34.531,23.449c0.015,0.116,0.034,0.231,0.034,0.352c0,1.354-1.097,2.45-2.45,2.45
		c-1.319,0-2.388-1.045-2.441-2.353c0.338,0.994,1.267,1.714,2.372,1.714C33.32,25.612,34.355,24.67,34.531,23.449z M28.591,20.986
		c1.272,0,2.308-0.942,2.483-2.164c0.015,0.116,0.034,0.232,0.034,0.353c0,1.354-1.097,2.449-2.45,2.449
		c-1.318,0-2.388-1.045-2.441-2.353C26.555,20.265,27.483,20.986,28.591,20.986z M27.159,29.046c1.271,0,2.31-0.942,2.482-2.163
		c0.014,0.116,0.032,0.23,0.032,0.351c0,1.354-1.096,2.451-2.45,2.451c-1.317,0-2.387-1.045-2.438-2.353
		C25.122,28.326,26.054,29.046,27.159,29.046z M24.779,36.218c-1.315,0-2.388-1.046-2.438-2.354
		c0.337,0.995,1.268,1.714,2.374,1.714c1.27,0,2.309-0.942,2.482-2.163c0.016,0.116,0.032,0.231,0.032,0.353
		C27.229,35.121,26.135,36.218,24.779,36.218z M30.36,33.416c-1.315,0-2.387-1.045-2.437-2.353c0.336,0.995,1.266,1.714,2.374,1.714
		c1.268,0,2.308-0.942,2.48-2.164c0.016,0.116,0.034,0.232,0.034,0.353C32.812,32.319,31.717,33.416,30.36,33.416z M35.254,29.053
		c-1.319,0-2.39-1.045-2.441-2.353c0.336,0.995,1.267,1.714,2.373,1.714c1.271,0,2.309-0.943,2.482-2.164
		c0.016,0.116,0.036,0.232,0.036,0.353C37.704,27.957,36.605,29.053,35.254,29.053z"/>
</g>
<g>
</g>
<g>
</g>
<g>
</g>
<g>
</g>
<g>
</g>
<g>
</g>
<g>
</g>
<g>
</g>
<g>
</g>
<g>
</g>
<g>
</g>
<g>
</g>
<g>
</g>
<g>
</g>
<g>
</g>
</svg>
