<?xml version="1.0" encoding="utf-8"?>
<!-- Generator: Adobe Illustrator 16.0.4, SVG Export Plug-In . SVG Version: 6.00 Build 0)  -->
<!DOCTYPE svg PUBLIC "-//W3C//DTD SVG 1.1//EN" "http://www.w3.org/Graphics/SVG/1.1/DTD/svg11.dtd">
<svg version="1.1" id="Capa_1" xmlns="http://www.w3.org/2000/svg" xmlns:xlink="http://www.w3.org/1999/xlink" x="0px" y="0px"
	 width="44.175px" height="53.797px" viewBox="0 0 44.175 53.797" enable-background="new 0 0 44.175 53.797" xml:space="preserve">
<path fill="#262626" d="M43.031,32.713v2.543c0.002,0.169-0.441,0.304-0.973,0.304h-1.163l-1.386,1.636l-1.387-1.636h-1.424
	l-1.388,1.636l-1.384-1.636h-2.26l-1.387,1.636l-1.388-1.636h-18.41l-1.387,1.636L7.71,35.56H6.056L4.67,37.195L3.284,35.56H0.978
	c-0.535,0-0.977-0.135-0.977-0.304L0,32.713c0.002-0.168,0.443-0.304,0.979-0.304h41.078C42.587,32.41,43.03,32.544,43.031,32.713z
	 M22.087,24.398h2.292l-4.438,6.592l2.768-0.002l3.117-4.164h2.444l-2.994,4.164l2.741,0.002l1.447-2.085l2.134,0.003l-1.411,2.08
	l12.843,0.003c0,0,3.479-3.391-1.688-4.394c0,0-16.397-1.468-23.813-9.339c0,0-2.086-1.913-1.67,0.793
	c-0.312,0.265-0.735,0.623-1.33,1.127c-3.62,3.071-12.077-1.725-12.077-1.725c-0.258-0.04-0.529-0.037-0.822,0.03
	c-0.712,0.186-1.571,0.865-1.628,3.072v10.436h17.411L22.087,24.398z"/>
</svg>
