<?xml version="1.0" encoding="iso-8859-1"?>
<!-- Generator: Adobe Illustrator 16.0.4, SVG Export Plug-In . SVG Version: 6.00 Build 0)  -->
<!DOCTYPE svg PUBLIC "-//W3C//DTD SVG 1.1//EN" "http://www.w3.org/Graphics/SVG/1.1/DTD/svg11.dtd">
<svg version="1.1" id="Capa_1" xmlns="http://www.w3.org/2000/svg" xmlns:xlink="http://www.w3.org/1999/xlink" x="0px" y="0px"
	 width="30.39px" height="40.969px" viewBox="0 0 30.39 40.969" style="enable-background:new 0 0 30.39 40.969;"
	 xml:space="preserve">
<g>
	<path style="fill:#262626;" d="M10.513,16.337c-0.69-2.237-1.674-3.968-2.818-4.889c0.158-0.492,0.05-1.331,0.05-1.847
		c0-0.759-0.614-1.376-1.375-1.376H5.212c-0.759,0-1.377,0.617-1.377,1.376c0,0.516-0.108,1.354,0.05,1.847
		C1.625,13.262,0,18.194,0,24.016c0,7.356,1.722,13.318,4.922,13.318c0.086,0,1.905-0.004,1.989-0.012
		c0.66-0.064,1.243-0.396,1.766-0.925c-0.67-2.324-1.021-5.333-1.021-8.63C7.656,22.886,8.807,18.652,10.513,16.337z"/>
	<path style="fill:#262626;" d="M5.79,5.239c1.063,0,1.924,0.428,1.924-1.483c0-0.128-0.014-0.247-0.02-0.369
		c0-0.025,0.006-0.049,0.006-0.073V1.908C7.7,0.855,6.845,0,5.79,0C4.737,0,3.881,0.855,3.881,1.908v1.405
		c0,0.024,0.004,0.048,0.004,0.073C3.881,3.509,3.867,3.628,3.867,3.756C3.867,5.667,4.729,5.239,5.79,5.239z"/>
	<rect x="4.167" y="5.722" style="fill:#262626;" width="3.246" height="2.117"/>
	<path style="fill:#262626;" d="M26.502,11.448c0.158-0.492,0.054-1.331,0.054-1.847c0-0.759-0.62-1.376-1.379-1.376H24.02
		c-0.759,0-1.377,0.617-1.377,1.376c0,0.516-0.109,1.354,0.057,1.847c-1.271,1.019-2.33,3.042-3.024,5.635
		c1.425,2.424,2.348,6.302,2.348,10.685c0,2.997-0.283,5.756-0.831,7.981c0.702,1.009,1.55,1.585,2.538,1.585
		c0.082,0,1.905-0.004,1.992-0.012c3.08-0.304,4.668-6.146,4.668-13.307C30.39,18.194,28.762,13.261,26.502,11.448z"/>
	<path style="fill:#262626;" d="M24.599,5.239c1.062,0,1.923,0.428,1.923-1.483c0-0.128-0.014-0.247-0.02-0.369
		c0-0.025,0.006-0.049,0.006-0.073V1.908C26.508,0.855,25.653,0,24.599,0c-1.053,0-1.908,0.855-1.908,1.908v1.405
		c0,0.024,0.006,0.048,0.009,0.073c-0.009,0.122-0.024,0.241-0.024,0.369C22.675,5.667,23.537,5.239,24.599,5.239z"/>
	<rect x="22.979" y="5.722" style="fill:#262626;" width="3.241" height="2.117"/>
	<g>
		<path style="fill:#262626;" d="M16.964,15.083c0.162-0.493,0.056-1.331,0.056-1.847c0-0.759-0.614-1.374-1.375-1.374h-1.157
			c-0.762,0-1.379,0.615-1.379,1.374c0,0.516-0.11,1.354,0.055,1.847c-2.267,1.812-3.89,6.748-3.89,12.567
			c0,7.355,1.724,13.318,4.922,13.318c0.085,0,1.906-0.004,1.984-0.013c3.086-0.302,4.678-6.142,4.678-13.306
			C20.857,21.831,19.228,16.895,16.964,15.083z"/>
		<path style="fill:#262626;" d="M15.064,8.876c1.061,0,1.922,0.427,1.922-1.483c0-0.128-0.015-0.248-0.022-0.372
			c0.002-0.024,0.008-0.048,0.008-0.072V5.544c0-1.055-0.854-1.909-1.907-1.909s-1.908,0.854-1.908,1.909v1.404
			c0,0.024,0.006,0.048,0.007,0.072c-0.007,0.124-0.022,0.244-0.022,0.372C13.141,9.303,14.003,8.876,15.064,8.876z"/>
		<rect x="13.443" y="9.358" style="fill:#262626;" width="3.242" height="2.116"/>
	</g>
</g>
<g>
</g>
<g>
</g>
<g>
</g>
<g>
</g>
<g>
</g>
<g>
</g>
<g>
</g>
<g>
</g>
<g>
</g>
<g>
</g>
<g>
</g>
<g>
</g>
<g>
</g>
<g>
</g>
<g>
</g>
</svg>
