<?xml version="1.0" encoding="iso-8859-1"?>
<!-- Generator: Adobe Illustrator 16.0.4, SVG Export Plug-In . SVG Version: 6.00 Build 0)  -->
<!DOCTYPE svg PUBLIC "-//W3C//DTD SVG 1.1//EN" "http://www.w3.org/Graphics/SVG/1.1/DTD/svg11.dtd">
<svg version="1.1" id="Capa_1" xmlns="http://www.w3.org/2000/svg" xmlns:xlink="http://www.w3.org/1999/xlink" x="0px" y="0px"
	 width="40.614px" height="40.613px" viewBox="0 0 40.614 40.613" style="enable-background:new 0 0 40.614 40.613;"
	 xml:space="preserve">
<path style="fill:#262626;" d="M20.308,0C9.09,0,0,9.09,0,20.306c0,11.216,9.09,20.307,20.308,20.307
	c11.216,0,20.306-9.091,20.306-20.307C40.614,9.09,31.524,0,20.308,0z M15.277,18.788c-1.683,0-3.048-1.364-3.048-3.049
	c0-1.682,1.365-3.047,3.048-3.047c1.683,0,3.051,1.365,3.051,3.047C18.328,17.424,16.96,18.788,15.277,18.788z M18.328,9.206
	c0-1.975,1.597-3.574,3.572-3.574c1.976,0,3.574,1.599,3.574,3.574c0,1.973-1.599,3.572-3.574,3.572
	C19.925,12.778,18.328,11.179,18.328,9.206z M24.957,23.171c-2.025,0-3.674-1.645-3.674-3.673c0-2.027,1.649-3.669,3.674-3.669
	c2.03,0,3.672,1.642,3.672,3.669C28.629,21.526,26.987,23.171,24.957,23.171z"/>
<g>
</g>
<g>
</g>
<g>
</g>
<g>
</g>
<g>
</g>
<g>
</g>
<g>
</g>
<g>
</g>
<g>
</g>
<g>
</g>
<g>
</g>
<g>
</g>
<g>
</g>
<g>
</g>
<g>
</g>
</svg>
