<?xml version="1.0" encoding="iso-8859-1"?>
<!-- Generator: Adobe Illustrator 16.0.4, SVG Export Plug-In . SVG Version: 6.00 Build 0)  -->
<!DOCTYPE svg PUBLIC "-//W3C//DTD SVG 1.1//EN" "http://www.w3.org/Graphics/SVG/1.1/DTD/svg11.dtd">
<svg version="1.1" id="Capa_1" xmlns="http://www.w3.org/2000/svg" xmlns:xlink="http://www.w3.org/1999/xlink" x="0px" y="0px"
	 width="47.302px" height="36.333px" viewBox="0 0 47.302 36.333" style="enable-background:new 0 0 47.302 36.333;"
	 xml:space="preserve">
<g>
	<path style="fill:#262626;" d="M37.909,0.774h-5.082V0H9.263v0.78C4.143,0.853,0,5.032,0,10.168V26.94
		c0,5.179,4.215,9.393,9.394,9.393h28.516c5.179,0,9.393-4.214,9.393-9.393V10.168C47.302,4.988,43.088,0.774,37.909,0.774z
		 M24.917,5.761c-0.537,0-1.079,0.15-1.476,0.42l-0.232-0.685c0.466-0.29,1.151-0.486,1.857-0.486c1.72,0,2.14,1.171,2.14,2.286
		v2.104c0,0.488,0.022,0.963,0.08,1.344h-0.917l-0.082-0.705h-0.033c-0.316,0.44-0.919,0.835-1.722,0.835
		c-1.139,0-1.718-0.801-1.718-1.613c0-1.359,1.209-2.101,3.381-2.094V7.052C26.195,6.6,26.069,5.751,24.917,5.761z M20.637,10.046
		c0.58,0,0.963-0.136,1.251-0.266l0.177,0.769c-0.271,0.128-0.861,0.324-1.614,0.324c-1.699,0-2.804-1.149-2.804-2.868
		c0-1.733,1.188-2.995,3.022-2.995c0.604,0,1.141,0.148,1.419,0.299l-0.233,0.782c-0.241-0.13-0.627-0.271-1.186-0.271
		c-1.289,0-1.986,0.963-1.986,2.128C18.683,9.249,19.52,10.046,20.637,10.046z M17.33,10.743h-1.199l-2.562-3.844l-0.758,0.861
		v2.982h-1.009V3.458h1.009v3.235h0.034c0.21-0.304,0.418-0.581,0.618-0.837l1.951-2.398h1.233l-2.372,2.781L17.33,10.743z
		 M28.852,3.458h1.022v7.285h-1.022V3.458z M44.619,26.94c0,3.701-3.011,6.71-6.71,6.71H27.454v-0.781h-0.3
		c4.456-0.732,7.783-3.565,7.783-6.956H14.836c0,3.391,3.327,6.224,7.783,6.956h-0.333v0.781H9.394c-3.699,0-6.71-3.009-6.71-6.71
		V10.168c0-3.655,2.94-6.633,6.579-6.705v8.905h23.564v-8.91h5.082c3.699,0,6.71,3.009,6.71,6.71V26.94z"/>
	<path style="fill:#262626;" d="M23.838,9.144c0,0.672,0.44,0.975,0.954,0.975c0.739,0,1.216-0.464,1.378-0.94
		c0.037-0.118,0.046-0.234,0.046-0.325V7.876C25.103,7.854,23.838,8.052,23.838,9.144z"/>
	<path style="fill:#262626;" d="M29.818,22.212l4.472-8.607l-0.588-0.308l-5.024,9.668H26.51c0.179-0.416,0.471-0.947,0.94-1.649
		l0.047-0.066c0.264-0.397,0.302-1.066-0.043-1.336c-0.394-0.303-0.975-0.015-1.741,0.84c-0.87,0.974-0.62,1.39-0.21,1.832
		c0.106,0.116,0.21,0.233,0.284,0.38h-0.603c-0.082-0.182-0.18-0.36-0.307-0.517c0.083-0.212,0.137-0.424,0.154-0.628
		c0.061-0.739-0.374-1.267-1.171-1.401c-0.757-0.126-1.303,0.168-1.73,0.576c-0.261-0.216-0.539-0.414-0.84-0.574
		c-1.324-0.719-1.921-0.873-2.203-0.576c-0.349,0.364,0.029,1.036,0.92,2.521c0.135,0.223,0.329,0.489,0.589,0.599h-5.761v2.658
		h20.067v-2.658h-4.874l7.568-8.282l-0.491-0.447L29.818,22.212z M26.089,21.087c0.591-0.66,0.907-0.782,1.016-0.782
		c0.021,0,0.034,0.002,0.042,0.008c0.086,0.066,0.082,0.429-0.066,0.655l-0.046,0.067c-0.306,0.457-0.646,0.993-0.898,1.527
		c-0.086-0.126-0.181-0.228-0.267-0.318C25.585,21.937,25.453,21.796,26.089,21.087z M22.092,22.965
		c0.246-0.132,0.527-0.264,0.845-0.386c0.101,0.128,0.185,0.258,0.276,0.386H22.092z M23.441,22.415
		c0.322-0.066,0.583-0.024,0.807,0.128c0.008,0.004,0.012,0.006,0.02,0.01c-0.079,0.142-0.184,0.276-0.292,0.412h-0.143
		C23.709,22.783,23.581,22.601,23.441,22.415z M24.626,22.965h-0.021c0.004-0.006,0.01-0.012,0.012-0.018
		C24.62,22.953,24.624,22.959,24.626,22.965z M23.521,20.894c0.082,0,0.168,0.006,0.258,0.021c0.539,0.094,0.793,0.381,0.751,0.863
		c-0.008,0.098-0.028,0.202-0.06,0.308c-0.385-0.235-0.845-0.266-1.366-0.1c-0.186-0.225-0.386-0.444-0.6-0.654
		C22.784,21.073,23.111,20.894,23.521,20.894z M19.466,20.167c0.004,0.025,0.282-0.012,1.587,0.692
		c0.265,0.146,0.511,0.316,0.741,0.507c-0.137,0.174-0.262,0.348-0.379,0.512c-0.203,0.286-0.454,0.639-0.594,0.639
		c-0.015,0-0.141-0.008-0.379-0.402C20.004,21.382,19.41,20.391,19.466,20.167z M21.826,22.167c0.108-0.154,0.222-0.312,0.344-0.465
		c0.15,0.148,0.297,0.307,0.437,0.471c-0.494,0.204-1.028,0.482-1.447,0.792h-0.11C21.333,22.849,21.569,22.531,21.826,22.167z"/>
</g>
<g>
</g>
<g>
</g>
<g>
</g>
<g>
</g>
<g>
</g>
<g>
</g>
<g>
</g>
<g>
</g>
<g>
</g>
<g>
</g>
<g>
</g>
<g>
</g>
<g>
</g>
<g>
</g>
<g>
</g>
</svg>
