<?xml version="1.0" encoding="iso-8859-1"?>
<!-- Generator: Adobe Illustrator 16.0.4, SVG Export Plug-In . SVG Version: 6.00 Build 0)  -->
<!DOCTYPE svg PUBLIC "-//W3C//DTD SVG 1.1//EN" "http://www.w3.org/Graphics/SVG/1.1/DTD/svg11.dtd">
<svg version="1.1" id="Capa_1" xmlns="http://www.w3.org/2000/svg" xmlns:xlink="http://www.w3.org/1999/xlink" x="0px" y="0px"
	 width="47.65px" height="31.287px" viewBox="0 0 47.65 31.287" style="enable-background:new 0 0 47.65 31.287;"
	 xml:space="preserve">
<g>
	<path style="fill:#262626;" d="M31.615,14.991V0H15.418v11.385H0v19.902h15.418h0.778h15.257h0.162H47.65V14.991H31.615z
		 M14.895,29.983H1.305V12.689h13.59V29.983z M30.311,29.983H16.719V1.305h13.592V29.983z M46.346,29.983h-13.59V16.296h13.59
		V29.983z"/>
	<path style="fill:#262626;" d="M27.02,17.373h-2.324V7.115H23.51c-0.021,0.331-0.098,0.595-0.235,0.792
		c-0.135,0.195-0.318,0.357-0.553,0.484c-0.187,0.102-0.463,0.18-0.833,0.233c-0.366,0.054-0.712,0.081-1.029,0.081v1.04h2.368
		v7.628h-2.368v1.161h6.16V17.373z"/>
	<path style="fill:#262626;" d="M12.177,25.544H6.054c0.506-0.428,1.049-0.893,1.631-1.395c0.577-0.501,1.141-1.02,1.688-1.555
		c0.381-0.373,0.705-0.711,0.975-1.017c0.269-0.306,0.501-0.617,0.699-0.933c0.212-0.337,0.376-0.691,0.484-1.066
		c0.109-0.374,0.166-0.778,0.166-1.211c0-0.963-0.332-1.727-0.995-2.29c-0.662-0.563-1.577-0.844-2.742-0.844
		c-0.568,0-1.151,0.074-1.759,0.221c-0.6,0.148-1.084,0.312-1.444,0.489v1.605h0.076c0.515-0.336,1.043-0.586,1.582-0.749
		c0.54-0.164,1.042-0.244,1.507-0.244c0.696,0,1.241,0.166,1.632,0.5c0.39,0.335,0.584,0.796,0.584,1.388
		c0,0.647-0.184,1.25-0.543,1.808c-0.363,0.558-1.034,1.311-2.011,2.258c-0.463,0.454-0.965,0.911-1.502,1.369
		c-0.538,0.459-1.076,0.917-1.609,1.376v1.597h7.705V25.544z"/>
	<path style="fill:#262626;" d="M39.361,28.882c0.613,0,1.184-0.085,1.7-0.256c0.518-0.17,0.965-0.435,1.351-0.791
		c0.339-0.321,0.604-0.698,0.793-1.132c0.188-0.433,0.284-0.909,0.284-1.429c0-0.525-0.08-0.953-0.236-1.284
		c-0.16-0.331-0.36-0.606-0.606-0.825c-0.218-0.194-0.486-0.355-0.803-0.485c-0.316-0.13-0.595-0.216-0.841-0.256v-0.107
		c0.608-0.123,1.133-0.419,1.579-0.891c0.445-0.471,0.671-1.023,0.671-1.655c0-0.463-0.096-0.869-0.284-1.216
		c-0.188-0.346-0.466-0.642-0.833-0.886c-0.342-0.224-0.725-0.387-1.148-0.489c-0.421-0.102-0.911-0.153-1.466-0.153
		c-0.566,0-1.152,0.075-1.755,0.225c-0.604,0.15-1.085,0.315-1.449,0.493v1.598h0.078c0.482-0.316,0.998-0.561,1.543-0.733
		c0.545-0.174,1.061-0.261,1.545-0.261c0.314,0,0.599,0.026,0.847,0.078c0.252,0.05,0.484,0.142,0.705,0.275
		c0.208,0.132,0.372,0.302,0.488,0.508c0.116,0.206,0.178,0.447,0.178,0.722c0,0.622-0.231,1.094-0.692,1.419
		c-0.464,0.322-1.08,0.484-1.854,0.484h-0.538v1.27h0.688c0.378,0,0.729,0.029,1.057,0.088c0.324,0.058,0.603,0.167,0.833,0.325
		c0.23,0.152,0.41,0.363,0.539,0.63c0.13,0.267,0.195,0.604,0.195,1.013c0,0.413-0.059,0.754-0.174,1.024
		c-0.112,0.271-0.29,0.517-0.522,0.742c-0.225,0.208-0.517,0.367-0.881,0.474c-0.36,0.107-0.702,0.16-1.024,0.16
		c-0.541,0-1.109-0.095-1.696-0.283c-0.586-0.188-1.095-0.426-1.525-0.71h-0.115v1.597c0.392,0.179,0.893,0.343,1.505,0.493
		C38.108,28.807,38.729,28.882,39.361,28.882z"/>
</g>
<g>
</g>
<g>
</g>
<g>
</g>
<g>
</g>
<g>
</g>
<g>
</g>
<g>
</g>
<g>
</g>
<g>
</g>
<g>
</g>
<g>
</g>
<g>
</g>
<g>
</g>
<g>
</g>
<g>
</g>
</svg>
