<?xml version="1.0" encoding="iso-8859-1"?>
<!-- Generator: Adobe Illustrator 16.0.4, SVG Export Plug-In . SVG Version: 6.00 Build 0)  -->
<!DOCTYPE svg PUBLIC "-//W3C//DTD SVG 1.1//EN" "http://www.w3.org/Graphics/SVG/1.1/DTD/svg11.dtd">
<svg version="1.1" id="Capa_1" xmlns="http://www.w3.org/2000/svg" xmlns:xlink="http://www.w3.org/1999/xlink" x="0px" y="0px"
	 width="42.86px" height="42.862px" viewBox="0 0 42.86 42.862" style="enable-background:new 0 0 42.86 42.862;"
	 xml:space="preserve">
<path style="fill:#262626;" d="M39.399,29.132c-3.349-3.348-8.346-3.836-11.522-1.254l-6.188-6.19L42.86,0.513l-1.986,0.705
	L20.617,20.616L0,0l0.704,1.988l18.834,19.665l-5.795,5.549c-3.177-2.395-8.034-1.858-11.304,1.415l4.233,4.235L0,39.526
	l2.822,2.824l6.674-6.674l4.235,4.234c3.347-3.346,3.837-8.348,1.253-11.521l5.625-5.622l6.077,6.351
	c-2.391,3.179-1.857,8.033,1.421,11.308l4.233-4.237l6.672,6.673l2.824-2.822l-6.674-6.675L39.399,29.132z"/>
<g>
</g>
<g>
</g>
<g>
</g>
<g>
</g>
<g>
</g>
<g>
</g>
<g>
</g>
<g>
</g>
<g>
</g>
<g>
</g>
<g>
</g>
<g>
</g>
<g>
</g>
<g>
</g>
<g>
</g>
</svg>
