<?xml version="1.0" encoding="iso-8859-1"?>
<!-- Generator: Adobe Illustrator 16.0.4, SVG Export Plug-In . SVG Version: 6.00 Build 0)  -->
<!DOCTYPE svg PUBLIC "-//W3C//DTD SVG 1.1//EN" "http://www.w3.org/Graphics/SVG/1.1/DTD/svg11.dtd">
<svg version="1.1" id="Capa_1" xmlns="http://www.w3.org/2000/svg" xmlns:xlink="http://www.w3.org/1999/xlink" x="0px" y="0px"
	 width="36.307px" height="38.126px" viewBox="0 0 36.307 38.126" style="enable-background:new 0 0 36.307 38.126;"
	 xml:space="preserve">
<g>
	<path style="fill:#262626;" d="M35.876,18.575c-0.128-1.303-0.398-2.562-0.791-3.769l1.189,0.019
		c-1.249-4.884-4.428-9.272-8.667-11.988c-1.664,0.741-3.22,1.47-4.292,2.668c-1.157,1.239-1.676,2.964-1.77,4.897
		c-0.448-0.875-0.583-1.91-0.442-2.924c0.128-1.021,0.606-2.013,1.305-2.797c0.715-0.771,1.625-1.325,2.578-1.636
		c0.775-0.262,1.582-0.379,2.382-0.364C24.656,1,21.527,0,18.184,0C9.38,0,2.001,6.091,0.033,14.289l1.369,0.021
		c-0.486,1.356-0.832,2.782-0.973,4.266H0v1.869h0.346c0.07,9.761,8.029,17.682,17.806,17.682c9.778,0,17.736-7.921,17.807-17.682
		h0.349v-1.869H35.876z M11.449,3.046c0.953,0.311,1.857,0.864,2.576,1.636c0.699,0.784,1.177,1.776,1.305,2.797
		c0.139,1.014,0.009,2.049-0.447,2.924c-0.091-1.934-0.607-3.658-1.764-4.897c-1.138-1.271-2.811-2.011-4.586-2.802
		C9.508,2.61,10.499,2.727,11.449,3.046z M3.995,14.347l28.472,0.421c0.465,1.205,0.793,2.479,0.943,3.808h-1.826
		c-0.684-1.605-3.061-2.799-5.917-2.799s-5.232,1.193-5.915,2.799h-4.26c-0.682-1.605-3.061-2.799-5.916-2.799
		c-2.854,0-5.234,1.193-5.915,2.799H2.893C3.059,17.094,3.431,15.672,3.995,14.347z M18.151,35.678
		c-8.428,0-15.287-6.823-15.357-15.233h0.867c0.684,1.606,3.062,2.799,5.915,2.799c2.855,0,5.234-1.192,5.916-2.799h4.26
		c0.686,1.606,3.062,2.799,5.915,2.799c2.856,0,5.232-1.192,5.917-2.799h1.928C33.441,28.854,26.58,35.678,18.151,35.678z"/>
	<path style="fill:#262626;" d="M27.899,2.703c-0.177-0.016-0.351-0.02-0.531-0.021c0.083,0.05,0.159,0.104,0.239,0.155
		C27.705,2.793,27.803,2.748,27.899,2.703z"/>
	<ellipse style="fill:#262626;" cx="18.151" cy="28.617" rx="3.569" ry="2.021"/>
</g>
<g>
</g>
<g>
</g>
<g>
</g>
<g>
</g>
<g>
</g>
<g>
</g>
<g>
</g>
<g>
</g>
<g>
</g>
<g>
</g>
<g>
</g>
<g>
</g>
<g>
</g>
<g>
</g>
<g>
</g>
</svg>
