<?xml version="1.0" encoding="iso-8859-1"?>
<!-- Generator: Adobe Illustrator 16.0.4, SVG Export Plug-In . SVG Version: 6.00 Build 0)  -->
<!DOCTYPE svg PUBLIC "-//W3C//DTD SVG 1.1//EN" "http://www.w3.org/Graphics/SVG/1.1/DTD/svg11.dtd">
<svg version="1.1" id="Capa_1" xmlns="http://www.w3.org/2000/svg" xmlns:xlink="http://www.w3.org/1999/xlink" x="0px" y="0px"
	 width="44.267px" height="51.231px" viewBox="0 0 44.267 51.231" style="enable-background:new 0 0 44.267 51.231;"
	 xml:space="preserve">
<path style="fill:#262626;" d="M44.011,32.104c-0.174-0.48-0.44-0.908-0.769-1.293c-0.577-2.328-1.718-4.998-3.378-7.646
	c-2.659-4.247-9.696-11.09-12.37-12.145c-0.133-0.054-0.253-0.084-0.365-0.111c-0.091-0.659-0.464-1.271-1.348-1.691
	c-1.379-0.647-2.739-1.279-4.016-1.72C20.231,3.139,16.082,0,11.205,0C5.026,0,0,5.023,0,11.202c0,6.178,5.026,11.204,11.205,11.204
	c5.085,0,9.384-3.41,10.747-8.062c1.017-0.156,1.894-0.103,2.388,0.633c1.374,2.044,2.888,8.847,5.405,13.195
	c-0.636-0.087-1.292-0.135-1.968-0.135c-2.904,0-5.514,0.85-7.357,2.212c-1.578-2.462-4.332-4.098-7.474-4.098
	c-4.161,0-7.64,2.865-8.603,6.729l-0.382,0.003l0.22,18.347l4.537-0.077l1.646-2.917c2.86-1.097,6.242-3.931,8.591-6.948
	c3.184,0.467,7.204,0.733,8.822,0.733c1.753,0,8.379-0.772,10.273-1.466C42.461,38.943,45.134,35.158,44.011,32.104z M11.205,14.486
	c-1.811,0-3.283-1.473-3.283-3.284c0-1.81,1.472-3.281,3.283-3.281c1.81,0,3.282,1.472,3.282,3.281
	C14.487,13.014,13.014,14.486,11.205,14.486z"/>
<g>
</g>
<g>
</g>
<g>
</g>
<g>
</g>
<g>
</g>
<g>
</g>
<g>
</g>
<g>
</g>
<g>
</g>
<g>
</g>
<g>
</g>
<g>
</g>
<g>
</g>
<g>
</g>
<g>
</g>
</svg>
