<?xml version="1.0" encoding="utf-8"?>
<!-- Generator: Adobe Illustrator 16.0.4, SVG Export Plug-In . SVG Version: 6.00 Build 0)  -->
<!DOCTYPE svg PUBLIC "-//W3C//DTD SVG 1.1//EN" "http://www.w3.org/Graphics/SVG/1.1/DTD/svg11.dtd">
<svg version="1.1" id="Capa_1" xmlns="http://www.w3.org/2000/svg" xmlns:xlink="http://www.w3.org/1999/xlink" x="0px" y="0px"
	 width="44.25px" height="58.114px" viewBox="0 0 44.25 58.114" enable-background="new 0 0 44.25 58.114" xml:space="preserve">
<path fill="#262626" d="M3.22,27.96l0.097,10.682l-3.22,0.028L0,27.99L3.22,27.96z M26.65,27.328l0.039,4.418L7.212,31.92
	l-0.036-3.995l-3.217,0.03l0.095,10.681l3.217-0.026l-0.042-4.846l19.478-0.177l0.039,4.42l3.221-0.026l-0.1-10.683L26.65,27.328z
	 M13.634,19.866h-3.219v10.681h3.219V19.866z M30.609,27.29l0.097,10.68l3.219-0.028l-0.096-10.681L30.609,27.29z M37.068,23.861
	H17.591v-3.995h-3.219v10.681h3.219v-4.844h19.478v4.42h3.222v-10.68h-3.222V23.861L37.068,23.861z M41.029,19.443v10.68h3.221
	v-10.68H41.029z"/>
</svg>
