<?xml version="1.0" encoding="iso-8859-1"?>
<!-- Generator: Adobe Illustrator 16.0.4, SVG Export Plug-In . SVG Version: 6.00 Build 0)  -->
<!DOCTYPE svg PUBLIC "-//W3C//DTD SVG 1.1//EN" "http://www.w3.org/Graphics/SVG/1.1/DTD/svg11.dtd">
<svg version="1.1" id="Capa_1" xmlns="http://www.w3.org/2000/svg" xmlns:xlink="http://www.w3.org/1999/xlink" x="0px" y="0px"
	 width="40.229px" height="40.227px" viewBox="0 0 40.229 40.227" style="enable-background:new 0 0 40.229 40.227;"
	 xml:space="preserve">
<g>
	<path style="fill:#262626;" d="M20.117,0C9.002,0,0,9.005,0,20.115c0,11.104,9.002,20.112,20.117,20.112
		c11.106,0,20.111-9.008,20.111-20.112C40.229,9.005,31.224,0,20.117,0z M20.111,35.348c-7.018,0-12.705-5.688-12.705-12.708
		c0-7.018,5.688-12.707,12.705-12.707S32.82,15.623,32.82,22.641C32.82,29.66,27.129,35.348,20.111,35.348z"/>
	<path style="fill:#262626;" d="M22.628,22.136v-0.083c2.278-1.055,3.076-2.761,3.076-4.327c0-2.334-1.821-4.553-5.41-4.553
		c-3.268,0-5.747,1.993-5.747,4.924c0,1.592,0.885,3.187,2.959,4.155l0.031,0.083c-2.279,0.968-3.673,2.648-3.673,4.982
		c0,2.702,2.332,4.979,6.205,4.979c3.527,0,6.287-2.134,6.287-5.378C26.356,24.699,24.934,23.045,22.628,22.136z M16.938,17.925
		c0-1.593,1.138-2.959,3.215-2.959c2.248,0,3.131,1.536,3.131,3.016c0,1.678-1.223,2.817-2.82,3.357
		C18.334,20.77,16.908,19.776,16.938,17.925z M20.128,30.476c-2.364,0-3.787-1.65-3.701-3.5c0-1.765,1.163-3.218,3.329-3.842
		c2.504,0.712,4.068,1.82,4.068,4.041C23.824,29.081,22.373,30.476,20.128,30.476z"/>
</g>
<g>
</g>
<g>
</g>
<g>
</g>
<g>
</g>
<g>
</g>
<g>
</g>
<g>
</g>
<g>
</g>
<g>
</g>
<g>
</g>
<g>
</g>
<g>
</g>
<g>
</g>
<g>
</g>
<g>
</g>
</svg>
