<?xml version="1.0" encoding="utf-8"?>
<!-- Generator: Adobe Illustrator 18.0.0, SVG Export Plug-In . SVG Version: 6.00 Build 0)  -->
<!DOCTYPE svg PUBLIC "-//W3C//DTD SVG 1.1//EN" "http://www.w3.org/Graphics/SVG/1.1/DTD/svg11.dtd">
<svg version="1.1" id="Capa_1" xmlns="http://www.w3.org/2000/svg" xmlns:xlink="http://www.w3.org/1999/xlink" x="0px" y="0px"
	 viewBox="0 0 44.8 52.8" enable-background="new 0 0 44.8 52.8" xml:space="preserve">
<path d="M13.3,4.3L9.9,1l1-1l3.4,3.3L13.3,4.3z M0.5,10.9l3.4,3.3l1-1L1.5,9.9L0.5,10.9z M34.9,1l-1-1l-3.4,3.3l1,1L34.9,1z
	 M43.3,9.8L40,13.2l1,1l3.4-3.3L43.3,9.8z M42.1,8.6l-1.3,1.2l-1.6-1.6c0.3-0.7,0.2-1.5-0.4-2.1c-0.6-0.6-1.4-0.7-2.1-0.4l-2-2.1
	l1.4-1.4l-1-1l-3.4,3.3l1,1l1.4-1.4l2,2l-6.8,6.9H15.5L8.7,6.2l2-2L12,5.6l1-1L9.7,1.3l-1,1L10,3.7L8,5.7C7.3,5.4,6.5,5.5,5.9,6.1
	c-0.4,0.4-0.6,1-0.5,1.6c0,0.2,0.1,0.4,0.2,0.5L4,9.8L2.7,8.6l-1,1l3.4,3.3l1-1l-1.5-1.5l1.5-1.5l10.6,10.9l0,30.5
	c0,1.4,1.1,2.5,2.5,2.5c1.4,0,2.5-1.1,2.5-2.5l0-20.4h1.4l0,20.4c0,1.4,1.1,2.5,2.5,2.5c1.4,0,2.5-1.1,2.5-2.5l0-30.5L38.8,8.9
	l1.5,1.5l-1.5,1.5l1,1l3.4-3.3L42.1,8.6z M22.4,11.7c2.5,0,4.6-2.1,4.6-4.6s-2.1-4.6-4.6-4.6c-2.5,0-4.6,2.1-4.6,4.6
	S19.9,11.7,22.4,11.7z"/>
</svg>
