<?xml version="1.0" encoding="utf-8"?>
<!-- Generator: Adobe Illustrator 16.0.4, SVG Export Plug-In . SVG Version: 6.00 Build 0)  -->
<!DOCTYPE svg PUBLIC "-//W3C//DTD SVG 1.1//EN" "http://www.w3.org/Graphics/SVG/1.1/DTD/svg11.dtd">
<svg version="1.1" id="Capa_1" xmlns="http://www.w3.org/2000/svg" xmlns:xlink="http://www.w3.org/1999/xlink" x="0px" y="0px"
	 width="43.869px" height="50.453px" viewBox="0 0 43.869 50.453" enable-background="new 0 0 43.869 50.453" xml:space="preserve">
<path fill="#262626" d="M0.001,20.29l3.174-3.602l1.084,0.955l-3.174,3.602L0.001,20.29z M22.311,8.912
	c2.458,0,4.454-2.002,4.454-4.458c0-2.46-1.996-4.454-4.454-4.454c-2.456,0-4.453,1.994-4.453,4.454
	C17.857,6.91,19.854,8.912,22.311,8.912z M11.532,30.207l-1.086-0.959l3.177-3.6l1.086,0.959L11.532,30.207z M28.877,10.35
	l-0.003,0.021v0.002L28.877,10.35z M32.724,30.4l-3.227-3.561l1.07-0.971l3.227,3.561L32.724,30.4z M40.646,16.49l-1.074,0.971
	l3.224,3.557l1.075-0.969L40.646,16.49z M38.252,18.656l1.333,1.473l-1.848,1.674l-7.752-10.717
	c-0.278-0.387-0.682-0.621-1.113-0.701l0.002-0.014V10.35H15.219l0.016,0.085c-0.355,0.112-0.679,0.328-0.912,0.651L6.449,21.971
	l-2.043-1.804l1.19-1.349l-1.089-0.953l-3.175,3.599l1.087,0.959l1.44-1.637l2.187,1.932c-0.198,0.7,0.038,1.479,0.661,1.929
	c0.525,0.379,1.185,0.425,1.739,0.188l1.979,1.744L9.111,28.07l1.087,0.955l3.175-3.6l-1.085-0.959l-1.314,1.491l-1.85-1.632
	c0.021-0.031,0.046-0.053,0.066-0.08L16,14.833l0.393,2.254L16.379,47.91c0,1.406,1.137,2.544,2.54,2.544
	c1.399,0,2.538-1.138,2.538-2.544V27.309h1.134v20.627l0.02,0.017c0.02,1.38,1.143,2.503,2.523,2.503
	c1.397,0,2.526-1.139,2.526-2.53L27.658,17.13l0.46-2.553l6.965,9.63l-1.986,1.802l-1.207-1.331l-1.07,0.971l3.224,3.558
	l1.073-0.971l-1.463-1.613l2.055-1.86c0.581,0.318,1.314,0.303,1.893-0.114c0.688-0.496,0.908-1.389,0.592-2.135l1.953-1.769
	l1.334,1.474l1.07-0.973l-3.223-3.56L38.252,18.656z M27.659,16.096v-0.158l0.035-0.01L27.659,16.096z"/>
</svg>
