<?xml version="1.0" encoding="iso-8859-1"?>
<!-- Generator: Adobe Illustrator 16.0.4, SVG Export Plug-In . SVG Version: 6.00 Build 0)  -->
<!DOCTYPE svg PUBLIC "-//W3C//DTD SVG 1.1//EN" "http://www.w3.org/Graphics/SVG/1.1/DTD/svg11.dtd">
<svg version="1.1" id="Capa_1" xmlns="http://www.w3.org/2000/svg" xmlns:xlink="http://www.w3.org/1999/xlink" x="0px" y="0px"
	 width="41.216px" height="42.954px" viewBox="0 0 41.216 42.954" style="enable-background:new 0 0 41.216 42.954;"
	 xml:space="preserve">
<g>
	<path style="fill:#262626;" d="M2.011,20.735c-0.238-0.238-0.508-0.36-0.598-0.269L0.029,21.85
		c-0.089,0.091,0.032,0.36,0.269,0.597l1.021,1.021l-0.275,1.503l1.503-0.274l0.733,0.732l-0.275,1.503l1.502-0.275l8.158,8.157
		l-0.274,1.503l1.502-0.274l1.001,1l-0.276,1.503l1.503-0.275l0.63,0.631l-0.275,1.503l1.503-0.275l0.515,0.514
		c0.235,0.236,0.504,0.358,0.595,0.267l1.384-1.384c0.091-0.091-0.032-0.36-0.267-0.595L2.011,20.735z"/>
	<path style="fill:#262626;" d="M15.718,25.729l1.016,1.016l-5.55,1.618l1.227,1.226l3.645-0.883l1.083,1.082l-3.591,0.939
		l1.213,1.213l1.774-0.491l0.945,0.945l-1.757,0.507l5.689,5.69c0,0,3.384-0.301,1.642-3.137c0,0-6.469-8.063-5.474-15.628
		c0,0,0.119-1.981-1.182-0.296L23.517,0h-7.711l-5.01,13.254c-0.093-0.135-0.214-0.255-0.38-0.348
		c-0.417-0.213-1.167-0.224-2.392,0.95L2.349,19.53l7.714,7.713L15.718,25.729z"/>
	<path style="fill:#262626;" d="M32.263,34.812c4.944,0,8.953-4.01,8.953-8.954s-4.009-8.954-8.953-8.954
		c-4.947,0-8.954,4.009-8.954,8.954S27.316,34.812,32.263,34.812z M29.402,33.315c-0.178,0.092-0.342,0.176-0.475,0.242
		c-1.103-0.466-2.086-1.163-2.894-2.025c0.02-0.129,0.05-0.31,0.083-0.507c0.079-0.504,0.18-1.126,0.219-1.373
		c0.005-0.034,0.009-0.061,0.012-0.08c0.066,0.019,0.259,0.07,0.519,0.14c0.718,0.195,1.928,0.523,2.173,0.589
		c0.023,0.005,0.037,0.011,0.041,0.011c0.012,0.018,0.081,0.126,0.183,0.289c0.236,0.37,0.646,1.02,0.953,1.504
		c0.134,0.213,0.25,0.394,0.318,0.503c0.029,0.046,0.049,0.08,0.062,0.098C30.469,32.772,29.896,33.065,29.402,33.315z
		 M32.254,22.982c0.022,0.015,0.094,0.065,0.201,0.141c0.604,0.429,2.342,1.656,2.469,1.745c-0.003,0.006-0.006,0.019-0.01,0.032
		c-0.001,0.004-0.003,0.009-0.005,0.014c-0.129,0.397-0.964,2.96-1.017,3.121c-0.012,0-0.036,0-0.07,0c-0.091,0-0.252,0-0.458,0
		c-0.896,0-2.609,0-2.745,0c-0.052-0.161-0.886-2.724-1.016-3.121c-0.002-0.005-0.003-0.01-0.005-0.014
		c-0.004-0.014-0.009-0.026-0.011-0.032c0.126-0.089,1.863-1.316,2.469-1.745C32.162,23.047,32.233,22.997,32.254,22.982z
		 M32.056,22.796v-2.439l0.199,0.079l0.201-0.079v2.439l-0.201-0.141L32.056,22.796z M35.272,30.08l-0.015,0.003l-0.243,0.345
		l-1.494-2.126h0.49L35.272,30.08z M30.46,28.301h0.489l-1.493,2.104l-0.205-0.323L30.46,28.301z M32.217,32.815
		c-0.45,0-0.891-0.045-1.317-0.126l-0.299-0.475c0.517,0.13,1.059,0.2,1.617,0.2c0.59,0,1.164-0.078,1.709-0.224l-0.307,0.482
		C33.167,32.765,32.697,32.815,32.217,32.815z M35.568,33.53c-0.137-0.068-0.303-0.15-0.476-0.237
		c-0.495-0.246-1.052-0.523-1.177-0.585c0.014-0.022,0.04-0.063,0.076-0.118c0.074-0.118,0.188-0.303,0.324-0.517
		c0.439-0.695,1.078-1.704,1.113-1.76c0.067-0.018,1.327-0.36,2.122-0.574c0.287-0.079,0.513-0.14,0.599-0.163
		c0.004-0.001,0.012-0.004,0.015-0.004c0.026,0.14,0.146,0.795,0.245,1.349c0.033,0.188,0.065,0.364,0.091,0.505
		C37.691,32.323,36.692,33.043,35.568,33.53z M38.348,29.246l-0.561,0.152c0.615-0.936,0.999-2.037,1.074-3.22l0.359,0.451
		C39.103,27.571,38.8,28.457,38.348,29.246z M37.545,24.032c0.02-0.264,0.093-1.326,0.146-2.061c0.018-0.263,0.034-0.485,0.042-0.61
		c0.002-0.042,0.005-0.073,0.007-0.093c0.14,0.025,0.777,0.135,1.324,0.229c0.193,0.034,0.373,0.064,0.517,0.089
		c0.585,1.028,0.961,2.189,1.069,3.427c-0.105,0.1-0.234,0.226-0.375,0.362c-0.399,0.385-0.866,0.835-0.969,0.935
		c-0.011-0.013-0.028-0.036-0.049-0.062c-0.077-0.095-0.217-0.27-0.382-0.479c-0.352-0.441-0.828-1.038-1.106-1.387
		c-0.128-0.162-0.214-0.271-0.226-0.288C37.543,24.088,37.544,24.065,37.545,24.032z M35.074,25.268l0.153-0.472l2.04-0.617
		l0.258,0.314L35.074,25.268z M37.486,21.068l-0.04,0.574c-0.743-0.941-1.731-1.677-2.87-2.11l0.536-0.208
		C36.024,19.733,36.83,20.33,37.486,21.068z M30.218,17.942c0.09-0.18,0.174-0.344,0.237-0.466c0.567-0.12,1.157-0.187,1.762-0.187
		c0.604,0,1.193,0.067,1.762,0.187c0.067,0.124,0.16,0.289,0.26,0.471c0.262,0.475,0.578,1.046,0.651,1.178
		c-0.024,0.009-0.071,0.026-0.13,0.05c-0.131,0.05-0.335,0.129-0.571,0.221c-0.585,0.229-1.368,0.535-1.733,0.675
		c-0.113,0.044-0.185,0.073-0.201,0.079c-0.013-0.006-0.086-0.035-0.199-0.079c-0.372-0.144-1.176-0.457-1.764-0.686
		c-0.248-0.096-0.457-0.177-0.579-0.226c-0.043-0.015-0.078-0.029-0.097-0.036C29.682,18.992,29.975,18.417,30.218,17.942z
		 M29.356,19.307l0.54,0.211c-1.12,0.417-2.095,1.126-2.838,2.035L27.02,20.99C27.671,20.279,28.466,19.704,29.356,19.307z
		 M27.237,24.16l2.047,0.637l0.153,0.472L27.01,24.47L27.237,24.16z M25.182,26.289c-0.141-0.136-0.626-0.605-1.018-0.984
		c-0.145-0.142-0.277-0.268-0.375-0.361c0.116-1.206,0.487-2.337,1.057-3.344c0.135-0.023,0.319-0.053,0.515-0.088
		c0.564-0.099,1.262-0.218,1.411-0.244c0,0.002,0,0.004,0,0.004c0.005,0.075,0.021,0.305,0.042,0.603
		c0.052,0.734,0.133,1.882,0.15,2.157c0.004,0.034,0.004,0.056,0.006,0.062c-0.013,0.017-0.101,0.125-0.229,0.288
		c-0.299,0.375-0.823,1.033-1.177,1.479c-0.18,0.224-0.316,0.396-0.359,0.449C25.199,26.306,25.189,26.297,25.182,26.289z
		 M25.23,26.707l0.352-0.443c0.085,1.142,0.459,2.201,1.051,3.11l-0.531-0.112c-0.46-0.786-0.75-1.62-0.876-2.561L25.23,26.707z"/>
	<path style="fill:#262626;" d="M35.59,38.013c-1.293,0.887-2.603,1.869-4.162,2.505c-1.545,0.639-3.202,1.079-4.895,1.367
		c-1.689,0.321-3.424,0.484-5.164,0.524l-0.02,0.212c1.744,0.3,3.517,0.363,5.298,0.321c1.779-0.085,3.569-0.329,5.332-0.817
		c1.738-0.497,3.598-1.122,4.981-2.489c1.377-1.324,2.351-3.137,2.405-5.004l-0.199-0.074C38.013,35.97,36.896,37.098,35.59,38.013z
		"/>
</g>
<g>
</g>
<g>
</g>
<g>
</g>
<g>
</g>
<g>
</g>
<g>
</g>
<g>
</g>
<g>
</g>
<g>
</g>
<g>
</g>
<g>
</g>
<g>
</g>
<g>
</g>
<g>
</g>
<g>
</g>
</svg>
