<?xml version="1.0" encoding="utf-8"?>
<!-- Generator: Adobe Illustrator 16.0.0, SVG Export Plug-In . SVG Version: 6.00 Build 0)  -->
<!DOCTYPE svg PUBLIC "-//W3C//DTD SVG 1.1//EN" "http://www.w3.org/Graphics/SVG/1.1/DTD/svg11.dtd">
<svg version="1.1" id="Capa_1" xmlns="http://www.w3.org/2000/svg" xmlns:xlink="http://www.w3.org/1999/xlink" x="0px" y="0px"
	 width="36.434px" height="49.141px" viewBox="0 0 36.434 49.141" enable-background="new 0 0 36.434 49.141" xml:space="preserve">
<g>
	<path d="M19.16,10.242h-1.476c-0.027,0.413-0.125,0.742-0.292,0.987c-0.168,0.244-0.4,0.446-0.689,0.604
		c-0.238,0.128-0.583,0.223-1.039,0.291c-0.457,0.066-0.89,0.101-1.288,0.101v1.295h2.953v9.511h-2.953v1.448h7.682v-1.448H19.16
		V10.242z"/>
	<path d="M28.987,30.801c0.52-0.279,1.011-0.638,1.449-1.077c1.779-1.777,2.245-4.367,1.41-6.575
		c2.152-0.971,3.652-3.131,3.652-5.646c0-2.514-1.5-4.673-3.652-5.646c0.835-2.208,0.369-4.795-1.41-6.574
		c-1.777-1.778-4.366-2.244-6.574-1.409c-0.971-2.152-3.131-3.652-5.645-3.652s-4.674,1.5-5.646,3.652
		c-2.208-0.834-4.796-0.368-6.574,1.41c-1.779,1.779-2.245,4.367-1.41,6.574c-2.151,0.972-3.652,3.132-3.652,5.646
		c0,2.515,1.5,4.675,3.652,5.646c-0.834,2.208-0.368,4.798,1.41,6.575c0.439,0.439,0.929,0.798,1.45,1.077L0.159,44.37l6.383-1.362
		l2.25,5.996l7.762-14.455c0.53,0.147,1.085,0.235,1.663,0.235s1.132-0.088,1.662-0.235l7.763,14.455l2.249-5.996l6.384,1.362
		L28.987,30.801z M18.226,30.243c-7.076,0-12.813-5.736-12.813-12.812c0-7.076,5.736-12.812,12.813-12.812
		c7.075,0,12.813,5.736,12.813,12.812C31.039,24.507,25.302,30.243,18.226,30.243z"/>
</g>
</svg>
