<?xml version="1.0" encoding="iso-8859-1"?>
<!-- Generator: Adobe Illustrator 16.0.4, SVG Export Plug-In . SVG Version: 6.00 Build 0)  -->
<!DOCTYPE svg PUBLIC "-//W3C//DTD SVG 1.1//EN" "http://www.w3.org/Graphics/SVG/1.1/DTD/svg11.dtd">
<svg version="1.1" id="Capa_1" xmlns="http://www.w3.org/2000/svg" xmlns:xlink="http://www.w3.org/1999/xlink" x="0px" y="0px"
	 width="39.222px" height="31.901px" viewBox="0 0 39.222 31.901" style="enable-background:new 0 0 39.222 31.901;"
	 xml:space="preserve">
<path style="fill:#262626;" d="M38.981,11.378c-1.168-4.286-3.63-7.568-7.125-9.492c-1.897-1.047-4.07-1.667-6.347-1.84V0.045
	c-0.003,0-0.008,0-0.011,0c-1.165-0.088-2.355-0.044-3.554,0.107C10.055,0.821,5.797,8.702,5.762,8.867
	c-0.021,0.092-0.196,0.899-0.271,1.733c-0.033,0.351-0.053,0.731-0.021,1.102c-0.387,0.2-0.644,0.617-0.612,1.079
	c0.042,0.621,0.58,1.095,1.202,1.052c1.532-0.104,2.771,0.049,3.701,0.446c-0.033,0.168-0.068,0.34-0.103,0.513
	c-0.312,1.614-0.682,3.498-1.159,5.372c-0.244-0.009-0.494-0.021-0.772-0.028c-1.175-0.05-1.525-1.382-4.34-1.395
	c-0.021,0-0.037,0-0.056,0.003c-1.061,0.048-1.915,0.135-2.461,0.762c-0.354,0.401-0.436,0.88-0.438,1.275
	c0,0.075,0.004,0.142,0.007,0.209C0.401,21.544,0.092,26.958,0,30.425c0,0.008,0,0.016,0,0.027c-0.002,0.492,0.318,0.931,0.792,1.08
	c2,0.622,3.829,0.457,5.43-0.498c2.609-1.553,2.918-3.666,4-7.327c0.558-0.008,1.182-0.034,1.975-0.087
	c0.049,0.672,0.207,1.362,0.568,2.604l0.005,0.02l0.007,0.018c0.833,1.762,2.075,2.897,3.692,3.371
	c3.266,0.959,6.027,2.857,8.832,1.098l0.006-0.004l0.007-0.006c0.863-0.648,2.602-1.589,4.824-0.934
	c0.042,0.031,0.087,0.065,0.13,0.094l0.009,0.006l0.011,0.006c0.825,0.457,2.658,0.703,3.262,0.783
	c0.712,0.09,1.188-0.006,1.508-0.743c0.114-0.272,0.195-0.559,0.374-1.393c0.049-0.217,0.076-0.402,0.087-0.562l0.023-0.116
	c0.05-0.274,0.136-0.652,0.242-1.131C36.402,24.037,40.204,15.896,38.981,11.378z M5.068,29.099
	c-0.832,0.493-1.747,0.653-2.784,0.477c0.032-0.902,0.077-1.825,0.124-2.698c0.092-0.224,0.235-0.462,0.466-0.681
	c0.628-0.596,0.765,0.083,3.831,0.499C5.934,28.328,6.254,28.39,5.068,29.099z M7.222,25.488c-2.674-0.414-3.407-1.461-4.697-0.617
	c0.091-1.458,0.17-3.745,0.171-3.767c0.002-0.018,0.002-0.034,0.003-0.051c0.146-0.02,0.373-0.038,0.711-0.054
	c2.75,0.011,3.068,2.606,4.226,2.653c0.083,0.006,0.155,0.008,0.229,0.012C7.67,24.293,7.456,24.898,7.222,25.488z M11.997,20.108
	c-0.438,0.027-0.82,0.047-1.167,0.06c0.323-1.328,0.592-2.65,0.838-3.898C12.14,17.514,12.059,19.012,11.997,20.108z M20.865,22.051
	c-1.317,0-2.384-1.066-2.384-2.382c0-1.318,1.066-2.384,2.384-2.384c1.317,0,2.379,1.065,2.379,2.384
	C23.244,20.984,22.182,22.051,20.865,22.051z"/>
<g>
</g>
<g>
</g>
<g>
</g>
<g>
</g>
<g>
</g>
<g>
</g>
<g>
</g>
<g>
</g>
<g>
</g>
<g>
</g>
<g>
</g>
<g>
</g>
<g>
</g>
<g>
</g>
<g>
</g>
</svg>
