<?xml version="1.0" encoding="utf-8"?>
<!-- Generator: Adobe Illustrator 16.0.4, SVG Export Plug-In . SVG Version: 6.00 Build 0)  -->
<!DOCTYPE svg PUBLIC "-//W3C//DTD SVG 1.1//EN" "http://www.w3.org/Graphics/SVG/1.1/DTD/svg11.dtd">
<svg version="1.1" id="Capa_1" xmlns="http://www.w3.org/2000/svg" xmlns:xlink="http://www.w3.org/1999/xlink" x="0px" y="0px"
	 width="35.454px" height="49.332px" viewBox="0 0 35.454 49.332" enable-background="new 0 0 35.454 49.332" xml:space="preserve">
<g>
	<circle fill="#262626" cx="15.366" cy="4.449" r="4.449"/>
	<path fill="#262626" d="M16.257,44.962c-0.043-0.23-0.102-0.473-0.163-0.726l-2.424-8.399l3.892-9.11c0,0,2.358,7.039,2.996,8.633
		c0.636,1.593,6.323,5.938,6.323,5.938c0.527,0.992,1.766,1.361,2.763,0.834c1.001-0.535,1.39-1.764,0.86-2.758l-6.764-5.885
		l-2.129-7.882l3.514-1.868c0.694-0.371,1.006-1.179,0.781-1.905c-0.016-0.042-0.033-0.083-0.05-0.122
		c-0.022-0.052-0.039-0.106-0.065-0.156c-0.069-0.136-0.166-0.251-0.265-0.357l-5.821-8.409c-0.713-2.137-2.212-3.586-3.845-3.471
		c-1.636,0.115-2.916,1.765-3.323,3.984l-3.517,5.804l-4.06,1.862c-0.483,0.413-0.671,0.916-0.167,2.018
		c0.603,0.698,1.195,1.039,2.338,0.516l3.911-1.741l1.604-3.036l0.547,7.785c0,0-4.294,7.681-3.877,9.079
		c0.42,1.398,2.281,7.631,2.281,7.631c0.217,0.694,0.422,1.268,0.617,1.74H0v4.369h35.454v-4.369H16.257z M21.893,21.803
		l-1.229,0.654L20.47,19.75L21.893,21.803z"/>
</g>
</svg>
