<?xml version="1.0" encoding="iso-8859-1"?>
<!-- Generator: Adobe Illustrator 16.0.4, SVG Export Plug-In . SVG Version: 6.00 Build 0)  -->
<!DOCTYPE svg PUBLIC "-//W3C//DTD SVG 1.1//EN" "http://www.w3.org/Graphics/SVG/1.1/DTD/svg11.dtd">
<svg version="1.1" id="Capa_1" xmlns="http://www.w3.org/2000/svg" xmlns:xlink="http://www.w3.org/1999/xlink" x="0px" y="0px"
	 width="44.777px" height="42.768px" viewBox="0 0 44.777 42.768" style="enable-background:new 0 0 44.777 42.768;"
	 xml:space="preserve">
<g>
	<polygon style="fill:#262626;" points="32.588,31.074 31.807,27.573 28.312,28.382 29.093,31.883 	"/>
	<polygon style="fill:#262626;" points="25.308,14.901 25.979,17.918 29.476,17.109 28.803,14.092 	"/>
	<polygon style="fill:#262626;" points="27.178,23.29 28.019,27.062 31.515,26.253 30.674,22.482 	"/>
	<polygon style="fill:#262626;" points="30.643,35.872 32.851,32.401 29.388,33.204 30.014,36.017 	"/>
	<polygon style="fill:#262626;" points="26.882,21.971 30.378,21.162 29.768,18.428 26.273,19.236 	"/>
	<path style="fill:#262626;" d="M24.664,12.02l0.349,1.562l3.496-0.808l-0.214-0.958C27.075,11.642,25.842,11.716,24.664,12.02z"/>
	<polygon style="fill:#262626;" points="31.083,18.125 31.693,20.859 34.504,20.208 33.895,17.474 	"/>
	<polygon style="fill:#262626;" points="32.829,25.948 35.639,25.297 34.796,21.526 31.988,22.177 	"/>
	<polygon style="fill:#262626;" points="33.122,27.268 33.9,30.749 36.086,27.306 35.934,26.618 	"/>
	<polygon style="fill:#262626;" points="32.183,13.308 30.117,13.786 30.79,16.805 33.601,16.153 33.096,13.89 	"/>
	<path style="fill:#262626;" d="M29.822,12.467l0.476-0.11c-0.183-0.067-0.361-0.148-0.545-0.205L29.822,12.467z"/>
	<path style="fill:#262626;" d="M25.278,38.745h2.675c0.377-0.267,0.747-0.551,1.086-0.877l-0.049-0.225l-3.765,0.869L25.278,38.745
		z"/>
	<path style="fill:#262626;" d="M37.436,19.528c-0.25-0.917-0.638-1.798-1.162-2.604l-1.062,0.245l0.609,2.735L37.436,19.528z"/>
	<path style="fill:#262626;" d="M34.917,15.848l0.454-0.104c-0.196-0.217-0.399-0.425-0.616-0.625L34.917,15.848z"/>
	<path style="fill:#262626;" d="M36.114,21.222l0.841,3.771l0.321-0.075c0.449-1.326,0.582-2.715,0.417-4.061L36.114,21.222z"/>
	<path style="fill:#262626;" d="M39.31,14.266c-0.87-0.555-1.795-1.019-2.788-1.38c-0.332-0.118-0.673-0.221-1.02-0.312
		c0.159,0.006,0.321,0.015,0.477,0.015c1.059-0.003,2.086-0.124,3.093-0.347c1.008-0.223,1.991-0.549,2.95-0.996
		c0.954-0.455,1.89-1.005,2.755-1.858c-1.147-0.403-2.226-0.504-3.285-0.513c-1.055,0.004-2.085,0.126-3.091,0.351
		c-1.008,0.228-1.99,0.555-2.949,0.999c-0.139,0.068-0.278,0.144-0.417,0.214c0.114-0.107,0.232-0.21,0.343-0.32
		c0.744-0.748,1.386-1.562,1.941-2.432c0.557-0.868,1.018-1.796,1.38-2.788c0.353-0.998,0.625-2.048,0.634-3.264
		c-1.098,0.526-1.931,1.218-2.685,1.96c-0.744,0.75-1.385,1.563-1.938,2.435c-0.549,0.872-1.013,1.799-1.376,2.79
		c-0.052,0.148-0.096,0.298-0.143,0.446c0.005-0.155,0.013-0.312,0.015-0.467C33.2,7.742,33.08,6.711,32.857,5.705
		c-0.222-1.007-0.549-1.991-0.993-2.948C31.406,1.802,30.857,0.868,30.003,0c-0.404,1.147-0.503,2.228-0.512,3.285
		c0.002,1.056,0.124,2.085,0.351,3.093c0.227,1.005,0.555,1.989,0.999,2.947c0.065,0.141,0.143,0.277,0.212,0.417
		c-0.105-0.114-0.209-0.232-0.318-0.343c-0.75-0.744-1.562-1.386-2.431-1.941c-0.872-0.556-1.798-1.019-2.789-1.381
		c-0.998-0.352-2.049-0.623-3.264-0.633c0.526,1.097,1.217,1.931,1.96,2.685c0.748,0.744,1.563,1.387,2.433,1.938
		c0.875,0.551,1.8,1.016,2.793,1.377c0.999,0.351,2.046,0.624,3.259,0.637c0.203,0.071,0.396,0.122,0.594,0.173
		c-0.01,0-0.021,0-0.031,0c0.523,1.095,1.215,1.931,1.958,2.684c0.75,0.744,1.563,1.386,2.435,1.938
		c0.871,0.553,1.8,1.017,2.79,1.378c0.998,0.352,2.048,0.624,3.261,0.637c-0.526-1.092-1.218-1.925-1.961-2.682
		C40.993,15.464,40.181,14.822,39.31,14.266z"/>
	<path style="fill:#262626;" d="M22.751,38.847c0.771-0.778,1.432-1.651,1.972-2.594l0.211,0.942l3.762-0.871l-0.627-2.815
		l-2.366,0.548c0.158-0.479,0.28-0.973,0.374-1.475l1.699-0.395l-0.782-3.501l-0.824,0.191c-0.062-0.45-0.147-0.893-0.258-1.327
		l0.788-0.182l-0.841-3.773l-1.55,0.359c-0.271-0.41-0.567-0.806-0.887-1.183l2.144-0.497l-0.61-2.732l-3.417,0.792
		c0.041-0.36,0.071-0.725,0.071-1.098c0-0.102-0.01-0.203-0.014-0.305l3.066-0.71l-0.672-3.018l-2.965,0.687
		c-0.16-0.437-0.35-0.854-0.567-1.257l3.236-0.749l-0.319-1.437c-1.106,0.468-2.113,1.171-2.981,2.06
		c-1.296-2.318-3.515-3.965-6.105-4.346c-0.258,0.54-0.623,1.051-1.144,1.506c-0.572-0.553-1.02-1.026-1.408-1.462
		c-4.005,0.727-7.06,4.489-7.06,9.03c0,0.569,0.055,1.128,0.147,1.67C1.88,23.17,0,26.603,0,30.452c0,3.248,1.348,6.19,3.534,8.395
		H22.751z"/>
	<path style="fill:#262626;" d="M14.288,10.163c0.116-0.241,0.203-0.492,0.278-0.745c-0.017-0.006-0.033-0.008-0.049-0.014
		c0.025-0.423,0.124-0.78,0.265-1.098c0.091-1.173-0.183-2.399-0.845-3.475c-0.658-1.096-1.754-1.999-2.995-2.387
		C9.694,2.062,8.344,2.162,7.187,2.98c0.709,1.238,1.18,2.044,1.523,2.745C9.054,6.415,9.303,6.939,9.642,7.48
		c0.34,0.538,0.752,1.108,1.29,1.785c0.241,0.295,0.506,0.607,0.804,0.941c0.458-0.083,0.928-0.137,1.408-0.137
		C13.534,10.07,13.915,10.108,14.288,10.163z"/>
	<path style="fill:#262626;" d="M14.566,9.418c0.828,0.234,1.417,0.302,1.976,0.318c0.557,0,1.045-0.076,1.502-0.225
		c0.46-0.149,0.887-0.382,1.332-0.707c0.442-0.361,0.896-0.748,1.432-1.481c-0.58-0.676-1.245-0.98-1.903-1.124
		c-0.66-0.135-1.318-0.081-1.921,0.123c-0.604,0.199-1.157,0.552-1.604,1.05c-0.231,0.269-0.438,0.575-0.597,0.935
		c-0.002,0.019,0.002,0.039,0,0.058C14.745,8.721,14.667,9.07,14.566,9.418z"/>
	<polygon style="fill:#262626;" points="2.88,42.768 34.75,42.768 35.87,39.411 1.76,39.411 	"/>
</g>
<g>
</g>
<g>
</g>
<g>
</g>
<g>
</g>
<g>
</g>
<g>
</g>
<g>
</g>
<g>
</g>
<g>
</g>
<g>
</g>
<g>
</g>
<g>
</g>
<g>
</g>
<g>
</g>
<g>
</g>
</svg>
