<?xml version="1.0" encoding="iso-8859-1"?>
<!-- Generator: Adobe Illustrator 16.0.4, SVG Export Plug-In . SVG Version: 6.00 Build 0)  -->
<!DOCTYPE svg PUBLIC "-//W3C//DTD SVG 1.1//EN" "http://www.w3.org/Graphics/SVG/1.1/DTD/svg11.dtd">
<svg version="1.1" id="Capa_1" xmlns="http://www.w3.org/2000/svg" xmlns:xlink="http://www.w3.org/1999/xlink" x="0px" y="0px"
	 width="37.215px" height="45.323px" viewBox="0 0 37.215 45.323" style="enable-background:new 0 0 37.215 45.323;"
	 xml:space="preserve">
<path style="fill:#262626;" d="M37.175,18.438l-0.184-4.179c-2.688-4.351-4.408,1.108-4.408,1.108l-0.004,0.052
	C31.966,5.242,25.722,0,16.876,0C7.558,0,0,5.805,0,17.084c0,8.308,4.708,16.056,10.908,19.563v8.676h16.266h1.298V41.81v-2.876
	v-2.871c1.143-1.261,1.972-2.868,2.577-4.692v0.007C38.102,24.817,37.175,18.438,37.175,18.438z M12.12,4.248
	c-1.854,0.811-3.496,2.08-4.932,3.564c-1.428,1.498-2.674,3.204-3.727,5.062c0.567-2.071,1.617-4.013,2.979-5.719
	c0.677-0.862,1.467-1.635,2.323-2.335c0.864-0.691,1.821-1.274,2.835-1.74c1.023-0.446,2.104-0.769,3.206-0.933
	c1.103-0.147,2.22-0.181,3.312-0.045c2.19,0.248,4.265,1.008,6.107,2.097c-2.053-0.599-4.117-1.05-6.176-1.1
	C15.993,3.053,13.958,3.409,12.12,4.248z M27.174,41.81H19.69v-2.876h7.483V41.81z"/>
<g>
</g>
<g>
</g>
<g>
</g>
<g>
</g>
<g>
</g>
<g>
</g>
<g>
</g>
<g>
</g>
<g>
</g>
<g>
</g>
<g>
</g>
<g>
</g>
<g>
</g>
<g>
</g>
<g>
</g>
</svg>
