<?xml version="1.0" encoding="utf-8"?>
<!-- Generator: Adobe Illustrator 16.0.4, SVG Export Plug-In . SVG Version: 6.00 Build 0)  -->
<!DOCTYPE svg PUBLIC "-//W3C//DTD SVG 1.1//EN" "http://www.w3.org/Graphics/SVG/1.1/DTD/svg11.dtd">
<svg version="1.1" id="Capa_1" xmlns="http://www.w3.org/2000/svg" xmlns:xlink="http://www.w3.org/1999/xlink" x="0px" y="0px"
	 width="31.127px" height="57.867px" viewBox="0 0 31.127 57.867" enable-background="new 0 0 31.127 57.867" xml:space="preserve">
<g>
	<circle fill="#262626" cx="9.582" cy="5.782" r="5.781"/>
	<path fill="#262626" d="M31.08,54.896c-0.974-2.805-1.048-4.564-7.337-3.121l-8.682-19.12c0.281-0.006,0.563-0.063,0.835-0.183
		c1.113-0.485,1.619-1.778,1.132-2.889l-5.676-13.01c-0.229-0.521-0.643-0.905-1.127-1.12c-0.616-0.504-1.362-0.868-2.203-1.021
		c-2.621-0.472-5.129,1.271-5.604,3.892l-2.341,13c-0.29,1.602,0.252,3.158,1.312,4.238v19.895c0,1.33,1.078,2.41,2.412,2.41
		c1.332,0,2.411-1.08,2.411-2.41v-1.319c1.331,0,2.412-1.081,2.412-2.412v-16.58c0.468-0.597,0.804-1.312,0.946-2.108l1.22-6.771
		l2.219,5.078c0.305,0.695,0.93,1.156,1.628,1.277c3.789,9.229,9.105,22.274,9.105,22.274S31.812,56.996,31.08,54.896z"/>
</g>
</svg>
