<?xml version="1.0" encoding="iso-8859-1"?>
<!-- Generator: Adobe Illustrator 16.0.4, SVG Export Plug-In . SVG Version: 6.00 Build 0)  -->
<!DOCTYPE svg PUBLIC "-//W3C//DTD SVG 1.1//EN" "http://www.w3.org/Graphics/SVG/1.1/DTD/svg11.dtd">
<svg version="1.1" id="Capa_1" xmlns="http://www.w3.org/2000/svg" xmlns:xlink="http://www.w3.org/1999/xlink" x="0px" y="0px"
	 width="44.839px" height="27.542px" viewBox="0 0 44.839 27.542" style="enable-background:new 0 0 44.839 27.542;"
	 xml:space="preserve">
<g>
	<path style="fill:#262626;" d="M0,0v27.542h44.839V0H0z M43.328,26.031H1.512V1.511h41.816V26.031z"/>
	<path style="fill:#262626;" d="M18.423,13.771c0,1.988,1.463,3.628,3.367,3.933V9.837C19.886,10.142,18.423,11.783,18.423,13.771z"
		/>
	<rect x="35.77" y="9.237" style="fill:#262626;" width="4.283" height="9.068"/>
	<path style="fill:#262626;" d="M26.417,13.771c0-2.032-1.529-3.696-3.493-3.946v7.892C24.887,17.466,26.417,15.803,26.417,13.771z"
		/>
	<rect x="4.912" y="9.237" style="fill:#262626;" width="4.283" height="9.068"/>
	<path style="fill:#262626;" d="M41.43,7.725V3.19H3.409v4.535h7.297v12.091H3.409v4.535h18.38v-5.136
		c-2.738-0.317-4.878-2.623-4.878-5.444c0-2.822,2.14-5.128,4.878-5.446V3.201h1.134v5.113c2.798,0.258,5.004,2.591,5.004,5.458
		c0,2.865-2.206,5.199-5.004,5.458v5.123H41.43v-4.535h-7.17V7.725H41.43z"/>
</g>
<g>
</g>
<g>
</g>
<g>
</g>
<g>
</g>
<g>
</g>
<g>
</g>
<g>
</g>
<g>
</g>
<g>
</g>
<g>
</g>
<g>
</g>
<g>
</g>
<g>
</g>
<g>
</g>
<g>
</g>
</svg>
