<?xml version="1.0" encoding="iso-8859-1"?>
<!-- Generator: Adobe Illustrator 16.0.4, SVG Export Plug-In . SVG Version: 6.00 Build 0)  -->
<!DOCTYPE svg PUBLIC "-//W3C//DTD SVG 1.1//EN" "http://www.w3.org/Graphics/SVG/1.1/DTD/svg11.dtd">
<svg version="1.1" id="Capa_1" xmlns="http://www.w3.org/2000/svg" xmlns:xlink="http://www.w3.org/1999/xlink" x="0px" y="0px"
	 width="43.439px" height="48.728px" viewBox="0 0 43.439 48.728" style="enable-background:new 0 0 43.439 48.728;"
	 xml:space="preserve">
<g>
	<path style="fill:#262626;" d="M40.31,14.956c-2.439-2.602-6.287-4.233-10.749-4.615c0.695-0.209,1.37-0.467,2.019-0.776
		c1.391-0.663,2.671-1.548,3.833-2.683c1.15-1.159,2.209-2.515,2.957-4.514c-2.026-0.665-3.745-0.69-5.371-0.514
		c-1.612,0.197-3.103,0.644-4.492,1.314c-1.383,0.672-2.664,1.555-3.828,2.691c-1.125,1.138-2.158,2.467-2.906,4.391
		C20.711,8.371,19.001,4.77,18.246,0l-2.332,0.368c0.699,4.432,2.154,7.913,3.292,10.11c-1.096-0.144-2.197-0.224-3.3-0.224
		c-5.317,0-9.972,1.713-12.774,4.701c-2.296,2.446-3.338,5.605-3.098,9.342c0,9.658,6.314,23.507,18.249,24.392
		c0.112,0,0.407-0.03,0.811-0.074c0.774-0.082,2.066-0.224,3.125-0.224c1.109,0,1.39,0.157,1.417,0.172l0.193,0.164h0.259
		c12.44,0,19.319-14.446,19.318-24.387C43.646,20.562,42.605,17.404,40.31,14.956z M22.938,10.681
		c-0.275,0.051-0.546,0.108-0.82,0.168c-0.081-0.134-0.168-0.284-0.263-0.451C22.226,10.515,22.584,10.604,22.938,10.681z
		 M41.993,24.298c0,9.551-6.729,22.852-17.703,23.016c-0.429-0.228-1.09-0.333-2.071-0.333c-1.133,0-2.476,0.146-3.277,0.229
		c-0.324,0.036-0.562,0.064-0.63,0.064C7.452,46.468,1.447,33.176,1.445,24.252c-0.215-3.378,0.699-6.179,2.717-8.331
		c2.536-2.702,6.815-4.253,11.744-4.253c1.396,0,2.79,0.124,4.167,0.368c0.389,0.643,0.654,1.013,0.691,1.065l1-0.728l0.124-0.03
		c1.849-0.448,3.749-0.676,5.648-0.676c4.926,0,9.207,1.551,11.742,4.255C41.297,18.073,42.212,20.877,41.993,24.298z"/>
	<path style="fill:#262626;" d="M25.774,28.147c-0.4,0.599-0.741,1.291-1.011,2.086c-0.263,0.807-0.471,1.693-0.499,2.849
		c0.777-0.042,1.373-0.353,1.916-0.739c0.533-0.404,0.997-0.91,1.401-1.507c0.403-0.599,0.744-1.287,1.015-2.082
		c0.262-0.807,0.469-1.695,0.496-2.854c-0.778,0.039-1.376,0.348-1.918,0.74C26.64,27.039,26.176,27.547,25.774,28.147z"/>
	<path style="fill:#262626;" d="M20.015,27.592c-0.393-0.667-0.875-1.338-1.663-2.028c-0.471,0.621-0.638,1.259-0.715,1.899
		c-0.064,0.645-0.009,1.293,0.15,1.946c0.16,0.654,0.421,1.316,0.798,1.983c0.393,0.665,0.875,1.337,1.656,2.027
		c0.468-0.622,0.635-1.259,0.712-1.899c0.062-0.643,0.009-1.293-0.146-1.947C20.652,28.917,20.391,28.26,20.015,27.592z"/>
</g>
<g>
</g>
<g>
</g>
<g>
</g>
<g>
</g>
<g>
</g>
<g>
</g>
<g>
</g>
<g>
</g>
<g>
</g>
<g>
</g>
<g>
</g>
<g>
</g>
<g>
</g>
<g>
</g>
<g>
</g>
</svg>
