<?xml version="1.0" encoding="iso-8859-1"?>
<!-- Generator: Adobe Illustrator 16.0.4, SVG Export Plug-In . SVG Version: 6.00 Build 0)  -->
<!DOCTYPE svg PUBLIC "-//W3C//DTD SVG 1.1//EN" "http://www.w3.org/Graphics/SVG/1.1/DTD/svg11.dtd">
<svg version="1.1" id="Capa_1" xmlns="http://www.w3.org/2000/svg" xmlns:xlink="http://www.w3.org/1999/xlink" x="0px" y="0px"
	 width="49.077px" height="37.459px" viewBox="0 0 49.077 37.459" style="enable-background:new 0 0 49.077 37.459;"
	 xml:space="preserve">
<g>
	<path style="fill:#262626;" d="M7.058,26.068c0.353,0,0.442,0.05,0.45,0.056l0.062,0.052H7.65c3.954,0,6.138-4.588,6.138-7.748
		c0.076-1.201-0.254-2.202-0.983-2.979c-0.775-0.828-1.999-1.346-3.416-1.467c0.221-0.066,0.435-0.149,0.642-0.248
		c0.442-0.208,0.849-0.49,1.218-0.851c0.366-0.37,0.701-0.799,0.938-1.435c-0.644-0.211-1.19-0.221-1.706-0.163
		c-0.513,0.062-0.986,0.205-1.427,0.417c-0.438,0.212-0.846,0.494-1.215,0.854c-0.359,0.362-0.687,0.784-0.924,1.396
		c-0.337-0.599-0.88-1.74-1.12-3.257l-0.741,0.116c0.223,1.409,0.685,2.514,1.046,3.213c-0.348-0.045-0.698-0.07-1.048-0.07
		c-1.688,0-3.168,0.544-4.06,1.494c-0.729,0.775-1.06,1.778-0.983,2.966c0,3.068,2.004,7.468,5.796,7.75
		c0.035,0,0.129-0.012,0.258-0.025C6.311,26.112,6.721,26.068,7.058,26.068z M7.287,14.09c-0.087,0.016-0.173,0.032-0.26,0.052
		C7,14.1,6.972,14.05,6.942,14C7.06,14.036,7.172,14.065,7.287,14.09z M5.818,25.712c-3.451-0.254-5.358-4.478-5.358-7.312
		c-0.069-1.072,0.221-1.963,0.861-2.646c0.806-0.858,2.166-1.351,3.732-1.351c0.443,0,0.886,0.04,1.322,0.116
		c0.124,0.206,0.207,0.322,0.22,0.34l0.317-0.231l0.039-0.009c0.587-0.144,1.192-0.216,1.795-0.216c1.564,0,2.926,0.492,3.731,1.353
		c0.641,0.682,0.932,1.572,0.862,2.659c0,3.034-2.138,7.26-5.624,7.312C7.579,25.653,7.37,25.62,7.058,25.62
		c-0.36,0-0.785,0.046-1.041,0.073C5.915,25.704,5.839,25.712,5.818,25.712z"/>
	<path style="fill:#262626;" d="M8.761,20.491c0.128-0.189,0.236-0.408,0.324-0.662c0.081-0.255,0.146-0.537,0.156-0.905
		c-0.248,0.011-0.437,0.11-0.609,0.234c-0.17,0.128-0.317,0.288-0.444,0.479c-0.128,0.19-0.235,0.41-0.323,0.663
		c-0.083,0.256-0.148,0.538-0.155,0.904c0.246-0.013,0.434-0.11,0.606-0.236C8.486,20.842,8.634,20.68,8.761,20.491z"/>
	<path style="fill:#262626;" d="M6.358,19.462c-0.125-0.212-0.277-0.428-0.529-0.646c-0.15,0.198-0.204,0.402-0.226,0.604
		c-0.022,0.203-0.005,0.409,0.046,0.619c0.052,0.208,0.135,0.415,0.254,0.632c0.125,0.209,0.277,0.423,0.527,0.643
		c0.147-0.199,0.203-0.401,0.226-0.604c0.021-0.204,0.002-0.412-0.046-0.618C6.562,19.883,6.476,19.673,6.358,19.462z"/>
	<polygon style="fill:#262626;" points="28.479,20.189 49.077,8.684 48.017,6.786 27.164,18.436 26.414,18.436 26.414,18.853 
		5.815,30.361 6.874,32.259 26.414,21.346 26.414,34.741 13.168,34.741 13.168,37.459 26.414,37.459 28.479,37.459 41.724,37.459 
		41.724,34.741 28.479,34.741 	"/>
	<path style="fill:#262626;" d="M31.611,7.935c0.593,0,10.577,0,11.062,0c0.484,0,0.365-1.199,0.365-1.199H31.247
		C31.247,6.735,31.012,7.935,31.611,7.935z"/>
	<rect x="31.062" y="4.273" style="fill:#262626;" width="12.126" height="0.893"/>
	<path style="fill:#262626;" d="M36.925,5.711c0.093-0.002,0.161,0.036,0.192,0.076c0.069-0.012,0.175-0.032,0.347-0.074
		c0.396-0.092,0.564-0.187,0.696-0.267h-1.402c0.044,0.061,0.081,0.122,0.105,0.168C36.885,5.65,36.911,5.701,36.925,5.711z"/>
	<path style="fill:#262626;" d="M35.954,5.446H35.4c0.075,0.07,0.104,0.099,0.255,0.103C35.764,5.559,35.861,5.507,35.954,5.446z"/>
	<polygon style="fill:#262626;" points="41.009,5.446 40.597,5.446 40.858,5.531 	"/>
	<path style="fill:#262626;" d="M32.615,5.938c0.318-0.104,0.597-0.262,0.868-0.412c0.048-0.029,0.095-0.056,0.144-0.08h-2.054
		C31.694,5.643,32.055,6.117,32.615,5.938z"/>
	<path style="fill:#262626;" d="M31.199,5.526l0.164-0.08h-0.667v0.892h1.636C31.751,6.317,31.351,5.833,31.199,5.526z"/>
	<path style="fill:#262626;" d="M43.555,5.446h-1.297L42.79,5.73l-0.172,0.321l-1.005-0.537l-0.713,0.418L40,5.627h-1.219
		c-0.223,0-0.288,0.04-0.418,0.12c-0.146,0.09-0.349,0.212-0.817,0.322c-0.499,0.116-0.635,0.135-0.729,0.014L36.792,6.05
		c-0.135-0.049-0.198-0.169-0.248-0.263c-0.036-0.068-0.078-0.143-0.146-0.223c0,0.008-0.069,0.059-0.116,0.094
		c-0.147,0.112-0.355,0.267-0.636,0.257c-0.292-0.008-0.401-0.114-0.499-0.206c-0.083-0.076-0.168-0.156-0.443-0.21
		c-0.322-0.062-0.655,0.126-1.042,0.344c-0.272,0.154-0.582,0.328-0.937,0.44c-0.106,0.036-0.209,0.052-0.31,0.055h11.138V5.446z"/>
	<path style="fill:#262626;" d="M32.417,6.338h-0.085c0.013,0,0.025,0.006,0.038,0.006C32.384,6.344,32.4,6.338,32.417,6.338z"/>
	<path style="fill:#262626;" d="M31.528,5.364l-0.166,0.082h0.21C31.547,5.402,31.533,5.37,31.528,5.364z"/>
	<path style="fill:#262626;" d="M37.902,0.016C37.757,0.006,36.907,0,36.758,0c-2.58,0-4.561,1.711-5.56,3.923L42.964,3.89
		C42.052,1.733,40.349,0.183,37.902,0.016z"/>
</g>
<g>
</g>
<g>
</g>
<g>
</g>
<g>
</g>
<g>
</g>
<g>
</g>
<g>
</g>
<g>
</g>
<g>
</g>
<g>
</g>
<g>
</g>
<g>
</g>
<g>
</g>
<g>
</g>
<g>
</g>
</svg>
