<?xml version="1.0" encoding="iso-8859-1"?>
<!-- Generator: Adobe Illustrator 16.0.4, SVG Export Plug-In . SVG Version: 6.00 Build 0)  -->
<!DOCTYPE svg PUBLIC "-//W3C//DTD SVG 1.1//EN" "http://www.w3.org/Graphics/SVG/1.1/DTD/svg11.dtd">
<svg version="1.1" id="Capa_1" xmlns="http://www.w3.org/2000/svg" xmlns:xlink="http://www.w3.org/1999/xlink" x="0px" y="0px"
	 width="41.078px" height="35.115px" viewBox="0 0 41.078 35.115" style="enable-background:new 0 0 41.078 35.115;"
	 xml:space="preserve">
<g>
	<path style="fill:#262626;" d="M23.017,31.224l-4.378-13.138h-4.253l-2.742-10.28l-2.511,10.28H6.257
		c5.448,8.125,15.779,17.029,15.779,17.029s10.247-8.904,15.653-17.029H26.811L23.017,31.224z"/>
	<path style="fill:#262626;" d="M32.312,0.041c-3.517-0.374-9.342,1.785-10.351,7.426c-1.013-5.641-6.832-7.8-10.347-7.426
		c-4.304,0.46-9.979,2.356-8.541,11.17c0.286,1.749,1.211,3.744,2.498,5.818h2.729l3.297-13.491l3.599,13.491h4.203l3.544,10.637
		l3.072-10.637h12.019v0.529c1.453-2.265,2.506-4.452,2.815-6.348C42.291,2.397,36.61,0.501,32.312,0.041z"/>
	<path style="fill:#262626;" d="M38.034,18.086v-0.527c-0.11,0.175-0.229,0.352-0.345,0.527H38.034z"/>
	<path style="fill:#262626;" d="M0,17.029v1.057h6.257c-0.236-0.353-0.465-0.706-0.685-1.057H0z"/>
</g>
<g>
</g>
<g>
</g>
<g>
</g>
<g>
</g>
<g>
</g>
<g>
</g>
<g>
</g>
<g>
</g>
<g>
</g>
<g>
</g>
<g>
</g>
<g>
</g>
<g>
</g>
<g>
</g>
<g>
</g>
</svg>
