<?xml version="1.0" encoding="iso-8859-1"?>
<!-- Generator: Adobe Illustrator 16.0.4, SVG Export Plug-In . SVG Version: 6.00 Build 0)  -->
<!DOCTYPE svg PUBLIC "-//W3C//DTD SVG 1.1//EN" "http://www.w3.org/Graphics/SVG/1.1/DTD/svg11.dtd">
<svg version="1.1" id="Capa_1" xmlns="http://www.w3.org/2000/svg" xmlns:xlink="http://www.w3.org/1999/xlink" x="0px" y="0px"
	 width="40.977px" height="45.341px" viewBox="0 0 40.977 45.341" style="enable-background:new 0 0 40.977 45.341;"
	 xml:space="preserve">
<g>
	<path style="fill:#262626;" d="M39.63,18.976l1.347,0.02c-1.411-5.521-5.008-10.48-9.8-13.551c-1.882,0.837-3.64,1.66-4.853,3.014
		c-1.309,1.402-1.896,3.352-2.001,5.54c-0.505-0.991-0.659-2.162-0.501-3.309c0.145-1.152,0.687-2.276,1.478-3.159
		c0.809-0.875,1.837-1.499,2.914-1.85c0.877-0.298,1.789-0.432,2.69-0.414C27.84,3.367,24.303,0,20.523,0
		c-3.998,0-7.734,3.346-10.922,5.276C4.854,8.152,1.333,12.845,0,18.391l1.55,0.022c-0.551,1.536-0.941,3.146-1.102,4.826
		l-0.094,2.11c0.08,11.037,9.077,19.991,20.131,19.991c11.056,0,20.054-8.954,20.133-19.991l-0.092-2.11
		C40.382,21.764,40.074,20.341,39.63,18.976z M12.907,5.681c1.078,0.351,2.102,0.975,2.912,1.85
		c0.793,0.883,1.333,2.007,1.478,3.159c0.156,1.146,0.01,2.317-0.505,3.309c-0.102-2.188-0.687-4.138-1.997-5.54
		c-1.285-1.438-3.177-2.273-5.183-3.166C10.713,5.187,11.834,5.32,12.907,5.681z M19.893,42.04
		c-9.005-0.345-16.037-7.625-15.705-16.265c0.028-0.806,0.13-1.594,0.282-2.363c1.371,1.438,3.976,2.428,5.693,2.428h5.961
		c2.418,0,2.144-1.961,2.144-4.38c0-1.509-0.763-2.838-1.926-3.627l7.387,0.009c-1.153,0.79-1.912,2.114-1.912,3.618
		c0,2.419-0.276,4.38,2.144,4.38h5.958c2.062,0,5.403-1.425,6.351-3.339c0.391,1.441,0.581,2.959,0.521,4.522
		C36.461,35.66,28.895,42.384,19.893,42.04z"/>
	<path style="fill:#262626;" d="M31.509,5.292c-0.202-0.02-0.398-0.021-0.604-0.025c0.098,0.058,0.184,0.12,0.272,0.178
		C31.288,5.394,31.398,5.343,31.509,5.292z"/>
	<path style="fill:#262626;" d="M17.934,33.054c-0.316-0.254-0.568-0.456-0.809-0.576l-0.501,1c0.137,0.066,0.366,0.253,0.61,0.447
		c0.819,0.658,2.15,1.731,3.948,1.731c1.311,0,2.864-0.57,4.649-2.276l-0.772-0.807C21.534,35.946,19.366,34.207,17.934,33.054z"/>
</g>
<g>
</g>
<g>
</g>
<g>
</g>
<g>
</g>
<g>
</g>
<g>
</g>
<g>
</g>
<g>
</g>
<g>
</g>
<g>
</g>
<g>
</g>
<g>
</g>
<g>
</g>
<g>
</g>
<g>
</g>
</svg>
