<?xml version="1.0" encoding="iso-8859-1"?>
<!-- Generator: Adobe Illustrator 16.0.4, SVG Export Plug-In . SVG Version: 6.00 Build 0)  -->
<!DOCTYPE svg PUBLIC "-//W3C//DTD SVG 1.1//EN" "http://www.w3.org/Graphics/SVG/1.1/DTD/svg11.dtd">
<svg version="1.1" id="Capa_1" xmlns="http://www.w3.org/2000/svg" xmlns:xlink="http://www.w3.org/1999/xlink" x="0px" y="0px"
	 width="24.427px" height="44.068px" viewBox="0 0 24.427 44.068" style="enable-background:new 0 0 24.427 44.068;"
	 xml:space="preserve">
<g>
	<path style="fill:#262626;" d="M22.349,0L7.99,37.604c0,0-0.873,2.736-2.442,2.244c-1.312-0.643-1.366-1.301-1.771-3.539
		C3.084,35.075,0.574,34.974,0,37.277c0.811,9.744,9.264,6.863,10.257,4.368c0.508-1.478,14.17-41.161,14.17-41.161L22.349,0z"/>
	<path style="fill:#262626;" d="M2.822,30.64c1.562,0,2.826-1.264,2.826-2.824c0-1.562-1.265-2.825-2.826-2.825
		C1.265,24.99,0,26.254,0,27.815C0,29.376,1.265,30.64,2.822,30.64z"/>
</g>
<g>
</g>
<g>
</g>
<g>
</g>
<g>
</g>
<g>
</g>
<g>
</g>
<g>
</g>
<g>
</g>
<g>
</g>
<g>
</g>
<g>
</g>
<g>
</g>
<g>
</g>
<g>
</g>
<g>
</g>
</svg>
