<?xml version="1.0" encoding="iso-8859-1"?>
<!-- Generator: Adobe Illustrator 16.0.4, SVG Export Plug-In . SVG Version: 6.00 Build 0)  -->
<!DOCTYPE svg PUBLIC "-//W3C//DTD SVG 1.1//EN" "http://www.w3.org/Graphics/SVG/1.1/DTD/svg11.dtd">
<svg version="1.1" id="Capa_1" xmlns="http://www.w3.org/2000/svg" xmlns:xlink="http://www.w3.org/1999/xlink" x="0px" y="0px"
	 width="49.796px" height="39.814px" viewBox="0 0 49.796 39.814" style="enable-background:new 0 0 49.796 39.814;"
	 xml:space="preserve">
<g>
	<path style="fill:#262626;" d="M21.166,20.144L19.95,2.997c0-0.406-0.153-0.692-0.058-1.068l0.089-1.811V0.009l-0.116-0.002
		c-0.729-0.021-1.46,0.012-2.187,0.018l-2.188,0.034v0.122c0.73,0.488,1.461,0.699,2.188,0.869c0.365,0.048,0.727,0.134,1.092,0.136
		c0.055,0.004,0.109-0.004,0.162,0c0.04,0.198,0.076,0.398,0.133,0.597c0.003,0.014,0.011,0.031,0.013,0.044H10.76l-0.027-0.044
		C10.291,2.088,0,9.493,0,30.346h6.083c0-9.76,2.447-15.905,4.664-19.474v17.12l-1.136,8.375c0,0,5.933,3.154,13.331,3.447V24.459
		C21.667,23.694,21.166,22.06,21.166,20.144z M17.859,30.632l-6.099-1.042l0.071-0.411l6.097,1.041L17.859,30.632z"/>
	<path style="fill:#262626;" d="M39.063,1.782l-0.027,0.044H30.29c0.004-0.013,0.01-0.03,0.014-0.044
		c0.054-0.198,0.091-0.398,0.134-0.597c0.05-0.004,0.107,0.004,0.158,0c0.365-0.002,0.73-0.088,1.096-0.136
		c0.727-0.17,1.456-0.381,2.184-0.869V0.059l-2.184-0.034c-0.731-0.006-1.461-0.038-2.188-0.018l-0.119,0.002l0.003,0.109
		l0.029,1.708h-0.016c0.006,0.024,0.008,0.052,0.016,0.077l0.114,1.542l-1.185,16.698c0,1.766-0.429,3.293-1.493,4.12V39.8
		c3.694-0.176,9.223-0.826,13.625-2.298L39.1,28.618v-17.66c2.198,3.581,4.613,9.7,4.613,19.388h6.083
		C49.796,9.493,39.506,2.088,39.063,1.782z M31.42,30.632l-0.07-0.412l6.099-1.041l0.07,0.411L31.42,30.632z"/>
	<rect x="23.388" y="14.713" style="fill:#262626;" width="3.02" height="1.823"/>
	<rect x="23.388" y="18.058" style="fill:#262626;" width="3.02" height="1.824"/>
	<polygon style="fill:#262626;" points="24.524,2.753 25.271,2.753 25.271,6.374 26.408,6.374 26.408,4.551 26.408,1.207 
		23.388,1.207 23.388,4.551 23.388,6.374 24.524,6.374 	"/>
	<rect x="23.388" y="7.741" style="fill:#262626;" width="3.02" height="1.827"/>
	<rect x="23.388" y="11.392" style="fill:#262626;" width="3.02" height="1.826"/>
	<path style="fill:#262626;" d="M26.408,23.074V21.25h-3.02v1.824h-0.446v1.385c0.378,0.227,0.819,0.382,1.338,0.438h0.95
		c0.657-0.072,1.192-0.298,1.624-0.634v-1.189H26.408z"/>
</g>
<g>
</g>
<g>
</g>
<g>
</g>
<g>
</g>
<g>
</g>
<g>
</g>
<g>
</g>
<g>
</g>
<g>
</g>
<g>
</g>
<g>
</g>
<g>
</g>
<g>
</g>
<g>
</g>
<g>
</g>
</svg>
