<?xml version="1.0" encoding="utf-8"?>
<!-- Generator: Adobe Illustrator 16.0.0, SVG Export Plug-In . SVG Version: 6.00 Build 0)  -->
<!DOCTYPE svg PUBLIC "-//W3C//DTD SVG 1.1//EN" "http://www.w3.org/Graphics/SVG/1.1/DTD/svg11.dtd">
<svg version="1.1" id="Capa_1" xmlns="http://www.w3.org/2000/svg" xmlns:xlink="http://www.w3.org/1999/xlink" x="0px" y="0px"
	 width="46.145px" height="50.725px" viewBox="0 0 46.145 50.725" enable-background="new 0 0 46.145 50.725" xml:space="preserve">
<path d="M45.382,29.955c0.021-0.601-0.516-1.063-0.902-1.515c-0.676-2.733-2.015-5.864-3.961-8.97
	C37.4,14.492,29.147,6.466,26.012,5.228c-0.158-0.062-0.299-0.097-0.429-0.126c-0.313-1.013-0.479-1.708-1.698-2.521
	c-3.354-2.236-7.099-2.866-9.578-1.843c-2.481,1.023-3.859,6.687-1.19,8.625c2.546,1.857,7.583-1.888,9.195,0.509
	c1.609,2.396,3.386,10.374,6.339,15.473c-0.746-0.102-1.515-0.156-2.307-0.156c-3.406,0-6.467,0.997-8.63,2.593
	c-1.85-2.887-5.08-4.806-8.764-4.806c-3.82,0-7.141,2.064-8.95,5.13v22.619h4.879l1.042-1.848c3.354-1.287,7.32-4.608,10.076-8.148
	C27.01,45.05,45.135,37.05,45.382,29.955z"/>
</svg>
