<?xml version="1.0" encoding="iso-8859-1"?>
<!-- Generator: Adobe Illustrator 16.0.4, SVG Export Plug-In . SVG Version: 6.00 Build 0)  -->
<!DOCTYPE svg PUBLIC "-//W3C//DTD SVG 1.1//EN" "http://www.w3.org/Graphics/SVG/1.1/DTD/svg11.dtd">
<svg version="1.1" id="Capa_1" xmlns="http://www.w3.org/2000/svg" xmlns:xlink="http://www.w3.org/1999/xlink" x="0px" y="0px"
	 width="44.074px" height="53.894px" viewBox="0 0 44.074 53.894" style="enable-background:new 0 0 44.074 53.894;"
	 xml:space="preserve">
<g>
	<path style="fill:#262626;" d="M26.795,4.76c0,2.628-2.132,4.762-4.756,4.762c-2.628,0-4.762-2.134-4.762-4.762S19.411,0,22.039,0
		C24.663,0,26.795,2.132,26.795,4.76z"/>
	<path style="fill:#262626;" d="M15.686,29.395"/>
	<path style="fill:#262626;" d="M29.62,35.922l-0.002,15.257c0,1.501,1.219,2.715,2.714,2.715c1.5,0,2.714-1.214,2.714-2.715V31
		l-7.286-1.826L27.738,15.08h5.182v-0.008c0.001,0,9.143,0,9.146,0c1.111,0,2.008-0.898,2.008-2.012
		c0-1.106-0.896-2.004-2.008-2.004c-0.004,0-9.146,0-9.146,0H22.039H11.154l0,0c0,0-9.14,0-9.148,0C0.897,11.057,0,11.96,0,13.07
		c0,1.106,0.897,2.01,2.006,2.01c0.009,0,9.148,0,9.148,0h4.565l-0.034,14.094L8.396,31v20.179c0,1.501,1.217,2.715,2.717,2.715
		c1.495,0,2.71-1.214,2.71-2.715L13.82,35.922H29.62z"/>
</g>
<g>
</g>
<g>
</g>
<g>
</g>
<g>
</g>
<g>
</g>
<g>
</g>
<g>
</g>
<g>
</g>
<g>
</g>
<g>
</g>
<g>
</g>
<g>
</g>
<g>
</g>
<g>
</g>
<g>
</g>
</svg>
