<?xml version="1.0" encoding="utf-8"?>
<!-- Generator: Adobe Illustrator 17.0.0, SVG Export Plug-In . SVG Version: 6.00 Build 0)  -->
<!DOCTYPE svg PUBLIC "-//W3C//DTD SVG 1.1//EN" "http://www.w3.org/Graphics/SVG/1.1/DTD/svg11.dtd">
<svg version="1.1" id="Capa_1" xmlns="http://www.w3.org/2000/svg" xmlns:xlink="http://www.w3.org/1999/xlink" x="0px" y="0px"
	 width="49.004px" height="51.344px" viewBox="0 0 49.004 51.344" enable-background="new 0 0 49.004 51.344" xml:space="preserve">
<path fill="#262626" d="M33.345,32.321V10.203c1.253-0.086,3.168-0.39,5.036-1.361c3.135-1.623,6.001,1.392,6.001,1.392V1.877
	c0,0-4.029-3.021-6.236-1.398c-2.204,1.628-6.193,1.398-6.193,1.398v2.317v6.039v2.602c-0.281,0.024-0.559,0.118-0.779,0.336
	l-0.008,0.005l-0.154,0.108l-1.408,0.957v-0.405c-0.262-3.11-3.868-3.062-3.868-3.062h-1.558l-1.313,2.155l-1.316-2.155h-1.497
	c-4.066,0.076-3.916,3.062-3.916,3.062l-0.004,6.971h0.004c0,0.015,0,0.035,0,0.057c0,0.66,0.534,1.195,1.193,1.195
	c0.658,0,1.194-0.535,1.194-1.195c0-0.021,0-0.042,0-0.057v-6.448h0.749l-0.008,17.058C8.248,33.414,0,41.576,0,51.344h49.004
	C49.004,42.677,42.507,35.275,33.345,32.321z M27.21,14.329v2.116c0,0.003,0,0.004,0,0.012c0,0.657,0.54,1.196,1.197,1.196
	c0.196,0,0.368-0.056,0.528-0.142l0.008,0.011l2.068-1.384l0.942-0.632v16.403c-1.76-0.467-3.608-0.77-5.516-0.895l-0.003-16.689
	L27.21,14.329z M22.494,21.562h0.717v9.411c-0.241,0.01-0.478,0.029-0.717,0.045V21.562z M20.038,7.483
	c0-1.558,1.265-2.818,2.818-2.818c1.554,0,2.82,1.261,2.82,2.818c0,1.562-1.266,2.822-2.82,2.822
	C21.302,10.305,20.038,9.045,20.038,7.483z"/>
</svg>
