<?xml version="1.0" encoding="utf-8"?>
<!-- Generator: Adobe Illustrator 16.0.4, SVG Export Plug-In . SVG Version: 6.00 Build 0)  -->
<!DOCTYPE svg PUBLIC "-//W3C//DTD SVG 1.1//EN" "http://www.w3.org/Graphics/SVG/1.1/DTD/svg11.dtd">
<svg version="1.1" id="Capa_1" xmlns="http://www.w3.org/2000/svg" xmlns:xlink="http://www.w3.org/1999/xlink" x="0px" y="0px"
	 width="44.76px" height="57.057px" viewBox="0 0 44.76 57.057" enable-background="new 0 0 44.76 57.057" xml:space="preserve">
<path fill="#262626" d="M33.635,27.376c6.085,0,11.019-2.328,11.019-5.202c-0.002-2.875-4.934-5.202-11.019-5.202
	c-6.081,0-11.014,2.327-11.014,5.202C22.621,25.048,27.554,27.376,33.635,27.376z M33.635,19.742c2.847,0,5.15,1.088,5.15,2.432
	s-2.306,2.432-5.15,2.432c-2.841,0-5.145-1.088-5.145-2.432S30.794,19.742,33.635,19.742z M0,22.174h21.108V34.55h-1.49v-2.762
	h-0.554v2.762H16.95v-3.979h-0.553v3.979h-1.943v-2.762h-0.555v2.762h-2.633v-3.979h-0.555v3.979h-2.6v-2.762H7.557v2.762H5.269
	v-3.979H4.714v3.979H2.079v-2.142H1.523v2.142H0V22.174z M44.76,25.369v11.138l-2.14,1.537v-5.087l-0.749,0.534v4.971
	c-0.652,0.312-1.903,0.698-1.903,0.698v-3.571l-0.749,0.375v3.465l0,0c-0.646,0.171-1.366,0.309-2.135,0.421v-5.085l-0.749,0.188
	v5.002c-0.743,0.077-1.529,0.13-2.38,0.13c-0.067,0-0.134-0.006-0.2-0.006v-3.508l-0.751,0.011v3.474
	c-0.903-0.032-1.744-0.116-2.526-0.241V34.85l-0.754-0.188v5.025c-0.721-0.144-1.392-0.312-2.008-0.495v-3.5l-0.749-0.377v3.573
	c0,0-1.264-0.426-1.979-0.784v-4.972L24.24,32.6v5.088l-1.724-1.181V25.369c0,0,4.334,3.581,10.979,3.581S44.76,25.369,44.76,25.369
	z M27.716,39.193v0.01C27.716,39.201,27.674,39.177,27.716,39.193z M41.871,38.494v-0.032
	C41.964,38.416,41.871,38.494,41.871,38.494z"/>
</svg>
