<?xml version="1.0" encoding="utf-8"?>
<!-- Generator: Adobe Illustrator 16.0.4, SVG Export Plug-In . SVG Version: 6.00 Build 0)  -->
<!DOCTYPE svg PUBLIC "-//W3C//DTD SVG 1.1//EN" "http://www.w3.org/Graphics/SVG/1.1/DTD/svg11.dtd">
<svg version="1.1" id="Capa_1" xmlns="http://www.w3.org/2000/svg" xmlns:xlink="http://www.w3.org/1999/xlink" x="0px" y="0px"
	 width="29.367px" height="40.02px" viewBox="0 0 29.367 40.02" enable-background="new 0 0 29.367 40.02" xml:space="preserve">
<path fill="#262626" d="M5.165,16.791H7.29v0.176c-0.272,0.035-0.455,0.08-0.548,0.136c-0.094,0.056-0.166,0.146-0.218,0.271
	c-0.053,0.124-0.079,0.339-0.079,0.644v5.355H6.283l-4.349-5.355v4.091c0,0.367,0.084,0.617,0.253,0.748s0.363,0.193,0.582,0.193
	h0.152v0.176H0.639v-0.176c0.355-0.004,0.601-0.076,0.739-0.219c0.14-0.143,0.209-0.385,0.209-0.725v-4.542L1.45,17.395
	c-0.137-0.171-0.257-0.283-0.361-0.338s-0.253-0.083-0.451-0.091v-0.176H2.92l3.174,3.993v-2.767c0-0.386-0.055-0.646-0.165-0.782
	c-0.153-0.185-0.407-0.272-0.764-0.268V16.791z M12.606,22.453c-0.363,0.277-0.844,0.416-1.445,0.416h-0.385
	c-0.183,0-0.317-0.025-0.399-0.076c-0.081-0.051-0.139-0.117-0.168-0.193c-0.03-0.08-0.045-0.299-0.045-0.65v-1.811
	c0.307,0,0.54,0.039,0.703,0.12c0.161,0.08,0.302,0.238,0.424,0.474c0.121,0.232,0.201,0.535,0.239,0.9h0.18v-3.369h-0.18
	c-0.051,0.499-0.168,0.878-0.351,1.134c-0.183,0.256-0.479,0.384-0.887,0.384h-0.127v-2.618h0.664c0.488,0,0.819,0.03,0.997,0.085
	c0.303,0.096,0.539,0.243,0.704,0.447c0.166,0.203,0.296,0.536,0.387,1.001h0.18v-1.904H7.713v0.176h0.213
	c0.209,0,0.374,0.043,0.494,0.134c0.085,0.06,0.144,0.145,0.176,0.256c0.014,0.066,0.022,0.246,0.022,0.536v4.231
	c0,0.322-0.017,0.521-0.052,0.6c-0.045,0.105-0.107,0.184-0.19,0.229c-0.114,0.062-0.264,0.096-0.451,0.096H7.713v0.176h5.559
	l0.289-2.045h-0.176C13.228,21.75,12.968,22.172,12.606,22.453z M21.959,16.967c0.251,0.008,0.419,0.047,0.508,0.12
	c0.088,0.074,0.133,0.178,0.133,0.308c0,0.088-0.014,0.185-0.039,0.288c-0.023,0.104-0.094,0.299-0.203,0.583l-1.049,2.756
	l-1.172-3.046c-0.143-0.373-0.213-0.597-0.213-0.668c0-0.068,0.02-0.126,0.057-0.179s0.09-0.09,0.158-0.111
	c0.094-0.032,0.252-0.05,0.469-0.053v-0.174H17.49v0.176c0.199,0,0.35,0.027,0.451,0.08c0.104,0.055,0.195,0.144,0.273,0.269
	s0.191,0.374,0.337,0.747l0.267,0.683l-1.01,2.439l-1.265-3.121c-0.153-0.39-0.231-0.645-0.231-0.764
	c0-0.092,0.037-0.168,0.111-0.23c0.075-0.061,0.225-0.095,0.448-0.102v-0.177h-2.789v0.176c0.203,0.02,0.346,0.083,0.432,0.194
	c0.085,0.111,0.234,0.43,0.451,0.958l2.115,5.25h0.176l1.757-4.146l1.594,4.146h0.186l2.016-5.309
	c0.18-0.453,0.279-0.697,0.299-0.737c0.062-0.116,0.138-0.204,0.22-0.26c0.082-0.058,0.185-0.091,0.304-0.1V16.79h-1.67
	L21.959,16.967L21.959,16.967z M28.338,20.279c-0.261-0.329-0.77-0.678-1.521-1.049c-0.539-0.266-0.881-0.451-1.028-0.556
	c-0.203-0.145-0.351-0.293-0.44-0.44c-0.066-0.11-0.1-0.237-0.1-0.38c0-0.226,0.094-0.423,0.279-0.596
	c0.188-0.172,0.445-0.258,0.769-0.258c0.417,0,0.806,0.164,1.164,0.491c0.358,0.328,0.583,0.76,0.675,1.298h0.195l-0.055-2.145
	h-0.143c-0.041,0.191-0.084,0.314-0.132,0.364c-0.048,0.052-0.112,0.076-0.194,0.076c-0.084,0-0.233-0.052-0.449-0.154
	c-0.213-0.102-0.394-0.173-0.543-0.21c-0.194-0.051-0.397-0.076-0.605-0.076c-0.57,0-1.046,0.18-1.423,0.54
	s-0.563,0.797-0.563,1.309c0,0.299,0.068,0.576,0.205,0.825c0.141,0.251,0.338,0.476,0.592,0.678
	c0.256,0.203,0.678,0.449,1.264,0.738c0.417,0.205,0.707,0.373,0.871,0.5c0.164,0.129,0.289,0.264,0.369,0.406
	c0.08,0.141,0.121,0.289,0.121,0.439c0,0.256-0.105,0.48-0.316,0.674c-0.21,0.191-0.493,0.291-0.848,0.291
	c-0.457,0-0.888-0.182-1.283-0.539c-0.396-0.359-0.666-0.883-0.803-1.562h-0.178v2.43h0.178c0.057-0.131,0.131-0.229,0.224-0.291
	c0.092-0.062,0.179-0.094,0.261-0.094c0.098,0,0.223,0.031,0.374,0.094c0.272,0.115,0.498,0.191,0.679,0.232
	c0.18,0.041,0.371,0.061,0.574,0.061c0.645,0,1.178-0.191,1.596-0.58c0.42-0.387,0.629-0.85,0.629-1.389
	C28.729,20.987,28.598,20.61,28.338,20.279z"/>
</svg>
