<?xml version="1.0" encoding="iso-8859-1"?>
<!-- Generator: Adobe Illustrator 16.0.4, SVG Export Plug-In . SVG Version: 6.00 Build 0)  -->
<!DOCTYPE svg PUBLIC "-//W3C//DTD SVG 1.1//EN" "http://www.w3.org/Graphics/SVG/1.1/DTD/svg11.dtd">
<svg version="1.1" id="Capa_1" xmlns="http://www.w3.org/2000/svg" xmlns:xlink="http://www.w3.org/1999/xlink" x="0px" y="0px"
	 width="43.026px" height="26.669px" viewBox="0 0 43.026 26.669" style="enable-background:new 0 0 43.026 26.669;"
	 xml:space="preserve">
<g>
	<g>
		<path style="fill:#262626;" d="M21.428,0C14.075,0,8.093,5.981,8.093,13.332c0,7.354,5.982,13.337,13.334,13.337
			c7.354,0,13.334-5.982,13.334-13.337C34.762,5.981,28.781,0,21.428,0z M21.428,25.512c-6.715,0-12.174-5.466-12.174-12.18
			c0-6.71,5.459-12.175,12.174-12.175c6.714,0,12.174,5.465,12.174,12.175C33.602,20.046,28.142,25.512,21.428,25.512z"/>
		<path style="fill:#262626;" d="M21.428,2.013c-6.251,0-11.321,5.069-11.321,11.319c0,6.255,5.07,11.321,11.321,11.321
			s11.321-5.066,11.321-11.321C32.749,7.082,27.679,2.013,21.428,2.013z M21.428,17.43c-2.265,0-4.096-1.834-4.096-4.098
			c0-2.26,1.832-4.094,4.096-4.094c2.261,0,4.094,1.834,4.094,4.094C25.522,15.596,23.688,17.43,21.428,17.43z"/>
	</g>
	<g>
		<g>
			<g>
				<path style="fill-rule:evenodd;clip-rule:evenodd;fill:#262626;" d="M5.903,1.43L5.566,7.787H4.107L3.982,1.298H2.97
					L2.813,7.787H1.569L1.054,1.43H0v6.578h0.009c0.066,2.1,1.103,2.304,2.506,2.9H2.489v4.396l0,0v9.53
					c1.204,1.205,2.134,0,2.134,0l0.003-9.705H4.624V10.91c0,0,2.3-0.803,2.367-2.902h0.008L6.997,1.43H5.903z"/>
			</g>
		</g>
		<g>
			<g>
				<path style="fill-rule:evenodd;clip-rule:evenodd;fill:#262626;" d="M40.12,0.989h-1.488h-1.491v24.689h2.979V12.631h2.58
					C44.185,6.142,40.12,0.989,40.12,0.989z"/>
			</g>
		</g>
	</g>
</g>
<g>
</g>
<g>
</g>
<g>
</g>
<g>
</g>
<g>
</g>
<g>
</g>
<g>
</g>
<g>
</g>
<g>
</g>
<g>
</g>
<g>
</g>
<g>
</g>
<g>
</g>
<g>
</g>
<g>
</g>
</svg>
