<?xml version="1.0" encoding="iso-8859-1"?>
<!-- Generator: Adobe Illustrator 16.0.4, SVG Export Plug-In . SVG Version: 6.00 Build 0)  -->
<!DOCTYPE svg PUBLIC "-//W3C//DTD SVG 1.1//EN" "http://www.w3.org/Graphics/SVG/1.1/DTD/svg11.dtd">
<svg version="1.1" id="Capa_1" xmlns="http://www.w3.org/2000/svg" xmlns:xlink="http://www.w3.org/1999/xlink" x="0px" y="0px"
	 width="38.96px" height="42.384px" viewBox="0 0 38.96 42.384" style="enable-background:new 0 0 38.96 42.384;"
	 xml:space="preserve">
<g>
	<path style="fill:#262626;" d="M17.139,12.902c-1.338-0.142-3.551,0.679-3.936,2.822c-0.385-2.144-2.596-2.964-3.933-2.822
		c-1.635,0.176-3.793,0.896-3.247,4.248c0.549,3.349,7.209,9.086,7.209,9.086s6.604-5.737,7.151-9.086
		C20.933,13.799,18.773,13.078,17.139,12.902z"/>
	<path style="fill:#262626;" d="M26.408,3.26V0H0v39.123h12.553v3.261H38.96V3.26H26.408z M1.304,37.818V1.305h23.8V16.82v11.307
		v9.691H1.304z M37.656,41.079h-23.8v-1.956h12.552v-9.795c0.113,0.101,0.192,0.168,0.192,0.168s6.604-5.736,7.151-9.087
		c0.548-3.35-1.61-4.07-3.246-4.246c-1.337-0.142-3.551,0.679-3.935,2.822c-0.035-0.192-0.101-0.362-0.163-0.536V4.565h11.248
		V41.079z"/>
	<path style="fill:#262626;" d="M7.107,7.324H4.6V7.308l0.439-0.412c1.181-1.139,1.93-1.974,1.93-3.009
		c0-0.801-0.507-1.627-1.714-1.627c-0.638,0-1.198,0.248-1.577,0.566l0.241,0.536C4.177,3.146,4.6,2.888,5.107,2.888
		c0.837,0,1.104,0.526,1.104,1.095c0,0.844-0.655,1.566-2.085,2.929L3.531,7.49v0.464h3.576V7.324z"/>
	<path style="fill:#262626;" d="M19.597,35.184l0.439-0.414c1.181-1.136,1.93-1.973,1.93-3.007c0-0.801-0.508-1.629-1.715-1.629
		c-0.637,0-1.197,0.25-1.576,0.568l0.242,0.536c0.258-0.217,0.68-0.475,1.188-0.475c0.836,0,1.103,0.526,1.103,1.094
		c0,0.846-0.655,1.568-2.085,2.93l-0.594,0.578v0.465h3.575v-0.629h-2.507V35.184z"/>
	<path style="fill:#262626;" d="M32.772,35.149c0.258-0.214,0.68-0.475,1.188-0.475c0.836,0,1.103,0.528,1.103,1.095
		c0,0.845-0.655,1.568-2.084,2.931l-0.594,0.577v0.466h3.575v-0.63h-2.507v-0.017l0.44-0.414c1.18-1.137,1.93-1.974,1.93-3.007
		c0-0.803-0.507-1.628-1.714-1.628c-0.638,0-1.198,0.249-1.577,0.567L32.772,35.149z"/>
</g>
<g>
</g>
<g>
</g>
<g>
</g>
<g>
</g>
<g>
</g>
<g>
</g>
<g>
</g>
<g>
</g>
<g>
</g>
<g>
</g>
<g>
</g>
<g>
</g>
<g>
</g>
<g>
</g>
<g>
</g>
</svg>
