<?xml version="1.0" encoding="iso-8859-1"?>
<!-- Generator: Adobe Illustrator 16.0.4, SVG Export Plug-In . SVG Version: 6.00 Build 0)  -->
<!DOCTYPE svg PUBLIC "-//W3C//DTD SVG 1.1//EN" "http://www.w3.org/Graphics/SVG/1.1/DTD/svg11.dtd">
<svg version="1.1" id="Capa_1" xmlns="http://www.w3.org/2000/svg" xmlns:xlink="http://www.w3.org/1999/xlink" x="0px" y="0px"
	 width="45.469px" height="45.47px" viewBox="0 0 45.469 45.47" style="enable-background:new 0 0 45.469 45.47;"
	 xml:space="preserve">
<g>
	<path style="fill:#262626;" d="M22.734,0C10.199,0,0,10.2,0,22.735C0,35.271,10.199,45.47,22.734,45.47
		c12.537,0,22.735-10.198,22.735-22.734C45.469,10.2,35.271,0,22.734,0z M2.847,22.735c0-10.966,8.921-19.888,19.887-19.888
		c4.686,0,8.991,1.637,12.394,4.36l-8.213,9.142c-0.572-0.849-0.737-1.701-0.326-2.182c0.092-0.11,0.213-0.183,0.348-0.242
		l-4.634-7.732L11.592,28.954c0.947,0.444,1.924,0.841,2.943,1.179l-0.955,1.062c-1.529-0.572-2.438-1.104-2.569-1.183l-1.577,2.592
		c0.114,0.07,0.817,0.482,1.993,0.988l-2.812,3.131C5.054,33.126,2.847,28.186,2.847,22.735z M27.934,25.84
		c-0.59,0.694-1.626,0.776-2.319,0.188c-0.691-0.588-0.772-1.625-0.185-2.315c0.589-0.692,1.626-0.774,2.315-0.187
		C28.437,24.114,28.521,25.15,27.934,25.84z M18.157,25.23c-1.061-0.906-1.19-2.496-0.287-3.557c0.905-1.062,2.496-1.19,3.556-0.286
		c0.19,0.162,0.339,0.351,0.469,0.551l-3.245,3.611C18.478,25.463,18.311,25.359,18.157,25.23z M23.226,18.113
		c-0.745-0.633-0.831-1.75-0.2-2.494c0.632-0.744,1.75-0.833,2.493-0.198c0.56,0.477,0.748,1.224,0.538,1.882l-0.952,1.062
		C24.5,18.642,23.768,18.573,23.226,18.113z M22.734,42.622c-4.464,0-8.575-1.497-11.898-3.988l3.576-3.982
		c2.099,0.61,4.773,1.122,7.888,1.122c4.409,0,9.685-1.021,15.387-4.211l-1.479-2.645c-7.953,4.448-14.93,4.237-19.517,3.197
		l1.053-1.172c5.32,0.979,10.638,0.191,15.286-1.997c0,0,1.722-0.717,1.977-1.56l-5.378-8.975c-0.147-0.043-0.302-0.129-0.453-0.193
		l8.096-9.015c3.31,3.555,5.353,8.303,5.353,13.531C42.622,33.702,33.701,42.622,22.734,42.622z"/>
	<polygon style="fill:#262626;" points="11.011,30.012 11.011,30.012 11.011,30.012 	"/>
	<polygon style="fill:#262626;" points="10.223,31.307 11.011,30.012 11.008,30.011 	"/>
</g>
<g>
</g>
<g>
</g>
<g>
</g>
<g>
</g>
<g>
</g>
<g>
</g>
<g>
</g>
<g>
</g>
<g>
</g>
<g>
</g>
<g>
</g>
<g>
</g>
<g>
</g>
<g>
</g>
<g>
</g>
</svg>
