<?xml version="1.0" encoding="utf-8"?>
<!-- Generator: Adobe Illustrator 16.0.4, SVG Export Plug-In . SVG Version: 6.00 Build 0)  -->
<!DOCTYPE svg PUBLIC "-//W3C//DTD SVG 1.1//EN" "http://www.w3.org/Graphics/SVG/1.1/DTD/svg11.dtd">
<svg version="1.1" id="Capa_1" xmlns="http://www.w3.org/2000/svg" xmlns:xlink="http://www.w3.org/1999/xlink" x="0px" y="0px"
	 width="31.32px" height="32.667px" viewBox="0 0 31.32 32.667" enable-background="new 0 0 31.32 32.667" xml:space="preserve">
<path fill="#262626" d="M31.321,12.461c0,6.882-5.579,12.462-12.462,12.462S6.397,19.343,6.397,12.461S11.976-0.001,18.859-0.001
	S31.321,5.579,31.321,12.461z M0.002,28.41l2.914,2.912l7.771-7.774l-2.915-2.913L0.002,28.41z M19.771,27.361
	c-1.217,1.215-1.217,3.18,0,4.395c1.213,1.213,3.183,1.217,4.396,0.002c1.212-1.213,1.211-3.184,0-4.396
	C22.95,26.147,20.984,26.149,19.771,27.361z"/>
</svg>
