<?xml version="1.0" encoding="iso-8859-1"?>
<!-- Generator: Adobe Illustrator 16.0.0, SVG Export Plug-In . SVG Version: 6.00 Build 0)  -->
<!DOCTYPE svg PUBLIC "-//W3C//DTD SVG 1.1//EN" "http://www.w3.org/Graphics/SVG/1.1/DTD/svg11.dtd">
<svg version="1.1" id="Capa_1" xmlns="http://www.w3.org/2000/svg" xmlns:xlink="http://www.w3.org/1999/xlink" x="0px" y="0px"
	 width="500px" height="500px" viewBox="0 0 500 500" style="enable-background:new 0 0 500 500;" xml:space="preserve">
<g>
	<path d="M395.796,273.461c-0.584,0-1.156,0.066-1.753,0.076l-4.089-32.709h-4.697l-4.334-33.914
		c-0.606-4.742-4.643-8.295-9.424-8.295h-4.316c0.35-6.375-2.348-12.809-7.797-16.987l-97.217-74.55
		c-0.167-0.128-0.344-0.232-0.514-0.354c-0.518-0.41-1.04-0.816-1.58-1.208c-20.12-14.588-48.258-10.103-62.846,10.019
		l-75.052,103.52c-3.549,4.895-5.96,10.266-7.3,15.799h-2.725c-6.345,0-11.487,5.143-11.487,11.487v4.212
		c0,6.344,5.143,11.489,11.487,11.489h4.628c1.303,3.295,3,6.453,5.082,9.396c-2.17,1.926-3.468,3.121-3.468,3.121
		c-4.675-0.686-9.381-1.113-14.231-1.113c-55.202,0-99.937,44.691-99.937,99.941c0,55.195,44.732,99.939,99.945,99.939
		c55.187,0,99.947-44.734,99.947-99.939c0-5.865-0.612-11.564-1.582-17.145l23.829-9.857l0.108,61.055
		c-2.482,3.086-3.978,6.998-3.978,11.258c0,9.924,8.075,18,18,18h41c9.925,0,18-8.076,18-18c0-9.926-8.075-18-18-18h-7.034
		l-0.131-74.152l46.722-19.324c-15.665,17.639-25.167,40.766-25.167,66.176c0,55.191,44.712,99.938,99.951,99.938
		c55.196,0,99.934-44.73,99.934-99.938C495.748,318.162,451.015,273.461,395.796,273.461z M272.194,165.176l62.852,48.197
		c3.63,2.784,7.765,4.246,14.203,4.246s13.887,0,13.887,0l2.967,23.209h-3.106l0.093,0.047H217.526L272.194,165.176z
		 M104.186,455.176c-45.1,0-81.774-36.652-81.774-81.764c0-45.131,36.688-81.773,81.774-81.773c13.334,0,25.769,3.527,36.868,9.193
		l-44.217,75.15c0,0-6.046,9.805-0.088,16.221c5.494,5.916,15.673,1.365,15.673,1.365l72.525-30.021
		c0.375,3.285,0.971,6.492,0.971,9.855C185.933,418.5,149.272,455.176,104.186,455.176z M161.358,315.086
		c7.077,6.957,12.82,15.279,17.054,24.439l-41.581,17.164L161.358,315.086z M195.323,332.525
		c-5.766-12.855-14.166-24.221-24.55-33.49l3.707-6.301l43.221,30.525L195.323,332.525z M270.628,301.875l-51.441-36.33h137.883
		L270.628,301.875z M395.796,455.176c-45.076,0-81.74-36.652-81.74-81.764c0-36.389,23.979-66.924,56.896-77.484l9.776,77.363
		c1.049,8.213,7.572,14.166,14.616,13.285c7.066-0.883,11.905-8.291,10.87-16.492l-9.889-78.391
		c44.854,0.287,81.245,36.787,81.245,81.729C477.57,418.5,440.896,455.176,395.796,455.176z"/>
	<path d="M309.494,122.953c26.589,0,48.13-21.562,48.13-48.152s-21.541-48.141-48.13-48.141c-26.59,0-48.152,21.552-48.152,48.141
		S282.904,122.953,309.494,122.953z"/>
</g>
</svg>
