<?xml version="1.0" encoding="iso-8859-1"?>
<!-- Generator: Adobe Illustrator 16.0.4, SVG Export Plug-In . SVG Version: 6.00 Build 0)  -->
<!DOCTYPE svg PUBLIC "-//W3C//DTD SVG 1.1//EN" "http://www.w3.org/Graphics/SVG/1.1/DTD/svg11.dtd">
<svg version="1.1" id="Capa_1" xmlns="http://www.w3.org/2000/svg" xmlns:xlink="http://www.w3.org/1999/xlink" x="0px" y="0px"
	 width="41.299px" height="55.786px" viewBox="0 0 41.299 55.786" style="enable-background:new 0 0 41.299 55.786;"
	 xml:space="preserve">
<g>
	<path style="fill:#262626;" d="M29.997,23.245V0h-3.913v23.245c-3.595,0.536-6.726,2.515-8.774,5.328
		c1.388,0.271,2.704,0.745,3.901,1.41c1.708-1.834,4.134-2.985,6.83-2.985c5.154,0,9.347,4.19,9.347,9.345s-4.193,9.348-9.347,9.348
		c-0.221,0-0.438-0.017-0.655-0.034c-0.437,1.341-1.085,2.58-1.899,3.695c0.828,0.16,1.68,0.252,2.554,0.252
		c7.311,0,13.259-5.95,13.259-13.261C41.299,29.698,36.381,24.196,29.997,23.245z"/>
	<path style="fill:#262626;" d="M15.216,29.427V6.183h-3.913v23.244C4.918,30.379,0,35.882,0,42.527
		c0,7.311,5.949,13.259,13.259,13.259c7.311,0,13.259-5.948,13.259-13.259C26.518,35.882,21.599,30.379,15.216,29.427z
		 M13.259,51.873c-5.153,0-9.347-4.194-9.347-9.346c0-5.154,4.194-9.348,9.347-9.348c5.154,0,9.347,4.193,9.347,9.348
		C22.606,47.679,18.413,51.873,13.259,51.873z"/>
</g>
<g>
</g>
<g>
</g>
<g>
</g>
<g>
</g>
<g>
</g>
<g>
</g>
<g>
</g>
<g>
</g>
<g>
</g>
<g>
</g>
<g>
</g>
<g>
</g>
<g>
</g>
<g>
</g>
<g>
</g>
</svg>
