<?xml version="1.0" encoding="iso-8859-1"?>
<!-- Generator: Adobe Illustrator 16.0.4, SVG Export Plug-In . SVG Version: 6.00 Build 0)  -->
<!DOCTYPE svg PUBLIC "-//W3C//DTD SVG 1.1//EN" "http://www.w3.org/Graphics/SVG/1.1/DTD/svg11.dtd">
<svg version="1.1" id="Capa_1" xmlns="http://www.w3.org/2000/svg" xmlns:xlink="http://www.w3.org/1999/xlink" x="0px" y="0px"
	 width="31.833px" height="50.191px" viewBox="0 0 31.833 50.191" style="enable-background:new 0 0 31.833 50.191;"
	 xml:space="preserve">
<g>
	<path style="fill:#262626;" d="M31.524,23.597c-0.253-0.684-0.778-1.266-1.511-1.554l-6.29-3.167
		c-0.148-0.057-0.297-0.095-0.448-0.126V0H0v34.332l14.863,0.002c-0.004,1.518-0.039,9.412-0.039,9.412H26.28l5.278-17.255
		C31.954,25.483,31.903,24.435,31.524,23.597z M1.746,1.745H21.53v29.593c-0.482-0.217-0.93-0.619-1.287-1.337v-5.525
		c0-1.928,0.188-3.491-1.793-3.491c-1.981,0-3.587,1.563-3.587,3.491v8.111H1.746V1.745z"/>
	<rect x="13.691" y="45.367" style="fill:#262626;" width="14.729" height="4.824"/>
</g>
<g>
</g>
<g>
</g>
<g>
</g>
<g>
</g>
<g>
</g>
<g>
</g>
<g>
</g>
<g>
</g>
<g>
</g>
<g>
</g>
<g>
</g>
<g>
</g>
<g>
</g>
<g>
</g>
<g>
</g>
</svg>
