<?xml version="1.0" encoding="utf-8"?>
<!-- Generator: Adobe Illustrator 16.0.4, SVG Export Plug-In . SVG Version: 6.00 Build 0)  -->
<!DOCTYPE svg PUBLIC "-//W3C//DTD SVG 1.1//EN" "http://www.w3.org/Graphics/SVG/1.1/DTD/svg11.dtd">
<svg version="1.1" id="Capa_1" xmlns="http://www.w3.org/2000/svg" xmlns:xlink="http://www.w3.org/1999/xlink" x="0px" y="0px"
	 width="42.105px" height="43.926px" viewBox="0 0 42.105 43.926" enable-background="new 0 0 42.105 43.926" xml:space="preserve">
<path fill="#262626" d="M42.105,0v29.502h-2.668V2.669H2.669v26.833H0V0H42.105z M26.255,25.85c0,3.951-3.2,7.152-7.15,7.152
	c-3.952,0-7.152-3.201-7.152-7.152c0-3.948,3.2-7.152,7.152-7.152C23.054,18.698,26.255,21.902,26.255,25.85z M19.983,27.59
	c0.164,0,0.294,0,0.367,0c0.026,0,0.045,0,0.055,0c0.042-0.129,0.709-2.178,0.812-2.493c0.001-0.003,0.003-0.007,0.004-0.011
	c0.003-0.01,0.005-0.021,0.008-0.026c-0.102-0.069-1.488-1.052-1.973-1.394c-0.085-0.058-0.144-0.1-0.159-0.111
	c-0.018,0.011-0.075,0.053-0.159,0.111c-0.484,0.342-1.872,1.324-1.973,1.394c0.002,0.005,0.006,0.015,0.009,0.026
	c0.003,0.004,0.003,0.008,0.005,0.011c0.103,0.315,0.77,2.364,0.811,2.493C17.898,27.59,19.267,27.59,19.983,27.59z M17.664,27.804
	l-0.965,1.422l0.163,0.26l1.193-1.682H17.664z M19.097,23.293l0.159,0.113v-1.949l-0.159,0.062l-0.159-0.062v1.949L19.097,23.293z
	 M20.108,27.804l1.193,1.698l0.195-0.276l0.011-0.001l-1.009-1.421H20.108z M23.307,24.763l-0.206-0.251l-1.63,0.492l-0.122,0.375
	L23.307,24.763z M21.381,20.63l-0.429,0.168c0.909,0.345,1.699,0.935,2.292,1.686l0.032-0.459
	C22.751,21.437,22.107,20.959,21.381,20.63z M16.99,20.47c0.015,0.007,0.042,0.017,0.077,0.031c0.099,0.038,0.264,0.103,0.462,0.179
	c0.471,0.183,1.112,0.433,1.41,0.548c0.09,0.036,0.148,0.058,0.159,0.063c0.013-0.004,0.07-0.027,0.159-0.063
	c0.292-0.111,0.917-0.356,1.386-0.538c0.188-0.074,0.352-0.137,0.456-0.178c0.047-0.019,0.084-0.033,0.104-0.04
	c-0.059-0.104-0.311-0.562-0.521-0.94c-0.08-0.147-0.154-0.277-0.208-0.377c-0.454-0.095-0.926-0.148-1.407-0.148
	c-0.483,0-0.954,0.052-1.407,0.149c-0.051,0.099-0.117,0.228-0.189,0.371C17.276,19.909,17.042,20.367,16.99,20.47z M14.915,21.963
	l0.032,0.451c0.593-0.728,1.373-1.292,2.266-1.626l-0.431-0.169C16.071,20.937,15.435,21.394,14.915,21.963z M14.908,24.743
	l1.938,0.637l-0.122-0.375l-1.637-0.508L14.908,24.743z M13.465,26.213c0.036-0.041,0.145-0.18,0.287-0.357
	c0.283-0.357,0.702-0.883,0.94-1.184c0.103-0.129,0.174-0.215,0.183-0.229c0-0.006-0.001-0.023-0.003-0.049
	c-0.015-0.223-0.079-1.139-0.121-1.725c-0.016-0.238-0.028-0.421-0.033-0.481c0-0.001,0-0.001,0-0.003
	c-0.117,0.02-0.675,0.116-1.126,0.194c-0.157,0.027-0.304,0.051-0.412,0.07c-0.455,0.804-0.751,1.708-0.844,2.671
	c0.078,0.075,0.184,0.176,0.299,0.289c0.312,0.301,0.701,0.676,0.813,0.784C13.453,26.202,13.461,26.209,13.465,26.213z
	 M14.181,28.568l0.425,0.091c-0.474-0.725-0.772-1.572-0.84-2.482l-0.281,0.353l-0.002-0.004
	C13.582,27.276,13.815,27.942,14.181,28.568z M17.772,31.323c-0.01-0.016-0.028-0.041-0.05-0.078
	c-0.056-0.088-0.147-0.232-0.256-0.402c-0.242-0.387-0.57-0.905-0.76-1.201c-0.081-0.128-0.136-0.217-0.144-0.23
	c-0.005-0.002-0.017-0.002-0.035-0.009c-0.195-0.053-1.161-0.315-1.735-0.47c-0.207-0.055-0.361-0.098-0.414-0.112
	c-0.003,0.013-0.006,0.036-0.01,0.062c-0.03,0.197-0.11,0.697-0.175,1.098c-0.026,0.158-0.05,0.301-0.066,0.404
	c0.646,0.689,1.432,1.246,2.312,1.619c0.106-0.051,0.238-0.121,0.379-0.193C17.212,31.608,17.67,31.375,17.772,31.323z
	 M20.187,31.295l0.244-0.387c-0.435,0.116-0.893,0.178-1.364,0.178c-0.446,0-0.879-0.053-1.292-0.157l0.239,0.378
	c0.342,0.066,0.692,0.102,1.053,0.102C19.451,31.409,19.826,31.37,20.187,31.295z M24.087,30.299
	c-0.021-0.113-0.046-0.252-0.073-0.403c-0.079-0.444-0.176-0.965-0.195-1.077c-0.003,0-0.01,0.002-0.013,0.004
	c-0.068,0.018-0.249,0.065-0.479,0.127c-0.634,0.174-1.642,0.447-1.695,0.461c-0.027,0.045-0.538,0.85-0.888,1.405
	c-0.109,0.171-0.201,0.317-0.26,0.413c-0.027,0.043-0.049,0.074-0.061,0.094c0.1,0.051,0.544,0.271,0.939,0.469
	c0.139,0.067,0.271,0.135,0.381,0.188C22.641,31.592,23.44,31.016,24.087,30.299z M24.66,26.467l-0.286-0.359
	c-0.059,0.943-0.367,1.825-0.857,2.571l0.448-0.121C24.325,27.926,24.568,27.221,24.66,26.467z M24.536,22.367
	c-0.437-0.075-0.946-0.163-1.058-0.182c-0.001,0.014-0.005,0.041-0.006,0.074c-0.007,0.1-0.019,0.277-0.032,0.486
	c-0.042,0.586-0.103,1.436-0.117,1.648c0,0.025-0.002,0.043-0.002,0.049c0.01,0.014,0.079,0.1,0.18,0.229
	c0.224,0.279,0.604,0.756,0.886,1.109c0.131,0.166,0.242,0.307,0.303,0.381c0.018,0.023,0.032,0.039,0.041,0.051
	c0.082-0.078,0.456-0.438,0.773-0.746c0.112-0.109,0.215-0.209,0.301-0.289c-0.089-0.988-0.388-1.916-0.854-2.738
	C24.834,22.42,24.689,22.396,24.536,22.367z M15.681,32.264l-8.007,6.229l0.546,0.702l8.007-6.229L15.681,32.264z M13.537,43.325
	l0.818,0.352l4.014-9.312l-0.818-0.354L13.537,43.325z M19.255,33.877l1.356,10.049l0.881-0.118l-1.356-10.05L19.255,33.877z"/>
</svg>
