<?xml version="1.0" encoding="iso-8859-1"?>
<!-- Generator: Adobe Illustrator 16.0.4, SVG Export Plug-In . SVG Version: 6.00 Build 0)  -->
<!DOCTYPE svg PUBLIC "-//W3C//DTD SVG 1.1//EN" "http://www.w3.org/Graphics/SVG/1.1/DTD/svg11.dtd">
<svg version="1.1" id="Capa_1" xmlns="http://www.w3.org/2000/svg" xmlns:xlink="http://www.w3.org/1999/xlink" x="0px" y="0px"
	 width="40.973px" height="40.976px" viewBox="0 0 40.973 40.976" style="enable-background:new 0 0 40.973 40.976;"
	 xml:space="preserve">
<path style="fill:#262626;" d="M20.488,0C9.169,0,0,9.171,0,20.487c0,11.316,9.169,20.489,20.488,20.489
	c11.313,0,20.485-9.173,20.485-20.489C40.973,9.171,31.801,0,20.488,0z M16.723,25.468c-0.117-0.369-2.026-6.232-2.322-7.143
	c-0.006-0.01-0.007-0.021-0.011-0.029c-0.011-0.033-0.02-0.061-0.024-0.075c0.289-0.202,4.263-3.01,5.649-3.992
	c0.241-0.171,0.407-0.288,0.455-0.321c0.049,0.034,0.215,0.15,0.458,0.321c1.383,0.981,5.361,3.79,5.65,3.992
	c-0.006,0.014-0.014,0.042-0.023,0.075c-0.005,0.008-0.008,0.019-0.011,0.029c-0.296,0.911-2.206,6.774-2.328,7.143
	c-0.03,0-0.083,0-0.159,0c-0.209,0-0.581,0-1.049,0C20.956,25.468,17.037,25.468,16.723,25.468z M17.483,26.078l-3.417,4.816
	l-0.468-0.74l2.764-4.076H17.483z M20.014,13.483V7.901l0.455,0.178l0.458-0.178v5.582l-0.458-0.324L20.014,13.483z M24.485,26.078
	l2.89,4.069l-0.033,0.007l-0.558,0.791l-3.418-4.867H24.485z M26.92,19.138l0.35-1.08l4.668-1.411l0.591,0.719L26.92,19.138z
	 M32.438,9.527l-0.091,1.316c-1.697-2.154-3.961-3.839-6.565-4.83l1.227-0.479C29.093,6.475,30.938,7.841,32.438,9.527z
	 M15.809,2.373c0.206-0.41,0.399-0.786,0.543-1.064c1.297-0.277,2.646-0.428,4.03-0.428c1.383,0,2.73,0.151,4.032,0.424
	c0.156,0.285,0.365,0.665,0.594,1.081c0.6,1.085,1.323,2.393,1.491,2.694c-0.058,0.021-0.163,0.062-0.298,0.115
	c-0.301,0.117-0.768,0.297-1.308,0.509c-1.338,0.521-3.132,1.221-3.967,1.543c-0.257,0.102-0.422,0.167-0.458,0.179
	c-0.029-0.013-0.197-0.078-0.455-0.179c-0.85-0.331-2.691-1.048-4.039-1.572c-0.566-0.219-1.041-0.403-1.321-0.516
	c-0.102-0.037-0.18-0.068-0.222-0.083C14.582,4.777,15.252,3.462,15.809,2.373z M13.836,5.498l1.235,0.482
	c-2.559,0.954-4.794,2.578-6.494,4.66L8.489,9.348C9.979,7.722,11.799,6.405,13.836,5.498z M8.985,16.603l4.687,1.456l0.348,1.08
	l-5.552-1.827L8.985,16.603z M4.284,21.474c-0.32-0.311-1.432-1.382-2.329-2.25c-0.333-0.324-0.634-0.613-0.856-0.828
	c0.265-2.759,1.114-5.347,2.417-7.649c0.31-0.054,0.728-0.125,1.181-0.204c1.292-0.225,2.887-0.498,3.227-0.558
	c0,0.004,0,0.008,0,0.009c0.011,0.17,0.048,0.697,0.096,1.377c0.118,1.681,0.304,4.306,0.344,4.94
	c0.007,0.074,0.009,0.125,0.011,0.141c-0.028,0.037-0.229,0.286-0.524,0.656c-0.684,0.857-1.884,2.362-2.694,3.384
	c-0.41,0.515-0.723,0.909-0.822,1.029C4.324,21.513,4.299,21.49,4.284,21.474z M4.385,22.417l0.011,0.013L5.2,21.417
	c0.195,2.61,1.051,5.036,2.406,7.115l-1.216-0.258C5.338,26.476,4.674,24.567,4.385,22.417z M13.941,37.551
	c-0.404,0.21-0.78,0.405-1.085,0.555c-2.524-1.067-4.772-2.66-6.623-4.637c0.047-0.294,0.115-0.707,0.191-1.161
	c0.184-1.151,0.411-2.576,0.5-3.141c0.013-0.078,0.023-0.139,0.03-0.18c0.15,0.04,0.592,0.16,1.187,0.32
	c1.642,0.446,4.411,1.194,4.971,1.347c0.053,0.014,0.083,0.023,0.097,0.025c0.023,0.041,0.183,0.289,0.416,0.661
	c0.538,0.848,1.479,2.334,2.177,3.444c0.308,0.487,0.571,0.899,0.73,1.153c0.066,0.103,0.114,0.179,0.145,0.223
	C16.384,36.31,15.07,36.979,13.941,37.551z M20.383,36.406c-1.031,0-2.037-0.104-3.014-0.289l-0.687-1.083
	c1.185,0.296,2.425,0.456,3.701,0.456c1.353,0,2.664-0.179,3.911-0.513l-0.7,1.104C22.557,36.293,21.484,36.406,20.383,36.406z
	 M28.05,38.044c-0.313-0.156-0.695-0.346-1.09-0.543c-1.13-0.564-2.408-1.199-2.691-1.34c0.032-0.052,0.093-0.145,0.172-0.27
	c0.171-0.271,0.436-0.692,0.745-1.181c1.004-1.591,2.465-3.901,2.546-4.029c0.151-0.04,3.038-0.822,4.855-1.312
	c0.654-0.18,1.172-0.319,1.368-0.373c0.01-0.003,0.028-0.007,0.036-0.01c0.059,0.323,0.33,1.818,0.558,3.088
	c0.079,0.43,0.152,0.832,0.209,1.154C32.909,35.28,30.621,36.932,28.05,38.044z M34.413,28.24l-1.284,0.347
	c1.405-2.14,2.285-4.659,2.456-7.366l0.821,1.031C36.139,24.408,35.446,26.434,34.413,28.24z M36.603,21.522
	c-0.025-0.029-0.065-0.081-0.112-0.145c-0.175-0.217-0.496-0.615-0.874-1.093c-0.806-1.01-1.892-2.376-2.533-3.175
	c-0.289-0.37-0.489-0.62-0.517-0.656c0-0.015,0.005-0.066,0.008-0.141c0.042-0.608,0.213-3.038,0.333-4.72
	c0.04-0.6,0.075-1.106,0.094-1.395c0.004-0.094,0.013-0.167,0.017-0.212c0.321,0.057,1.779,0.309,3.027,0.522
	c0.444,0.078,0.857,0.149,1.188,0.204c1.337,2.354,2.195,5.009,2.445,7.841c-0.243,0.229-0.539,0.518-0.86,0.828
	C37.907,20.264,36.839,21.294,36.603,21.522z"/>
<g>
</g>
<g>
</g>
<g>
</g>
<g>
</g>
<g>
</g>
<g>
</g>
<g>
</g>
<g>
</g>
<g>
</g>
<g>
</g>
<g>
</g>
<g>
</g>
<g>
</g>
<g>
</g>
<g>
</g>
</svg>
