<?xml version="1.0" encoding="iso-8859-1"?>
<!-- Generator: Adobe Illustrator 16.0.4, SVG Export Plug-In . SVG Version: 6.00 Build 0)  -->
<!DOCTYPE svg PUBLIC "-//W3C//DTD SVG 1.1//EN" "http://www.w3.org/Graphics/SVG/1.1/DTD/svg11.dtd">
<svg version="1.1" id="Capa_1" xmlns="http://www.w3.org/2000/svg" xmlns:xlink="http://www.w3.org/1999/xlink" x="0px" y="0px"
	 width="43.056px" height="50.807px" viewBox="0 0 43.056 50.807" style="enable-background:new 0 0 43.056 50.807;"
	 xml:space="preserve">
<g>
	<path style="fill:#262626;" d="M43.056,13.171H22.602L34.765,1.106l-1.064-1.073L21.495,12.139L7.578,0L6.584,1.14l13.794,12.031H0
		v30.958h31.894c0.014,0.724,0.306,2.44,2.772,2.44c0,0,4.238-0.184,4.238,4.238h1.34c0,0,0.556-5.836-5.663-5.836
		c0,0-1.202-0.103-1.053-0.842h9.528V13.171z M40.725,41.111H2.298V16.188h38.427V41.111z"/>
	<rect x="15.509" y="45.108" style="fill:#262626;" width="12.386" height="2.2"/>
	<rect x="9.17" y="48.117" style="fill:#262626;" width="25.063" height="1.853"/>
	<path style="fill:#262626;" d="M21.528,29.937c3.207,0,5.806-2.599,5.806-5.806s-2.599-5.806-5.806-5.806
		c-3.208,0-5.807,2.599-5.807,5.806S18.321,29.937,21.528,29.937z M19.673,28.967c-0.115,0.059-0.222,0.115-0.308,0.157
		c-0.716-0.302-1.353-0.753-1.877-1.314c0.013-0.083,0.032-0.201,0.054-0.329c0.053-0.326,0.117-0.73,0.142-0.89
		c0.003-0.023,0.007-0.04,0.008-0.051c0.042,0.011,0.167,0.045,0.335,0.09c0.466,0.126,1.251,0.338,1.41,0.381
		c0.014,0.004,0.023,0.006,0.026,0.007c0.007,0.012,0.052,0.083,0.118,0.187c0.152,0.242,0.42,0.662,0.618,0.977
		c0.087,0.138,0.162,0.255,0.206,0.326c0.021,0.03,0.033,0.051,0.042,0.063C20.365,28.615,19.993,28.805,19.673,28.967z
		 M21.523,22.266c0.014,0.009,0.06,0.042,0.13,0.091c0.392,0.278,1.519,1.074,1.6,1.131c0,0.003-0.003,0.013-0.006,0.021
		c-0.001,0.002-0.002,0.006-0.002,0.008c-0.083,0.259-0.626,1.92-0.66,2.025c-0.008,0-0.023,0-0.046,0c-0.059,0-0.163,0-0.297,0
		c-0.58,0-1.691,0-1.78,0c-0.034-0.105-0.574-1.767-0.659-2.025c0-0.001-0.001-0.005-0.003-0.008
		c-0.003-0.009-0.006-0.018-0.007-0.021c0.082-0.058,1.208-0.854,1.602-1.131C21.462,22.309,21.509,22.275,21.523,22.266z
		 M21.394,22.146v-1.582l0.129,0.051l0.13-0.051v1.582l-0.13-0.092L21.394,22.146z M23.48,26.869l-0.009,0.001l-0.158,0.225
		l-0.968-1.379h0.317L23.48,26.869z M20.359,25.716h0.317l-0.969,1.365l-0.132-0.21L20.359,25.716z M21.499,28.643
		c-0.292,0-0.578-0.029-0.854-0.082l-0.194-0.308c0.335,0.084,0.687,0.129,1.048,0.129c0.384,0,0.755-0.051,1.107-0.146
		l-0.198,0.313C22.115,28.611,21.811,28.643,21.499,28.643z M23.672,29.107c-0.089-0.044-0.197-0.098-0.309-0.154
		c-0.321-0.16-0.683-0.339-0.763-0.379c0.009-0.015,0.025-0.041,0.049-0.076c0.048-0.078,0.123-0.196,0.21-0.335
		c0.285-0.451,0.699-1.105,0.722-1.142c0.043-0.011,0.86-0.233,1.375-0.372c0.186-0.05,0.333-0.09,0.388-0.104
		c0.003-0.001,0.007-0.002,0.01-0.004c0.017,0.092,0.093,0.516,0.158,0.876c0.022,0.122,0.043,0.235,0.06,0.327
		C25.049,28.324,24.4,28.792,23.672,29.107z M25.476,26.328l-0.364,0.099c0.397-0.607,0.647-1.321,0.696-2.088l0.232,0.292
		C25.964,25.243,25.768,25.816,25.476,26.328z M24.954,22.947c0.012-0.171,0.061-0.86,0.095-1.337
		c0.012-0.17,0.021-0.313,0.026-0.396c0.002-0.026,0.004-0.047,0.005-0.06c0.091,0.016,0.504,0.087,0.859,0.148
		c0.125,0.022,0.243,0.042,0.335,0.058c0.379,0.667,0.623,1.419,0.694,2.222c-0.069,0.065-0.154,0.146-0.244,0.234
		c-0.259,0.25-0.562,0.542-0.629,0.606c-0.007-0.008-0.018-0.022-0.032-0.041c-0.049-0.061-0.14-0.174-0.247-0.31
		c-0.229-0.287-0.537-0.674-0.718-0.9c-0.083-0.104-0.138-0.175-0.146-0.186C24.952,22.983,24.953,22.968,24.954,22.947z
		 M23.351,23.748l0.099-0.306l1.324-0.4l0.167,0.205L23.351,23.748z M24.916,21.025l-0.027,0.372
		c-0.481-0.609-1.123-1.087-1.86-1.368l0.348-0.135C23.968,20.159,24.49,20.547,24.916,21.025z M20.202,18.997
		c0.059-0.116,0.113-0.222,0.154-0.301c0.367-0.079,0.75-0.122,1.142-0.122c0.392,0,0.773,0.043,1.143,0.121
		c0.044,0.08,0.104,0.188,0.168,0.306c0.17,0.308,0.375,0.679,0.423,0.764c-0.016,0.006-0.045,0.018-0.084,0.033
		c-0.085,0.033-0.217,0.084-0.371,0.144c-0.379,0.148-0.887,0.346-1.124,0.438c-0.073,0.029-0.12,0.047-0.13,0.051
		c-0.009-0.004-0.056-0.022-0.129-0.051c-0.242-0.094-0.762-0.297-1.145-0.445c-0.16-0.062-0.295-0.115-0.375-0.146
		c-0.028-0.01-0.05-0.019-0.063-0.024C19.854,19.677,20.044,19.306,20.202,18.997z M19.644,19.883l0.35,0.137
		c-0.726,0.27-1.358,0.73-1.841,1.32l-0.025-0.366C18.549,20.513,19.067,20.14,19.644,19.883z M18.269,23.03l1.328,0.413l0.1,0.306
		l-1.574-0.517L18.269,23.03z M16.937,24.411c-0.092-0.089-0.406-0.392-0.661-0.638c-0.095-0.092-0.179-0.174-0.243-0.235
		c0.075-0.782,0.316-1.516,0.686-2.168c0.087-0.015,0.206-0.036,0.334-0.058c0.366-0.064,0.817-0.141,0.913-0.158v0.002
		c0.004,0.048,0.016,0.198,0.029,0.391c0.033,0.476,0.085,1.22,0.097,1.399c0.002,0.021,0.003,0.036,0.003,0.04
		c-0.008,0.011-0.064,0.082-0.149,0.186c-0.193,0.243-0.533,0.67-0.763,0.959c-0.117,0.146-0.205,0.258-0.233,0.292
		C16.948,24.421,16.94,24.416,16.937,24.411z M16.968,24.681l0.228-0.287c0.056,0.739,0.298,1.427,0.682,2.017l-0.345-0.073
		c-0.298-0.509-0.486-1.05-0.568-1.66L16.968,24.681z"/>
</g>
<g>
</g>
<g>
</g>
<g>
</g>
<g>
</g>
<g>
</g>
<g>
</g>
<g>
</g>
<g>
</g>
<g>
</g>
<g>
</g>
<g>
</g>
<g>
</g>
<g>
</g>
<g>
</g>
<g>
</g>
</svg>
