<?xml version="1.0" encoding="iso-8859-1"?>
<!-- Generator: Adobe Illustrator 16.0.4, SVG Export Plug-In . SVG Version: 6.00 Build 0)  -->
<!DOCTYPE svg PUBLIC "-//W3C//DTD SVG 1.1//EN" "http://www.w3.org/Graphics/SVG/1.1/DTD/svg11.dtd">
<svg version="1.1" id="Capa_1" xmlns="http://www.w3.org/2000/svg" xmlns:xlink="http://www.w3.org/1999/xlink" x="0px" y="0px"
	 width="36.43px" height="49.139px" viewBox="0 0 36.43 49.139" style="enable-background:new 0 0 36.43 49.139;"
	 xml:space="preserve">
<g>
	<path style="fill:#262626;" d="M28.407,29.443c0.048-0.048,0.101-0.086,0.148-0.132c1.564-1.565,2.173-3.709,1.866-5.741
		c0.333-0.784,0.587-1.605,0.782-2.452c1.22-1.215,1.975-2.893,1.975-4.748c0-2.494-1.378-4.646-3.397-5.799
		c-0.115-0.212-0.248-0.41-0.375-0.614c0.003-1.716-0.652-3.434-1.96-4.744c-1.234-1.231-2.828-1.86-4.439-1.934
		C21.833,1.323,19.716,0,17.27,0c-2.453,0-4.582,1.336-5.748,3.306C9.181,2.507,6.489,3.017,4.621,4.885
		c-1.789,1.791-2.324,4.332-1.669,6.604c-0.056,0.126-0.124,0.248-0.183,0.378C1.099,13.086,0,15.045,0,17.271
		c0,1.997,0.892,3.771,2.276,4.998c0.142,0.442,0.298,0.877,0.479,1.301c-0.307,2.032,0.301,4.176,1.866,5.741
		c0.425,0.424,0.894,0.769,1.39,1.051L1.441,41.734l6.533-1.216l2.795,4.967l4.611-11.478c0.499,0.119,1.012,0.188,1.543,0.188
		c0.844,0,1.645-0.165,2.383-0.453l8.269,15.396l2.807-6.021l6.048,1.268L28.407,29.443z M16.588,29.661
		c-6.74,0-12.201-5.466-12.201-12.204c0-6.739,5.461-12.204,12.201-12.204c6.742,0,12.203,5.465,12.203,12.204
		C28.791,24.195,23.33,29.661,16.588,29.661z"/>
</g>
<g>
</g>
<g>
</g>
<g>
</g>
<g>
</g>
<g>
</g>
<g>
</g>
<g>
</g>
<g>
</g>
<g>
</g>
<g>
</g>
<g>
</g>
<g>
</g>
<g>
</g>
<g>
</g>
<g>
</g>
</svg>
