<?xml version="1.0" encoding="iso-8859-1"?>
<!-- Generator: Adobe Illustrator 16.0.4, SVG Export Plug-In . SVG Version: 6.00 Build 0)  -->
<!DOCTYPE svg PUBLIC "-//W3C//DTD SVG 1.1//EN" "http://www.w3.org/Graphics/SVG/1.1/DTD/svg11.dtd">
<svg version="1.1" id="Capa_1" xmlns="http://www.w3.org/2000/svg" xmlns:xlink="http://www.w3.org/1999/xlink" x="0px" y="0px"
	 width="57.44px" height="45.386px" viewBox="0 0 57.44 45.386" style="enable-background:new 0 0 57.44 45.386;"
	 xml:space="preserve">
<g>
	<path style="fill:#262626;" d="M16.674,6.675c3.807-2.249,7.797-3.388,11.885-3.39c5.597,0,10.098,2.148,12.207,3.373v12.889h3.285
		V4.868c0,0-6.408-4.868-15.494-4.868c-4.542,0.002-9.754,1.218-15.168,4.868v14.679h3.285V6.675z"/>
	<polygon style="fill:#262626;" points="28.72,40.571 21.115,32.422 16.621,32.422 28.72,45.386 40.819,32.422 36.325,32.422 	"/>
	<path style="fill:#262626;" d="M57.44,32.866l-2.847-4.052l2.841-4.077H46.108v-3.944H11.511v3.944H0.006l2.841,4.077L0,32.866
		h12.89v-1.388h31.66v1.388H57.44z M11.644,31.621H2.398l1.97-2.8l-1.976-2.837h9.119v5.494h0.133V31.621z M45.795,31.479h0.313
		v-5.494h8.938l-1.974,2.837l1.968,2.8h-9.246V31.479z"/>
</g>
<g>
</g>
<g>
</g>
<g>
</g>
<g>
</g>
<g>
</g>
<g>
</g>
<g>
</g>
<g>
</g>
<g>
</g>
<g>
</g>
<g>
</g>
<g>
</g>
<g>
</g>
<g>
</g>
<g>
</g>
</svg>
