<?xml version="1.0" encoding="utf-8"?>
<!-- Generator: Adobe Illustrator 16.0.4, SVG Export Plug-In . SVG Version: 6.00 Build 0)  -->
<!DOCTYPE svg PUBLIC "-//W3C//DTD SVG 1.1//EN" "http://www.w3.org/Graphics/SVG/1.1/DTD/svg11.dtd">
<svg version="1.1" id="Capa_1" xmlns="http://www.w3.org/2000/svg" xmlns:xlink="http://www.w3.org/1999/xlink" x="0px" y="0px"
	 width="45.25px" height="44.04px" viewBox="0 0 45.25 44.04" enable-background="new 0 0 45.25 44.04" xml:space="preserve">
<path fill="#262626" d="M23.423,7.779c2.147,0,3.89-1.747,3.89-3.892C27.312,1.74,25.568,0,23.423,0
	c-2.143,0-3.886,1.74-3.886,3.888C19.537,6.032,21.28,7.779,23.423,7.779z M0.129,43.358L0.002,29.11l4.295-0.038L4.424,43.32
	L0.129,43.358z M35.545,28.225l0.055,5.893l-7.504,0.068l-0.002-19.232l9.525-9.784c0.002,0,0.004-0.006,0.008-0.012
	c0.641-0.639,0.641-1.68,0-2.324c-0.637-0.639-1.677-0.635-2.316,0c-0.004,0.012-0.006,0.014-0.012,0.016L29.16,9.036l-0.008,0.021
	V9.034H17.233l-6.14-6.186c-0.008-0.002-0.01-0.004-0.012-0.016c-0.641-0.635-1.678-0.639-2.318,0c-0.643,0.645-0.643,1.686,0,2.324
	c0.005,0.006,0.008,0.012,0.008,0.012l9.486,9.744l-0.006,19.362l-8.635,0.078l-0.047-5.33L5.277,29.06l0.126,14.25l4.295-0.038
	L9.64,36.811l8.606-0.078l-0.002,5.089c0,1.229,0.993,2.22,2.22,2.22c1.223,0,2.216-0.99,2.216-2.22l-0.002-5.131l0.99-0.008v5.159
	l0.018,0.013c0.016,1.207,0.994,2.187,2.205,2.187c1.217,0,2.205-0.99,2.205-2.209v-5.188l7.521-0.068l0.053,5.896l4.297-0.038
	l-0.129-14.246L35.545,28.225z M23.671,34.227l-0.991,0.007l-0.002-10.397h0.993V34.227z M28.093,13.91l0.031-0.006l-0.031,0.146
	V13.91z M40.83,28.176l4.295-0.039l0.13,14.248l-4.295,0.039L40.83,28.176z"/>
</svg>
