<?xml version="1.0" encoding="iso-8859-1"?>
<!-- Generator: Adobe Illustrator 16.0.4, SVG Export Plug-In . SVG Version: 6.00 Build 0)  -->
<!DOCTYPE svg PUBLIC "-//W3C//DTD SVG 1.1//EN" "http://www.w3.org/Graphics/SVG/1.1/DTD/svg11.dtd">
<svg version="1.1" id="Capa_1" xmlns="http://www.w3.org/2000/svg" xmlns:xlink="http://www.w3.org/1999/xlink" x="0px" y="0px"
	 width="40.891px" height="38.03px" viewBox="0 0 40.891 38.03" style="enable-background:new 0 0 40.891 38.03;"
	 xml:space="preserve">
<g>
	<path style="fill:#262626;" d="M38.443,25.392c0.345-5.375-0.384-9.095-2.176-11.048c-1.141-1.246-2.3-1.318-2.531-1.321H8.227
		L3.741,5.347H1.783l1.188-0.013c0-0.008,0.044-0.673,0.705-1.341C4.403,3.255,6.001,2.376,9.48,2.376V0
		C6.027,0,3.505,0.782,1.983,2.322C0.635,3.688,0.594,5.144,0.594,5.347H0l5.943,19.314h1.365c-2.786,0-5.052,2.266-5.052,5.052
		c0,2.784,2.266,5.049,5.052,5.049H35.84c2.784,0,5.051-2.265,5.051-5.049C40.891,27.879,39.906,26.278,38.443,25.392z
		 M33.638,15.399l0.026-0.004c0.008,0.003,0.014,0.004,0.021,0.004h0.05h-0.044c0.846,0.137,2.771,2.062,2.413,9.273
		c-0.088-0.004-0.176-0.012-0.265-0.012H15.031l-5.415-9.262H33.638z M10.766,33.575H7.308c-2.131,0-3.863-1.734-3.863-3.862
		c0-2.13,1.731-3.863,3.863-3.863h3.458V33.575z M20.601,33.575h-7.89V25.85h7.89V33.575z M30.499,33.575h-7.954V25.85h7.954V33.575
		z M35.84,33.575h-3.397V25.85h3.397c2.128,0,3.861,1.733,3.861,3.863C39.701,31.841,37.968,33.575,35.84,33.575z"/>
	<rect x="5.415" y="35.06" style="fill:#262626;" width="30.834" height="2.971"/>
</g>
<g>
</g>
<g>
</g>
<g>
</g>
<g>
</g>
<g>
</g>
<g>
</g>
<g>
</g>
<g>
</g>
<g>
</g>
<g>
</g>
<g>
</g>
<g>
</g>
<g>
</g>
<g>
</g>
<g>
</g>
</svg>
