<?xml version="1.0" encoding="iso-8859-1"?>
<!-- Generator: Adobe Illustrator 16.0.4, SVG Export Plug-In . SVG Version: 6.00 Build 0)  -->
<!DOCTYPE svg PUBLIC "-//W3C//DTD SVG 1.1//EN" "http://www.w3.org/Graphics/SVG/1.1/DTD/svg11.dtd">
<svg version="1.1" id="Capa_1" xmlns="http://www.w3.org/2000/svg" xmlns:xlink="http://www.w3.org/1999/xlink" x="0px" y="0px"
	 width="42.401px" height="48.49px" viewBox="0 0 42.401 48.49" style="enable-background:new 0 0 42.401 48.49;"
	 xml:space="preserve">
<g>
	<path style="fill:#262626;" d="M36.94,21.755c0.158-0.147,0.361-0.29,0.503-0.434L21.08,4.957
		c-0.145,0.144-0.288,0.346-0.434,0.504L15.184,0c0,0-8.038,12.151-0.532,19.66c0.039,0.039,0.09,0.076,0.136,0.118
		c-0.045,0.897-0.032,1.772,0.107,2.576c-0.335-0.324-0.872-0.326-1.203,0.002c-0.338,0.34-0.341,0.885-0.004,1.221l0.803,0.802
		L3.017,32.181l-0.555-0.559L0,34.088l8.738,8.741l2.461-2.463l-0.554-0.557l7.804-11.475l0.804,0.805
		c0.336,0.336,0.879,0.336,1.22-0.002c0.334-0.336,0.334-0.878-0.002-1.215l-0.414-0.412c0.802,0.135,1.669,0.148,2.568,0.106
		c0.042,0.042,0.077,0.093,0.117,0.133c7.508,7.507,19.659-0.531,19.659-0.531L36.94,21.755z M15.085,17.335
		c-3.471-4.701-1.088-11.174,0.508-14.384l3.924,3.924C17.579,9.604,15.793,13.575,15.085,17.335z M25.066,27.315
		c3.764-0.708,7.732-2.493,10.458-4.435l3.922,3.926C36.239,28.403,29.767,30.786,25.066,27.315z"/>
	<path style="fill:#262626;" d="M13.962,27.024c-1.772-1.775-3.317-1.775-5.09,0c-1.776,1.777-3.111,4.65-1.335,6.427l6.473,2.573
		l8.559,12.458l13.135,0.009L13.962,27.024z"/>
</g>
<g>
</g>
<g>
</g>
<g>
</g>
<g>
</g>
<g>
</g>
<g>
</g>
<g>
</g>
<g>
</g>
<g>
</g>
<g>
</g>
<g>
</g>
<g>
</g>
<g>
</g>
<g>
</g>
<g>
</g>
</svg>
