<?xml version="1.0" encoding="utf-8"?>
<!-- Generator: Adobe Illustrator 16.0.4, SVG Export Plug-In . SVG Version: 6.00 Build 0)  -->
<!DOCTYPE svg PUBLIC "-//W3C//DTD SVG 1.1//EN" "http://www.w3.org/Graphics/SVG/1.1/DTD/svg11.dtd">
<svg version="1.1" id="Capa_1" xmlns="http://www.w3.org/2000/svg" xmlns:xlink="http://www.w3.org/1999/xlink" x="0px" y="0px"
	 width="51.09px" height="58.812px" viewBox="0 0 51.09 58.812" enable-background="new 0 0 51.09 58.812" xml:space="preserve">
<path fill="#262626" d="M50.986,32.858c-0.358-1.203-1.6-2.02-3.766-2.436c-0.181-0.016-18.213-1.721-26.338-10.332
	c-0.191-0.146-1.187-0.872-2.084-0.872c-0.54,0-0.871,0.246-1.055,0.452c-0.203,0.227-0.33,0.52-0.383,0.883
	c-3.311-0.278-7.902-0.406-11.198-0.406c-0.996,0-1.832,0.014-2.422,0.036l-0.122-0.02c-0.386-0.061-0.786-0.053-1.229,0.049
	c-1.049,0.274-2.315,1.219-2.39,4.18v12.47l0.001,2.391c0,0.189,0.51,0.341,1.126,0.341h2.101v-1.26h1.007v1.26h2.742H8.14v-1.26
	h1.007v1.26h2.931h0.974v-1.26h1.007v1.26h17.248v-1.26h1.008v1.26h0.978h2.56v-1.26h1.008v1.26h2.231h0.63v-1.26h1.008v1.26h1.557
	h1.641h0.742v-1.26h1.008v1.26h1.443h1.34c0.611,0,1.123-0.15,1.123-0.341v-2.606C49.788,36.44,51.529,34.67,50.986,32.858z
	 M16.12,22.431c-2.599,0.382-5.71,0.235-8.777-0.292C10.538,22.187,13.477,22.287,16.12,22.431z M48.721,35.349H1.511V24.411
	c0.028-1.104,0.271-2.477,1.239-2.73c0.172-0.039,0.343-0.055,0.507-0.038l0.06,0.036l2.926,1.372
	c5.119,2.121,8.959,2.36,11.398,0.295l1.322-1.119l0.01,0.002l-0.001-0.01l-0.009-0.076l-0.098-0.848
	c-0.039-0.333-0.015-0.509-0.024-0.562c0.291,0.029,0.825,0.332,1.033,0.478c1.947,2.067,4.41,3.743,7.05,5.106l-0.729-0.248
	c0,0-3.444-0.312-2.689,1.577c0.756,1.891,5.039,2.898,5.039,2.898l4.787,0.881c0,0,3.328,0.477,6.891-0.581l-0.07-0.022
	c3.812,0.812,6.595,1.074,6.855,1.099c1.451,0.278,2.35,0.768,2.531,1.369C49.743,33.964,49.124,34.878,48.721,35.349z"/>
</svg>
