<?xml version="1.0" encoding="iso-8859-1"?>
<!-- Generator: Adobe Illustrator 16.0.4, SVG Export Plug-In . SVG Version: 6.00 Build 0)  -->
<!DOCTYPE svg PUBLIC "-//W3C//DTD SVG 1.1//EN" "http://www.w3.org/Graphics/SVG/1.1/DTD/svg11.dtd">
<svg version="1.1" id="Capa_1" xmlns="http://www.w3.org/2000/svg" xmlns:xlink="http://www.w3.org/1999/xlink" x="0px" y="0px"
	 width="36.796px" height="35.122px" viewBox="0 0 36.796 35.122" style="enable-background:new 0 0 36.796 35.122;"
	 xml:space="preserve">
<g>
	<path style="fill:#262626;" d="M36.693,8.585c-0.385-1.84-2.411-1.903-4.505-1.433l-4.625,6.61
		c-0.429,0.52-1.198,0.592-1.717,0.161c-0.518-0.43-0.59-1.197-0.16-1.716l1.485-4.094c0,0,0.565-6.345-0.284-7.405
		c-2.549-1.594-5.31,0-5.31,0v1.415c0,0-1.097,3.122-2.371,0.809l-0.223-1.64c-2.181-1.555-4.732,0.224-4.732,0.224v2.736
		c0,0-1.957,1.441-1.957-0.372c0-1.815,0-1.538,0-1.538c-1.312-2.017-4.887,0-4.887,0v1.416c0,0-0.376,2.753-2.292,1.287
		C5.013,2.234,0.353,4.82,0.353,4.82s-0.855,0.612,0.099,8.505c4.198,0.547,13.487,2.277,14.552,6.945
		c0.785,3.448-2.901,7.499-11.251,12.375v2.477H28.45V28.47c0.053-0.143,0.102-0.275,0.159-0.427
		C33.012,16.29,37.542,12.631,36.693,8.585z"/>
	<path style="fill:#262626;" d="M3.755,31.654c7.472-4.431,11.08-8.295,10.42-11.195c-0.921-4.043-9.483-5.69-13.611-6.254
		c0.315,2.288,0.789,4.597,1.488,6.759C5.157,30.563,3.841,31.599,3.755,31.654z"/>
</g>
<g>
</g>
<g>
</g>
<g>
</g>
<g>
</g>
<g>
</g>
<g>
</g>
<g>
</g>
<g>
</g>
<g>
</g>
<g>
</g>
<g>
</g>
<g>
</g>
<g>
</g>
<g>
</g>
<g>
</g>
</svg>
