<?xml version="1.0" encoding="iso-8859-1"?>
<!-- Generator: Adobe Illustrator 16.0.4, SVG Export Plug-In . SVG Version: 6.00 Build 0)  -->
<!DOCTYPE svg PUBLIC "-//W3C//DTD SVG 1.1//EN" "http://www.w3.org/Graphics/SVG/1.1/DTD/svg11.dtd">
<svg version="1.1" id="Capa_1" xmlns="http://www.w3.org/2000/svg" xmlns:xlink="http://www.w3.org/1999/xlink" x="0px" y="0px"
	 width="45.632px" height="29.592px" viewBox="0 0 45.632 29.592" style="enable-background:new 0 0 45.632 29.592;"
	 xml:space="preserve">
<path style="fill:#262626;" d="M36.31,10.949c-1.3,0-2.539,0.271-3.664,0.754l-3.547-4.785V3.315l2.936-1.78L31.102,0l-3.777,2.294
	l0.006,0.009h-0.006v3.116l-1.328,1.128l-10.165,7.066c-0.072-0.07-0.147-0.133-0.221-0.2V7.551h2.276V5.445h-6.738v2.105h0.441
	v1.309h2.204v3.237c-1.329-0.73-2.852-1.147-4.472-1.147C4.182,10.949,0,15.132,0,20.271c0,5.139,4.182,9.32,9.321,9.32
	c5.067,0,9.195-4.066,9.311-9.106l11.422-8.469l0.625,0.845c-2.236,1.703-3.689,4.387-3.689,7.41c0,5.139,4.182,9.32,9.321,9.32
	c5.14,0,9.322-4.182,9.322-9.32C45.632,15.132,41.45,10.949,36.31,10.949z M15.989,16.267c0.479,0.793,0.83,1.666,1,2.608
	l-0.349,0.261h-4.78L15.989,16.267z M9.321,28.08c-4.306,0-7.81-3.504-7.81-7.809c0-4.306,3.504-7.811,7.81-7.811
	c2.016,0,3.837,0.789,5.225,2.046L9.493,18.02c-0.058-0.004-0.112-0.018-0.172-0.018c-1.253,0-2.269,1.017-2.269,2.27
	c0,1.251,1.016,2.267,2.269,2.267c0.838,0,1.561-0.458,1.954-1.134h5.742C16.462,25.17,13.24,28.08,9.321,28.08z M18.322,17.889
	c-0.235-0.892-0.6-1.73-1.073-2.497l10.1-7.021l1.353,1.823L18.322,17.889z M36.31,28.08c-4.306,0-7.81-3.504-7.81-7.809
	c0-2.525,1.225-4.752,3.091-6.18l3.287,4.433c-0.506,0.417-0.836,1.041-0.836,1.747c0,1.251,1.015,2.267,2.268,2.267
	s2.269-1.016,2.269-2.267c0-0.751-0.372-1.415-0.936-1.827l-4.054-5.467c0.85-0.318,1.76-0.517,2.721-0.517
	c4.306,0,7.81,3.505,7.81,7.811C44.12,24.576,40.616,28.08,36.31,28.08z"/>
<g>
</g>
<g>
</g>
<g>
</g>
<g>
</g>
<g>
</g>
<g>
</g>
<g>
</g>
<g>
</g>
<g>
</g>
<g>
</g>
<g>
</g>
<g>
</g>
<g>
</g>
<g>
</g>
<g>
</g>
</svg>
