<?xml version="1.0" encoding="iso-8859-1"?>
<!-- Generator: Adobe Illustrator 16.0.4, SVG Export Plug-In . SVG Version: 6.00 Build 0)  -->
<!DOCTYPE svg PUBLIC "-//W3C//DTD SVG 1.1//EN" "http://www.w3.org/Graphics/SVG/1.1/DTD/svg11.dtd">
<svg version="1.1" id="Capa_1" xmlns="http://www.w3.org/2000/svg" xmlns:xlink="http://www.w3.org/1999/xlink" x="0px" y="0px"
	 width="39.537px" height="42.931px" viewBox="0 0 39.537 42.931" style="enable-background:new 0 0 39.537 42.931;"
	 xml:space="preserve">
<g>
	<path style="fill:#262626;" d="M20.676,7.764c2.142,0,3.883-1.742,3.883-3.883c0-2.142-1.741-3.88-3.883-3.88
		s-3.878,1.738-3.878,3.88C16.798,6.021,18.534,7.764,20.676,7.764z"/>
	<path style="fill:#262626;" d="M22.557,22.515c-2.906-1.709-5.211-2.754-7.039-3.382l-0.005,11.319L14.27,36.42
		c-0.382,1.446,0.797,2.214,2.02,2.214c1.222,0,1.982-0.794,2.454-1.974l1.188-5.552v-8.342h0.993v17.971l0.014,0.013
		c0.02,1.204,0.995,2.18,2.202,2.18c1.213,0,2.2-0.989,2.2-2.204l-0.003-16.626C24.473,23.621,23.565,23.105,22.557,22.515z"/>
	<path style="fill:#262626;" d="M6.051,5.159l6.964,7.152c3.527,0.4,7.646,1.925,12.322,4.575v-1.961l9.502-9.766
		c0.007,0,0.007-0.004,0.013-0.011c0.641-0.636,0.641-1.677,0-2.318c-0.639-0.638-1.674-0.634-2.312,0
		c-0.004,0.01-0.004,0.011-0.012,0.014l-6.128,6.175l-0.004,0.023V9.018H14.496L8.367,2.843C8.363,2.841,8.36,2.839,8.36,2.83
		c-0.642-0.634-1.679-0.638-2.317,0c-0.641,0.641-0.641,1.682,0,2.318C6.049,5.155,6.051,5.159,6.051,5.159z M25.337,13.886
		l0.032-0.007l-0.032,0.146V13.886z"/>
	<path style="fill:#262626;" d="M36.028,18.515l-3.465,3.135c-1.525-0.734-3.655-1.864-6.607-3.599
		c-9.034-5.309-16.062-6.867-20.888-4.636C1.659,14.992,0.276,18.123,0,19.724l4.771,0.832c0.002-0.019,0.4-1.852,2.332-2.745
		c1.855-0.861,6.45-1.428,16.4,4.417c7.05,4.142,10.683,5.666,12.826,5.666c1.174,0,1.904-0.458,2.501-1.193
		C39.77,25.552,40.496,23.454,36.028,18.515z"/>
</g>
<g>
</g>
<g>
</g>
<g>
</g>
<g>
</g>
<g>
</g>
<g>
</g>
<g>
</g>
<g>
</g>
<g>
</g>
<g>
</g>
<g>
</g>
<g>
</g>
<g>
</g>
<g>
</g>
<g>
</g>
</svg>
