<?xml version="1.0" encoding="iso-8859-1"?>
<!-- Generator: Adobe Illustrator 16.0.4, SVG Export Plug-In . SVG Version: 6.00 Build 0)  -->
<!DOCTYPE svg PUBLIC "-//W3C//DTD SVG 1.1//EN" "http://www.w3.org/Graphics/SVG/1.1/DTD/svg11.dtd">
<svg version="1.1" id="Capa_1" xmlns="http://www.w3.org/2000/svg" xmlns:xlink="http://www.w3.org/1999/xlink" x="0px" y="0px"
	 width="45.254px" height="29.894px" viewBox="0 0 45.254 29.894" style="enable-background:new 0 0 45.254 29.894;"
	 xml:space="preserve">
<path style="fill:#262626;" d="M36.05,8.419h-2.422L28.958,0l-0.042,0.021V0H12.674v4.647H26.22l2.094,3.771H9.203
	C4.121,8.419,0,12.539,0,17.625v3.066c0,5.086,4.121,9.202,9.203,9.202H36.05c5.082,0,9.204-4.116,9.204-9.202v-3.066
	C45.254,12.539,41.132,8.419,36.05,8.419z M9.203,12.385h19.11h6.735h1.001c2.591,0,4.736,1.899,5.148,4.377H4.055
	C4.469,14.284,6.611,12.385,9.203,12.385z M36.05,25.93H9.203c-2.354,0-4.324-1.573-4.984-3.715h36.817
	C40.376,24.356,38.402,25.93,36.05,25.93z"/>
<g>
</g>
<g>
</g>
<g>
</g>
<g>
</g>
<g>
</g>
<g>
</g>
<g>
</g>
<g>
</g>
<g>
</g>
<g>
</g>
<g>
</g>
<g>
</g>
<g>
</g>
<g>
</g>
<g>
</g>
</svg>
