<?xml version="1.0" encoding="iso-8859-1"?>
<!-- Generator: Adobe Illustrator 16.0.4, SVG Export Plug-In . SVG Version: 6.00 Build 0)  -->
<!DOCTYPE svg PUBLIC "-//W3C//DTD SVG 1.1//EN" "http://www.w3.org/Graphics/SVG/1.1/DTD/svg11.dtd">
<svg version="1.1" id="Capa_1" xmlns="http://www.w3.org/2000/svg" xmlns:xlink="http://www.w3.org/1999/xlink" x="0px" y="0px"
	 width="37.338px" height="41.374px" viewBox="0 0 37.338 41.374" style="enable-background:new 0 0 37.338 41.374;"
	 xml:space="preserve">
<g>
	<path style="fill:#262626;" d="M29.866,0.642C29.878,0.424,29.893,0.204,29.893,0H7.444c0,0.204,0.014,0.424,0.026,0.642H0
		c0,0,2.822,13.85,13.118,13.85c0.052,0,0.108-0.005,0.163-0.006c0.588,0.651,1.206,1.229,1.854,1.688
		c-0.456,0.009-0.823,0.374-0.823,0.829c0,0.461,0.375,0.835,0.834,0.835h1.101l-2.517,10.591h-1.87v10.028h14.204V28.429H24.19
		l-2.518-10.591h1.104c0.458,0,0.833-0.374,0.833-0.835c0-0.459-0.374-0.834-0.833-0.834h-0.569c0.645-0.458,1.26-1.034,1.848-1.683
		c0.053,0.001,0.109,0.006,0.161,0.006c10.297,0,13.122-13.85,13.122-13.85H29.866z M1.953,2.13h5.678
		c0.522,3.343,2.13,7.607,4.389,10.788C5.915,12.177,3.01,5.426,1.953,2.13z M24.056,29.804v6.975H13.708v-6.975H24.056z
		 M25.317,12.918c2.258-3.18,3.865-7.444,4.387-10.788h5.681C34.325,5.428,31.418,12.178,25.317,12.918z"/>
	<rect x="9.3" y="38.92" style="fill:#262626;" width="18.739" height="2.454"/>
</g>
<g>
</g>
<g>
</g>
<g>
</g>
<g>
</g>
<g>
</g>
<g>
</g>
<g>
</g>
<g>
</g>
<g>
</g>
<g>
</g>
<g>
</g>
<g>
</g>
<g>
</g>
<g>
</g>
<g>
</g>
</svg>
