<?xml version="1.0" encoding="iso-8859-1"?>
<!-- Generator: Adobe Illustrator 16.0.4, SVG Export Plug-In . SVG Version: 6.00 Build 0)  -->
<!DOCTYPE svg PUBLIC "-//W3C//DTD SVG 1.1//EN" "http://www.w3.org/Graphics/SVG/1.1/DTD/svg11.dtd">
<svg version="1.1" id="Capa_1" xmlns="http://www.w3.org/2000/svg" xmlns:xlink="http://www.w3.org/1999/xlink" x="0px" y="0px"
	 width="35.675px" height="51.302px" viewBox="0 0 35.675 51.302" style="enable-background:new 0 0 35.675 51.302;"
	 xml:space="preserve">
<g>
	<rect y="2.896" style="fill:#262626;" width="3.653" height="48.405"/>
	<rect x="4.476" y="7.483" style="fill:#262626;" width="5.182" height="4.969"/>
	<rect x="13.996" y="7.483" style="fill:#262626;" width="5.669" height="4.969"/>
	<path style="fill:#262626;" d="M19.439,3.145C17.896,0.931,15.966,0.067,13.996,0v3.145H19.439z"/>
	<path style="fill:#262626;" d="M9.658,0.879C7.965,1.558,6.496,2.479,5.561,3.145h4.097V0.879z"/>
	<path style="fill:#262626;" d="M9.658,19.072V16.79H4.476v3.791h1.752C7.13,20.067,8.314,19.49,9.658,19.072z"/>
	<rect x="24.002" y="16.79" style="fill:#262626;" width="4.946" height="3.791"/>
	<rect x="33.287" y="16.79" style="fill:#262626;" width="2.25" height="3.791"/>
	<path style="fill:#262626;" d="M19.665,16.79h-5.669v1.777c1.557,0.156,3.123,0.73,4.546,2.014h1.124V16.79z"/>
	<rect x="33.287" y="7.483" style="fill:#262626;" width="2.25" height="4.969"/>
	<path style="fill:#262626;" d="M24.002,7.551v4.901h4.946V7.54C27.336,7.997,25.619,8.114,24.002,7.551z"/>
	<path style="fill:#262626;" d="M24.002,7.483h-0.191c0.063,0.021,0.127,0.045,0.191,0.067V7.483z"/>
	<path style="fill:#262626;" d="M29.148,7.483h-0.2V7.54C29.017,7.521,29.083,7.502,29.148,7.483z"/>
	<path style="fill:#262626;" d="M19.665,3.145h-0.226c0.076,0.106,0.152,0.214,0.226,0.33V3.145z"/>
	<path style="fill:#262626;" d="M5.561,3.145H3.653v4.339h0.823V3.971C4.476,3.971,4.882,3.625,5.561,3.145z"/>
	<rect x="9.658" y="3.145" style="fill:#262626;" width="4.338" height="4.339"/>
	<path style="fill:#262626;" d="M20.002,3.971c-0.105-0.189-0.229-0.325-0.337-0.496v4.009h4.146
		C22.399,6.938,21.076,5.877,20.002,3.971z"/>
	<path style="fill:#262626;" d="M29.148,7.483h4.139V5.566C32.166,6.263,30.722,7.01,29.148,7.483z"/>
	<rect x="35.537" y="12.452" style="fill:#262626;" width="0.138" height="4.338"/>
	<rect x="3.653" y="12.452" style="fill:#262626;" width="0.823" height="4.338"/>
	<rect x="9.658" y="12.452" style="fill:#262626;" width="4.338" height="4.338"/>
	<rect x="19.665" y="12.452" style="fill:#262626;" width="4.337" height="4.338"/>
	<rect x="28.949" y="12.452" style="fill:#262626;" width="4.338" height="4.338"/>
	<path style="fill:#262626;" d="M24.002,24.601v0.318h4.946v-0.312C27.364,24.953,25.658,25.037,24.002,24.601z"/>
	<path style="fill:#262626;" d="M19.665,20.581v1.182c1.29,1.575,2.789,2.432,4.337,2.838v-4.02H19.665z"/>
	<path style="fill:#262626;" d="M28.949,24.606c1.665-0.366,3.178-0.994,4.338-1.581v-2.444h-4.338V24.606z"/>
</g>
<g>
</g>
<g>
</g>
<g>
</g>
<g>
</g>
<g>
</g>
<g>
</g>
<g>
</g>
<g>
</g>
<g>
</g>
<g>
</g>
<g>
</g>
<g>
</g>
<g>
</g>
<g>
</g>
<g>
</g>
</svg>
