<?xml version="1.0" encoding="iso-8859-1"?>
<!-- Generator: Adobe Illustrator 16.0.0, SVG Export Plug-In . SVG Version: 6.00 Build 0)  -->
<!DOCTYPE svg PUBLIC "-//W3C//DTD SVG 1.1//EN" "http://www.w3.org/Graphics/SVG/1.1/DTD/svg11.dtd">
<svg version="1.1" id="Capa_1" xmlns="http://www.w3.org/2000/svg" xmlns:xlink="http://www.w3.org/1999/xlink" x="0px" y="0px"
	 width="500px" height="500px" viewBox="0 0 500 500" style="enable-background:new 0 0 500 500;" xml:space="preserve">
<g>
	<polygon points="248.699,470.432 150.618,470.432 150.618,496.521 248.699,496.521 251.301,496.521 349.382,496.521 
		349.382,470.432 251.301,470.432 	"/>
	<path d="M370.869,58.517c0.086-1.517,0.188-24.257,0.229-40.051h19.301V3.479H251.301h-2.602H109.602v14.987h19.299
		c0.043,15.794,0.144,38.534,0.229,40.051L49.699,42.45c0,0,30.004,163.395,139.521,163.395c0.553,0,1.133-0.069,1.702-0.069
		c6.27,6.919,12.838,13.063,19.735,17.954c-4.84,0.106-8.759,3.975-8.759,8.834c0,4.909,3.973,8.866,8.865,8.866h11.721
		l-26.782,112.664h-19.9v106.641h72.897h2.602h72.896V354.092h-19.9l-26.781-112.664h11.722c4.895,0,8.864-3.957,8.864-8.865
		c0-4.859-3.918-8.728-8.758-8.834c6.896-4.893,13.465-11.035,19.734-17.954c0.568,0,1.146,0.069,1.702,0.069
		c109.517,0,139.521-163.395,139.521-163.395L370.869,58.517z M70.472,61.184l60.403,13.173
		c5.541,35.563,22.655,80.916,46.661,114.744C112.607,181.216,81.709,96.236,70.472,61.184z M222.444,197.207
		c-2.831,0-5.643-1.195-7.621-3.521c-53.778-63.206-59.781-134.342-60.288-142.245c-0.354-5.511,3.827-10.266,9.339-10.62
		c5.516-0.353,10.267,3.828,10.62,9.339c0.185,2.883,5.112,71.271,55.562,130.566c3.579,4.206,3.07,10.518-1.136,14.097
		C227.038,196.424,224.735,197.207,222.444,197.207z M304.482,368.717v74.166H251.3h-2.602h-53.183v-74.166h53.183h2.602H304.482z
		 M322.464,189.103c24.007-33.828,41.12-79.182,46.661-114.744l60.402-13.173C418.291,96.236,387.393,181.216,322.464,189.103z"/>
</g>
</svg>
