<?xml version="1.0" encoding="iso-8859-1"?>
<!-- Generator: Adobe Illustrator 16.0.4, SVG Export Plug-In . SVG Version: 6.00 Build 0)  -->
<!DOCTYPE svg PUBLIC "-//W3C//DTD SVG 1.1//EN" "http://www.w3.org/Graphics/SVG/1.1/DTD/svg11.dtd">
<svg version="1.1" id="Capa_1" xmlns="http://www.w3.org/2000/svg" xmlns:xlink="http://www.w3.org/1999/xlink" x="0px" y="0px"
	 width="40.002px" height="28.513px" viewBox="0 0 40.002 28.513" style="enable-background:new 0 0 40.002 28.513;"
	 xml:space="preserve">
<path style="fill:#262626;" d="M38.547,17.814H13.093v-1.426h25.87c0,0,3.149-3.069-1.529-3.979c0,0-5.28-0.473-10.969-2.366
	l-3.775,2.693l-0.839-1.173l2.961-2.11C24.431,9.311,24.053,9.157,23.674,9l-4.389,3.132l-0.837-1.174l3.703-2.64
	c-0.391-0.187-0.775-0.383-1.157-0.586l-4.47,3.188l-0.837-1.173l3.934-2.805c-4.478,0.355-5.234-5.775-6.308-6.916L2.216,0.022
	C1.986-0.013,1.739-0.009,1.474,0.051C0.829,0.222,0.05,0.835,0,2.833v13.452v0.104v2.982v2.882v6.26h1.459h1.052h21.644h2.507
	h3.989c0.002,0,0.008,0,0.016,0c0.286,0,3.665-0.05,6.009-2.377c1.365-1.353,2.07-3.201,2.138-5.465
	c0.675-0.129,1.189-0.691,1.189-1.401C40.002,18.466,39.35,17.814,38.547,17.814z M11.834,27.145H2.511v-4.892h9.323V27.145z
	 M14.347,27.145v-6.421h9.808v6.421H14.347z M35.719,25.16c-1.976,1.966-5,1.984-5.062,1.984h-3.995v-6.421H37.44
	C37.366,22.578,36.802,24.079,35.719,25.16z"/>
<g>
</g>
<g>
</g>
<g>
</g>
<g>
</g>
<g>
</g>
<g>
</g>
<g>
</g>
<g>
</g>
<g>
</g>
<g>
</g>
<g>
</g>
<g>
</g>
<g>
</g>
<g>
</g>
<g>
</g>
</svg>
