<?xml version="1.0" encoding="iso-8859-1"?>
<!-- Generator: Adobe Illustrator 16.0.4, SVG Export Plug-In . SVG Version: 6.00 Build 0)  -->
<!DOCTYPE svg PUBLIC "-//W3C//DTD SVG 1.1//EN" "http://www.w3.org/Graphics/SVG/1.1/DTD/svg11.dtd">
<svg version="1.1" id="Capa_1" xmlns="http://www.w3.org/2000/svg" xmlns:xlink="http://www.w3.org/1999/xlink" x="0px" y="0px"
	 width="34.104px" height="42.153px" viewBox="0 0 34.104 42.153" style="enable-background:new 0 0 34.104 42.153;"
	 xml:space="preserve">
<g>
	<path style="fill:#262626;" d="M17.053,4.86c2.412,0,4.367-1.417,4.367-3.165c0-0.107-0.017-0.209-0.031-0.311h-8.672
		c-0.015,0.102-0.031,0.204-0.031,0.311C12.686,3.444,14.642,4.86,17.053,4.86z"/>
	<polygon style="fill:#262626;" points="6.769,17.153 16.416,24.943 23.104,24.943 6.769,12.416 	"/>
	<path style="fill:#262626;" d="M18.729,9.227c-0.098-0.215-0.231-0.376-0.399-0.484c-0.169-0.11-0.385-0.163-0.65-0.163
		c-0.261,0-0.477,0.053-0.648,0.163c-0.172,0.108-0.308,0.273-0.408,0.493c-0.094,0.206-0.159,0.475-0.194,0.806
		c-0.035,0.332-0.052,0.694-0.052,1.09c0,0.435,0.016,0.797,0.046,1.09c0.031,0.292,0.096,0.555,0.196,0.786
		c0.092,0.217,0.222,0.383,0.391,0.497s0.392,0.17,0.67,0.17c0.263,0,0.48-0.054,0.653-0.163c0.172-0.108,0.306-0.272,0.401-0.492
		c0.097-0.226,0.163-0.492,0.198-0.796c0.035-0.305,0.052-0.672,0.052-1.101c0-0.423-0.018-0.791-0.052-1.103
		C18.896,9.708,18.83,9.444,18.729,9.227z"/>
	<path style="fill:#262626;" d="M22.592,10.325c0.103,0.049,0.251,0.115,0.445,0.196c0.193,0.082,0.382,0.148,0.566,0.201
		c0.275-0.184,0.465-0.375,0.572-0.572c0.106-0.198,0.159-0.426,0.159-0.685c0-0.298-0.114-0.536-0.345-0.713
		c-0.23-0.177-0.522-0.265-0.878-0.265c-0.352,0-0.639,0.083-0.863,0.25c-0.224,0.167-0.335,0.393-0.335,0.677
		c0,0.201,0.056,0.375,0.169,0.52C22.193,10.08,22.365,10.211,22.592,10.325z"/>
	<path style="fill:#262626;" d="M27.238,0.012V0h-6.022c0.437,0.531,0.706,1.143,0.706,1.806c0,1.95-2.181,3.531-4.869,3.531
		c-2.688,0-4.869-1.581-4.869-3.531c0-0.663,0.269-1.275,0.706-1.806h-6.12v0.11L0,6.877l4.459,4.458l2.31-2.311l0.025,2.32
		l17.407,13.598h3.037V8.929l2.407,2.407l4.459-4.458L27.238,0.012z M19.307,13.581c-0.349,0.522-0.892,0.783-1.627,0.783
		c-0.746,0-1.291-0.265-1.635-0.794c-0.344-0.529-0.516-1.342-0.516-2.439c0-1.105,0.174-1.923,0.522-2.45
		c0.348-0.527,0.892-0.792,1.628-0.792c0.747,0,1.292,0.268,1.636,0.804c0.344,0.536,0.516,1.345,0.516,2.429
		C19.832,12.239,19.657,13.059,19.307,13.581z M24.695,13.841c-0.419,0.357-0.946,0.535-1.581,0.535c-0.674,0-1.21-0.174-1.61-0.521
		c-0.399-0.349-0.599-0.794-0.599-1.337c0-0.345,0.1-0.657,0.3-0.938c0.2-0.28,0.483-0.501,0.848-0.667v-0.025
		c-0.334-0.178-0.582-0.374-0.742-0.584c-0.16-0.212-0.24-0.476-0.24-0.793c0-0.468,0.192-0.858,0.576-1.169
		c0.384-0.312,0.872-0.469,1.466-0.469c0.622,0,1.117,0.149,1.487,0.447c0.371,0.298,0.555,0.677,0.555,1.136
		c0,0.281-0.087,0.558-0.263,0.83c-0.175,0.271-0.433,0.484-0.772,0.636v0.025c0.39,0.167,0.688,0.374,0.894,0.619
		c0.207,0.245,0.31,0.556,0.31,0.935C25.324,13.039,25.115,13.485,24.695,13.841z"/>
	<path style="fill:#262626;" d="M23.632,11.499c-0.13-0.062-0.274-0.118-0.43-0.171s-0.363-0.127-0.622-0.221
		c-0.251,0.136-0.452,0.322-0.604,0.555c-0.151,0.234-0.228,0.498-0.228,0.793c0,0.377,0.13,0.688,0.388,0.932
		c0.259,0.245,0.588,0.368,0.986,0.368c0.407,0,0.731-0.104,0.975-0.312c0.244-0.21,0.366-0.496,0.366-0.862
		c0-0.256-0.057-0.461-0.17-0.615C24.182,11.81,23.96,11.655,23.632,11.499z"/>
	<polygon style="fill:#262626;" points="6.769,24.943 15.32,24.943 6.769,18.249 	"/>
	<rect x="6.783" y="25.5" style="fill:#262626;" width="20.539" height="2.962"/>
	<polygon style="fill:#262626;" points="17.053,28.98 16.891,28.98 6.783,28.98 5.071,42.153 15.34,42.153 16.975,37.331 
		18.764,42.153 29.033,42.153 27.322,28.98 	"/>
</g>
<g>
</g>
<g>
</g>
<g>
</g>
<g>
</g>
<g>
</g>
<g>
</g>
<g>
</g>
<g>
</g>
<g>
</g>
<g>
</g>
<g>
</g>
<g>
</g>
<g>
</g>
<g>
</g>
<g>
</g>
</svg>
