<?xml version="1.0" encoding="iso-8859-1"?>
<!-- Generator: Adobe Illustrator 16.0.4, SVG Export Plug-In . SVG Version: 6.00 Build 0)  -->
<!DOCTYPE svg PUBLIC "-//W3C//DTD SVG 1.1//EN" "http://www.w3.org/Graphics/SVG/1.1/DTD/svg11.dtd">
<svg version="1.1" id="Capa_1" xmlns="http://www.w3.org/2000/svg" xmlns:xlink="http://www.w3.org/1999/xlink" x="0px" y="0px"
	 width="31.969px" height="39.44px" viewBox="0 0 31.969 39.44" style="enable-background:new 0 0 31.969 39.44;"
	 xml:space="preserve">
<g>
	<path style="fill:#262626;" d="M0,0v23.928h2.74v14.845h3.83V23.928h18.571V39.44h3.829V23.928h2.999V0H0z M29.712,21.671H2.256
		V2.257h27.456V21.671z"/>
	<path style="fill:#262626;" d="M28.016,3.716H15.984v16.36h12.032V3.716z M25.01,11.438c0,0.313-0.11,0.579-0.331,0.796
		c-0.221,0.218-0.485,0.328-0.793,0.328h-3.371v2.725h3.94c0.149,0,0.28,0.054,0.39,0.161c0.11,0.108,0.165,0.24,0.165,0.393
		c0,0.155-0.055,0.285-0.165,0.394c-0.11,0.108-0.241,0.162-0.39,0.162h-5.051v-3.834c0-0.309,0.108-0.574,0.327-0.794
		c0.219-0.22,0.48-0.33,0.784-0.33h3.371V8.733h-3.967c-0.158,0-0.291-0.053-0.396-0.162c-0.106-0.107-0.159-0.239-0.159-0.393
		c0-0.154,0.053-0.285,0.159-0.393c0.105-0.107,0.238-0.162,0.396-0.162h3.967c0.308,0,0.573,0.109,0.793,0.327
		C24.9,8.168,25.01,8.43,25.01,8.733V11.438z"/>
	<path style="fill:#262626;" d="M5.062,12.98h3.271c0.114,0,0.21-0.041,0.289-0.123c0.079-0.083,0.118-0.18,0.118-0.292v-0.357
		c0-0.12-0.042-0.216-0.126-0.292c-0.083-0.076-0.177-0.114-0.281-0.114H5.062c-0.114,0-0.209,0.04-0.287,0.118
		C4.694,12,4.656,12.096,4.656,12.208v0.357c0,0.113,0.039,0.21,0.119,0.292C4.853,12.939,4.948,12.98,5.062,12.98z"/>
	<path style="fill:#262626;" d="M8.633,9.017h1.662v6.485H8.606c-0.153,0-0.281,0.052-0.39,0.157c-0.106,0.105-0.16,0.23-0.16,0.379
		c0,0.153,0.054,0.285,0.16,0.396c0.108,0.112,0.237,0.167,0.39,0.167h4.437c0.153,0,0.283-0.053,0.39-0.161
		c0.106-0.106,0.161-0.236,0.161-0.389v-2.839c0-0.152-0.054-0.282-0.161-0.389c-0.107-0.108-0.237-0.161-0.39-0.161
		c-0.153,0-0.283,0.054-0.389,0.164c-0.107,0.109-0.16,0.238-0.16,0.386v2.291h-1.101V7.918h-2.76c-0.153,0-0.283,0.054-0.39,0.161
		s-0.16,0.236-0.16,0.39c0,0.153,0.053,0.282,0.16,0.388C8.351,8.965,8.48,9.017,8.633,9.017z"/>
</g>
<g>
</g>
<g>
</g>
<g>
</g>
<g>
</g>
<g>
</g>
<g>
</g>
<g>
</g>
<g>
</g>
<g>
</g>
<g>
</g>
<g>
</g>
<g>
</g>
<g>
</g>
<g>
</g>
<g>
</g>
</svg>
