<?xml version="1.0" encoding="iso-8859-1"?>
<!-- Generator: Adobe Illustrator 16.0.4, SVG Export Plug-In . SVG Version: 6.00 Build 0)  -->
<!DOCTYPE svg PUBLIC "-//W3C//DTD SVG 1.1//EN" "http://www.w3.org/Graphics/SVG/1.1/DTD/svg11.dtd">
<svg version="1.1" id="Capa_1" xmlns="http://www.w3.org/2000/svg" xmlns:xlink="http://www.w3.org/1999/xlink" x="0px" y="0px"
	 width="53.773px" height="52.115px" viewBox="0 0 53.773 52.115" style="enable-background:new 0 0 53.773 52.115;"
	 xml:space="preserve">
<g>
	<path style="fill:#262626;" d="M15.819,4.601c0,2.541-2.06,4.602-4.603,4.602c-2.536,0-4.598-2.061-4.598-4.602S8.681,0,11.217,0
		C13.76,0,15.819,2.06,15.819,4.601z"/>
	<path style="fill:#262626;" d="M26.016,23.742v-0.004l0.01,0.009c0.759,0.76,1.988,0.76,2.751,0c0.759-0.758,0.756-1.986,0-2.738
		c-0.007-0.015-0.011-0.015-0.011-0.015l-7.563-7.561c-2.42-2.509-5.595-2.743-5.595-2.743H6.381
		c-6.609,0.121-6.377,4.972-6.377,4.972L0,26.987h0.012c-0.006,0.026-0.008,0.056-0.008,0.084c0,1.069,0.872,1.941,1.947,1.941
		c1.069,0,1.941-0.872,1.941-1.941c0-0.028-0.004-0.058-0.004-0.084h0.004V16.511h1.217L5.098,49.487
		c0,1.451,1.171,2.628,2.617,2.628s2.626-1.177,2.626-2.628l-0.003-21.271h1.176v21.296l0.014,0.016
		c0.014,1.435,1.184,2.582,2.61,2.582c1.445,0,2.61-1.171,2.61-2.605L16.74,16.456l1.259,0.01L26.016,23.742z"/>
	<path style="fill:#262626;" d="M37.819,1.398c-0.521-0.297-1.19-0.125-1.489,0.401l-10.9,18.886
		c-0.301,0.518-0.13,1.186,0.397,1.486c0.526,0.304,1.186,0.122,1.488-0.401L38.218,2.893C38.519,2.365,38.342,1.697,37.819,1.398z"
		/>
	<path style="fill:#262626;" d="M51.758,16.04c0.603-1.031,1.245-2.151,2.016-3.488c-1.584,0.048-2.729-0.397-3.693-0.981
		c-0.979-0.585-1.76-1.315-2.504-2.077c-0.745-0.763-1.445-1.55-2.184-2.31c-0.745-0.766-1.534-1.502-2.506-2.082
		c-0.97-0.579-2.11-1.028-3.698-0.977c-0.772,1.335-1.421,2.455-2.02,3.494c-0.601,1.036-1.156,2.004-1.756,3.046
		c-0.604,1.045-1.244,2.153-2.02,3.493c1.588-0.05,2.729,0.398,3.693,0.984c0.976,0.579,1.764,1.313,2.513,2.07
		c0.74,0.763,1.435,1.552,2.176,2.318c0.748,0.756,1.541,1.493,2.508,2.072c0.975,0.587,2.115,1.03,3.695,0.984
		c0.776-1.343,1.427-2.461,2.023-3.498C50.597,18.049,51.153,17.085,51.758,16.04z"/>
</g>
<g>
</g>
<g>
</g>
<g>
</g>
<g>
</g>
<g>
</g>
<g>
</g>
<g>
</g>
<g>
</g>
<g>
</g>
<g>
</g>
<g>
</g>
<g>
</g>
<g>
</g>
<g>
</g>
<g>
</g>
</svg>
