<?xml version="1.0" encoding="utf-8"?>
<!-- Generator: Adobe Illustrator 16.0.4, SVG Export Plug-In . SVG Version: 6.00 Build 0)  -->
<!DOCTYPE svg PUBLIC "-//W3C//DTD SVG 1.1//EN" "http://www.w3.org/Graphics/SVG/1.1/DTD/svg11.dtd">
<svg version="1.1" id="Capa_1" xmlns="http://www.w3.org/2000/svg" xmlns:xlink="http://www.w3.org/1999/xlink" x="0px" y="0px"
	 width="30.825px" height="63.945px" viewBox="0 0 30.825 63.945" enable-background="new 0 0 30.825 63.945" xml:space="preserve">
<g>
	<path fill="#262626" d="M15.628,11.299c3.123,0,5.646-2.535,5.646-5.646C21.274,2.527,18.75,0,15.628,0
		c-3.113,0-5.647,2.526-5.646,5.652C9.982,8.764,12.515,11.299,15.628,11.299z"/>
	<path fill="#262626" d="M28.715,31.172V19.221h0.002c-0.516-6.188-7.704-6.103-7.704-6.103H9.694c-6.005,0-7.566,5.264-7.566,5.264
		L0,25.626h0.009c-0.002,0.032-0.005,0.066-0.005,0.102c0,0.696,0.302,1.318,0.777,1.755l6.166,7.492l0.006-0.01
		C6.977,34.992,7,35.014,7.026,35.039c0.327,0.274,0.708,0.436,1.099,0.508l-0.01,25.179c0,1.775,1.438,3.221,3.215,3.221
		c1.781,0,3.221-1.444,3.221-3.221l-0.004-26.107h1.441v26.139l0.022,0.021c0.021,1.75,1.445,3.163,3.195,3.163
		c1.771,0,3.211-1.438,3.211-3.203l-0.006-20.117c0.807,0.436,1.729,0.683,2.709,0.683c3.148,0,5.705-2.553,5.705-5.707
		C30.825,33.814,30.001,32.219,28.715,31.172z M4.953,24.913l1.687-6.527h1.492L8.127,28.935L4.953,24.913z M22.405,18.327h1.547
		v11.685c-0.547,0.114-1.066,0.306-1.544,0.565L22.405,18.327z"/>
</g>
</svg>
