<?xml version="1.0" encoding="utf-8"?>
<!-- Generator: Adobe Illustrator 16.0.4, SVG Export Plug-In . SVG Version: 6.00 Build 0)  -->
<!DOCTYPE svg PUBLIC "-//W3C//DTD SVG 1.1//EN" "http://www.w3.org/Graphics/SVG/1.1/DTD/svg11.dtd">
<svg version="1.1" id="Capa_1" xmlns="http://www.w3.org/2000/svg" xmlns:xlink="http://www.w3.org/1999/xlink" x="0px" y="0px"
	 width="44.074px" height="53.889px" viewBox="0 0 44.074 53.889" enable-background="new 0 0 44.074 53.889" xml:space="preserve">
<g>
	<path fill="#262626" d="M22.037,9.516c2.628,0,4.755-2.127,4.755-4.759C26.792,2.132,24.666,0,22.037,0
		c-2.627,0-4.761,2.132-4.761,4.758C17.276,7.389,19.41,9.516,22.037,9.516z"/>
	<path fill="#262626" d="M42.066,11.053c-0.009,0-9.143,0-9.152,0H22.031H11.153v0.006c-0.006,0-9.14,0-9.149,0
		C0.898,11.059,0,11.957,0,13.068c0,1.104,0.898,2.004,2.004,2.004c0.01,0,9.144,0,9.149,0h4.564v0.175L15.7,51.175
		c0,1.5,1.214,2.714,2.711,2.714s2.714-1.214,2.714-2.714V29.176h1.213v22.025l0.019,0.021c0.02,1.476,1.221,2.667,2.7,2.667
		c1.487,0,2.698-1.208,2.698-2.694l-0.012-35.998l-0.008-0.123h5.178V15.07c0.01,0,9.144,0,9.151,0c1.112,0,2.007-0.899,2.007-2.011
		C44.074,11.957,43.179,11.053,42.066,11.053z"/>
</g>
</svg>
