<?xml version="1.0" encoding="utf-8"?>
<!-- Generator: Adobe Illustrator 16.0.4, SVG Export Plug-In . SVG Version: 6.00 Build 0)  -->
<!DOCTYPE svg PUBLIC "-//W3C//DTD SVG 1.1//EN" "http://www.w3.org/Graphics/SVG/1.1/DTD/svg11.dtd">
<svg version="1.1" id="Capa_1" xmlns="http://www.w3.org/2000/svg" xmlns:xlink="http://www.w3.org/1999/xlink" x="0px" y="0px"
	 width="40.33px" height="60.208px" viewBox="0 0 40.33 60.208" enable-background="new 0 0 40.33 60.208" xml:space="preserve">
<g>
	<path fill="#262626" d="M28.47,10.229c2.822,0,5.11-2.295,5.11-5.114C33.58,2.288,31.292,0,28.47,0
		c-2.818,0-5.113,2.288-5.113,5.114C23.354,7.934,25.651,10.229,28.47,10.229z"/>
	<path fill="#262626" d="M40.319,17.4c-0.476-5.606-6.977-5.528-6.977-5.528H23.097c-7.342,0.142-7.079,5.528-7.079,5.528v0.479
		l-0.064,0.286l-0.059-0.053c-0.109-0.104-0.229-0.18-0.357-0.241c-0.648-0.829-1.352-2.165-1.562-4.174
		c0.112-0.621,0.138-1.275,0.06-1.958c-0.12-1.07-0.488-2.128-1.051-3.11c-0.03,0.026-1.013-2.604-5.312-4.28
		c-1.119-0.381-1.8-0.372-2.681-0.294c-1.349,0.12-2.534,0.657-3.427,1.549c-2.441,2.444-1.974,6.884,1.045,9.899
		c1.68,1.68,3.874,2.618,5.961,2.597l0.004,0.033c0.03-0.001,2.673-0.087,5.217,1.901c0.042,0.053,0.088,0.108,0.137,0.158
		l2.085,1.968v0.851h0.009c0,0.033-0.004,0.064-0.004,0.092c0,1.193,0.97,2.16,2.155,2.16c0.326,0,0.629-0.082,0.9-0.212
		l0.049,0.049c-0.761,0.733-1.104,1.715-0.777,2.591c0.435,1.154,1.868,1.66,3.333,1.313v2.769l-2.322,13.34l2.311,12.175
		c0,1.613,1.304,2.92,2.914,2.92c1.608,0,2.915-1.307,2.915-2.92l-2.318-12.559l2.315-13.398H28.8l4.639,25.983l0.019,0.021
		c0.022,1.586,1.312,2.869,2.896,2.869c1.604,0,2.902-1.3,2.902-2.9l-3.974-33.308l2.829-1.06c1.299-0.482,2.136-1.549,2.19-2.609
		l0.03,0.013L40.319,17.4z M3.37,14.703c-2.674-2.627-3.223-6.396-1.232-8.42c1.989-2.023,5.769-1.537,8.44,1.089
		c2.67,2.624,3.221,6.396,1.231,8.418C9.817,17.815,6.04,17.325,3.37,14.703z M13.873,18.168c-0.262,0.277-0.387,0.626-0.387,0.977
		c-1.116-0.737-2.197-1.129-3.068-1.333c0.797-0.259,1.508-0.69,2.09-1.272c0.477-0.475,0.845-1.031,1.107-1.645
		c0.26,1.216,0.692,2.146,1.148,2.842C14.436,17.77,14.115,17.913,13.873,18.168z M21.683,23.576l-1.353-1.275v-3.967h1.353V23.576z
		 M34.679,18.928l-0.074-0.645h1.403l0.171,0.082L34.679,18.928z"/>
</g>
</svg>
