<?xml version="1.0" encoding="utf-8"?>
<!-- Generator: Adobe Illustrator 16.0.0, SVG Export Plug-In . SVG Version: 6.00 Build 0)  -->
<!DOCTYPE svg PUBLIC "-//W3C//DTD SVG 1.1//EN" "http://www.w3.org/Graphics/SVG/1.1/DTD/svg11.dtd">
<svg version="1.1" id="Capa_1" xmlns="http://www.w3.org/2000/svg" xmlns:xlink="http://www.w3.org/1999/xlink" x="0px" y="0px"
	 width="52.91px" height="52.91px" viewBox="0 0 52.91 52.91" enable-background="new 0 0 52.91 52.91" xml:space="preserve">
<g>
	<path d="M41.244,39.184c0.387-0.203,0.66-0.597,0.66-1.064L41.9,22.706h0.59v4.909c0,0.005,0,0.007,0,0.011
		c0,0.5,0.406,0.905,0.904,0.905c0.502,0,0.906-0.405,0.906-0.905c0-0.004,0-0.006,0-0.011v-5.28
		c-0.197-2.355-2.929-2.321-2.929-2.321h-4.308c-3.08,0.059-2.974,2.321-2.974,2.321v5.28h0.003c0,0.015-0.002,0.027-0.002,0.037
		c0,0.506,0.407,0.908,0.909,0.908c0.501,0,0.905-0.402,0.905-0.908c0-0.01-0.002-0.022-0.004-0.037h0.004v-4.887h0.568
		l-0.012,15.385c0,0.47,0.273,0.867,0.662,1.07h-4.436v-12h-8.224c0.732-0.009,1.325-0.602,1.325-1.334L25.79,15.025h0.598V25.86
		l0.011,0.008c0.009,0.728,0.599,1.313,1.326,1.313c0.73,0,1.326-0.594,1.326-1.328l0.001-16.177l5.734-5.889V3.786
		c0.002-0.002,0.002-0.005,0.006-0.007c0.387-0.385,0.387-1.012,0-1.397c-0.386-0.386-1.013-0.386-1.397,0
		c0,0-0.002,0.005-0.006,0.007l-3.693,3.725h-7.177l-3.695-3.723c-0.002-0.001-0.005-0.003-0.005-0.003
		c-0.388-0.39-1.014-0.39-1.4-0.004c-0.385,0.386-0.385,1.013,0,1.397c0.003,0.002,0.005,0.005,0.007,0.007V3.79l5.71,5.866
		L23.128,25.85c0,0.733,0.592,1.326,1.324,1.332h-4.726v9.115h-4.304c0.427-0.188,0.726-0.613,0.726-1.109l-0.004-15.416h0.589
		v4.911h0.002c0,0.004,0,0.005,0,0.009c0,0.502,0.406,0.906,0.905,0.906c0.5,0,0.907-0.404,0.907-0.906c0-0.004,0-0.005,0-0.009
		v-5.282c-0.199-2.354-2.929-2.321-2.929-2.321h-4.307c-3.083,0.06-2.974,2.321-2.974,2.321v5.282h0.001
		c0,0.014-0.001,0.026-0.001,0.038c0,0.502,0.407,0.909,0.908,0.909c0.502,0,0.904-0.407,0.904-0.909
		c0-0.011-0.001-0.023-0.003-0.038h0.003v-4.888h0.568l-0.006,15.389c0,0.498,0.301,0.922,0.727,1.114H7.379v15.937h12.344h0.625
		h12.213h0.133h12.838V39.184H41.244z M13.158,35.184l-0.002-9.93h0.547v9.938l0.009,0.011c0.007,0.489,0.305,0.909,0.725,1.096
		h-2.006C12.858,36.105,13.158,35.68,13.158,35.184z M19.723,51.186H8.424V37.34l11.33-0.012L19.723,51.186z M31.648,51.186H20.767
		V28.225h10.881V51.186z M38.915,38.111l-0.003-9.926h0.548v9.938l0.01,0.008c0.009,0.463,0.275,0.852,0.659,1.053h-1.877
		C38.641,38.979,38.915,38.583,38.915,38.111z M44.486,51.186H32.754l-0.047-10.957h11.779V51.186z"/>
	<path d="M28.922,41.091h-1.859v-8.212h-0.952c-0.019,0.264-0.078,0.477-0.185,0.635c-0.108,0.152-0.257,0.284-0.446,0.385
		c-0.148,0.082-0.37,0.143-0.667,0.187c-0.293,0.044-0.569,0.063-0.825,0.063v0.832h1.895v6.108h-1.894v0.931h4.933V41.091z"/>
	<path d="M17.128,47.633h-4.9c0.405-0.343,0.838-0.715,1.304-1.115c0.464-0.402,0.914-0.817,1.353-1.246
		c0.305-0.297,0.565-0.569,0.779-0.813c0.215-0.245,0.402-0.495,0.559-0.748c0.17-0.271,0.3-0.554,0.388-0.854
		c0.087-0.303,0.132-0.625,0.132-0.971c0-0.771-0.264-1.382-0.797-1.832c-0.53-0.451-1.261-0.677-2.196-0.677
		c-0.453,0-0.922,0.06-1.404,0.179c-0.482,0.117-0.87,0.248-1.157,0.389v1.285h0.059c0.411-0.269,0.833-0.467,1.267-0.599
		c0.432-0.131,0.833-0.196,1.205-0.196c0.559,0,0.995,0.135,1.308,0.4c0.312,0.268,0.467,0.639,0.467,1.113
		c0,0.516-0.145,0.999-0.435,1.445c-0.291,0.445-0.827,1.049-1.609,1.809c-0.371,0.365-0.772,0.729-1.203,1.097
		c-0.429,0.367-0.86,0.733-1.289,1.103v1.277h6.168L17.128,47.633z"/>
	<path d="M38.895,50.307c0.491,0,0.948-0.066,1.36-0.205c0.413-0.138,0.771-0.348,1.079-0.635c0.271-0.257,0.484-0.557,0.635-0.904
		c0.151-0.347,0.229-0.729,0.229-1.146s-0.064-0.762-0.189-1.027c-0.127-0.265-0.289-0.484-0.484-0.658
		c-0.176-0.155-0.391-0.287-0.645-0.391c-0.252-0.104-0.477-0.173-0.672-0.203V45.05c0.486-0.101,0.908-0.338,1.265-0.714
		c0.355-0.379,0.536-0.82,0.536-1.322c0-0.373-0.076-0.697-0.227-0.976c-0.149-0.276-0.375-0.515-0.666-0.711
		c-0.274-0.179-0.582-0.31-0.92-0.39c-0.34-0.082-0.73-0.123-1.174-0.123c-0.455,0-0.922,0.061-1.404,0.183
		c-0.484,0.118-0.87,0.251-1.16,0.394v1.277h0.063c0.387-0.251,0.799-0.447,1.234-0.586c0.438-0.141,0.85-0.209,1.238-0.209
		c0.253,0,0.479,0.021,0.677,0.061c0.2,0.041,0.387,0.115,0.563,0.225c0.166,0.104,0.301,0.24,0.393,0.404
		c0.094,0.166,0.14,0.358,0.14,0.58c0,0.498-0.183,0.873-0.551,1.135c-0.371,0.26-0.867,0.388-1.483,0.388H38.3v1.017h0.55
		c0.305,0,0.584,0.021,0.848,0.07c0.261,0.047,0.481,0.134,0.666,0.26c0.185,0.122,0.328,0.291,0.433,0.506s0.157,0.484,0.157,0.813
		c0,0.331-0.049,0.604-0.143,0.82c-0.091,0.217-0.229,0.414-0.418,0.594c-0.181,0.165-0.414,0.293-0.705,0.379
		c-0.287,0.085-0.563,0.129-0.819,0.129c-0.435,0-0.888-0.076-1.36-0.227c-0.466-0.149-0.875-0.342-1.222-0.567h-0.091v1.278
		c0.313,0.143,0.715,0.275,1.203,0.395C37.889,50.244,38.388,50.307,38.895,50.307z"/>
	<circle cx="26.243" cy="3.015" r="2.34"/>
	<path d="M13.568,16.389c1.186,0,2.148-0.964,2.148-2.149c0-1.183-0.963-2.146-2.148-2.146c-1.184,0-2.146,0.963-2.146,2.146
		C11.422,15.425,12.384,16.389,13.568,16.389z"/>
	<circle cx="39.324" cy="17.172" r="2.147"/>
</g>
</svg>
