<?xml version="1.0" encoding="iso-8859-1"?>
<!-- Generator: Adobe Illustrator 16.0.4, SVG Export Plug-In . SVG Version: 6.00 Build 0)  -->
<!DOCTYPE svg PUBLIC "-//W3C//DTD SVG 1.1//EN" "http://www.w3.org/Graphics/SVG/1.1/DTD/svg11.dtd">
<svg version="1.1" id="Capa_1" xmlns="http://www.w3.org/2000/svg" xmlns:xlink="http://www.w3.org/1999/xlink" x="0px" y="0px"
	 width="44.737px" height="42.028px" viewBox="0 0 44.737 42.028" style="enable-background:new 0 0 44.737 42.028;"
	 xml:space="preserve">
<g>
	<path style="fill:#262626;" d="M39.515,6.041v30.328h0.587c1.266,0,1.833-0.858,1.957-1.311l0.021-30.492
		c0.003-0.078,0.009-0.777-0.511-1.312C41.325,3.001,40.873,2.7,40.103,2.7H17.171l-0.187,0.03c-0.183,0.062-1.791,0.641-1.791,1.95
		v0.584l23.56,0.012C39.176,5.276,39.515,5.619,39.515,6.041z M17.276,3.87h22.826c0.287,0,0.493,0.065,0.623,0.191
		c0.18,0.183,0.184,0.471,0.184,0.486v30.254c-0.027,0.06-0.096,0.16-0.222,0.246V6.041c0-1.068-0.868-1.936-1.934-1.936
		L16.84,4.096C16.992,3.999,17.151,3.92,17.276,3.87z"/>
	<path style="fill:#262626;" d="M44.734,35.572V1.852c0-1.177-1.133-1.718-1.848-1.852H16.919c-3.466,0-4.378,3.031-4.378,4.634
		V29.93h1.169V4.634c0-0.142,0.038-3.463,3.209-3.463l25.849-0.012c0.01,0.002,0.797,0.176,0.797,0.692V35.61
		c0.006,0.108-0.02,0.435-0.199,0.621c-0.117,0.126-0.303,0.188-0.569,0.188l-3.282,0.004v0.585c0,0.42-0.339,0.761-0.761,0.761
		H21.957v1.173h16.797c0.861,0,1.594-0.567,1.841-1.35l2.205-0.003c0.747,0,1.187-0.307,1.429-0.562
		C44.782,36.434,44.74,35.622,44.734,35.572z"/>
	<path style="fill:#262626;" d="M25.884,28.652c0.297-0.032,0.784-0.086,1.188-0.086c0.417,0,0.525,0.059,0.534,0.064l0.072,0.065
		h0.097c4.711,0,7.313-5.471,7.313-9.235c0.092-1.432-0.303-2.628-1.171-3.553c-0.921-0.985-2.38-1.603-4.071-1.746
		c0.263-0.08,0.52-0.178,0.768-0.296c0.526-0.25,1.012-0.585,1.452-1.015c0.434-0.44,0.835-0.951,1.12-1.708
		c-0.767-0.252-1.417-0.264-2.035-0.195c-0.61,0.074-1.178,0.244-1.702,0.496c-0.524,0.254-1.007,0.59-1.45,1.021
		c-0.425,0.429-0.814,0.935-1.099,1.661c-0.402-0.713-1.049-2.075-1.335-3.879l-0.884,0.138c0.264,1.678,0.816,2.995,1.249,3.829
		c-0.417-0.054-0.834-0.086-1.252-0.086c-2.012,0-3.775,0.649-4.835,1.78c-0.868,0.925-1.263,2.121-1.172,3.536
		c0,3.657,2.389,8.9,6.909,9.234C25.623,28.679,25.736,28.667,25.884,28.652z M27.342,14.29c-0.102,0.019-0.207,0.04-0.311,0.062
		c-0.031-0.051-0.063-0.106-0.098-0.168C27.072,14.227,27.209,14.259,27.342,14.29z M19.205,19.427
		c-0.081-1.275,0.265-2.338,1.028-3.152c0.961-1.023,2.581-1.611,4.446-1.611c0.529,0,1.057,0.048,1.578,0.14
		c0.147,0.244,0.248,0.385,0.262,0.404l0.38-0.274l0.045-0.014c0.7-0.17,1.42-0.256,2.14-0.256c1.864,0,3.485,0.588,4.441,1.611
		c0.768,0.814,1.113,1.877,1.029,3.17c0,3.616-2.544,8.65-6.7,8.714c-0.165-0.088-0.415-0.124-0.782-0.124
		c-0.433,0-0.939,0.054-1.242,0.086c-0.124,0.014-0.214,0.022-0.239,0.022C21.479,27.838,19.207,22.806,19.205,19.427z"/>
	<path style="fill:#262626;" d="M29.099,21.921c0.154-0.227,0.285-0.488,0.386-0.789c0.099-0.306,0.176-0.641,0.188-1.08
		c-0.297,0.012-0.521,0.132-0.727,0.279c-0.202,0.15-0.376,0.345-0.529,0.57c-0.153,0.229-0.28,0.49-0.386,0.791
		c-0.098,0.305-0.177,0.641-0.186,1.077c0.295-0.016,0.52-0.134,0.725-0.28C28.772,22.337,28.946,22.146,29.099,21.921z"/>
	<path style="fill:#262626;" d="M26.324,22.899c0.175-0.234,0.238-0.477,0.266-0.721c0.025-0.244,0.003-0.488-0.052-0.736
		c-0.061-0.25-0.161-0.498-0.302-0.752c-0.15-0.251-0.332-0.507-0.628-0.768c-0.18,0.236-0.243,0.48-0.272,0.721
		c-0.023,0.244-0.003,0.488,0.058,0.737c0.06,0.248,0.157,0.496,0.3,0.752C25.843,22.383,26.024,22.636,26.324,22.899z"/>
	<g>
		<path style="fill:#262626;" d="M13.338,39.075c0,0.617,0.406,0.894,0.873,0.894c0.68,0,1.116-0.427,1.264-0.861
			c0.033-0.105,0.042-0.212,0.042-0.298v-0.892C14.497,37.896,13.338,38.075,13.338,39.075z"/>
		<path style="fill:#262626;" d="M0,30.71v11.318h21.566V30.71H0z M6.288,40.543l-2.348-3.52l-0.693,0.787v2.732H2.324v-7.164h0.923
			v3.454H3.28c0.192-0.277,0.382-0.53,0.564-0.766l2.189-2.688h1.147l-2.593,3.04l2.796,4.124H6.288z M10.409,39.904
			c0.53,0,0.881-0.128,1.146-0.244l0.161,0.702c-0.247,0.118-0.788,0.297-1.478,0.297c-1.553,0-2.563-1.052-2.563-2.625
			c0-1.583,1.085-2.74,2.764-2.74c0.553,0,1.044,0.135,1.299,0.274l-0.212,0.713c-0.223-0.118-0.575-0.246-1.086-0.246
			c-1.177,0-1.816,0.884-1.816,1.947C8.622,39.17,9.387,39.904,10.409,39.904z M15.655,40.543l-0.074-0.648H15.55
			c-0.288,0.403-0.84,0.765-1.574,0.765c-1.042,0-1.573-0.733-1.573-1.478c0-1.241,1.105-1.924,3.093-1.912v-0.106
			c0-0.414-0.116-1.19-1.17-1.182c-0.49,0-0.988,0.138-1.35,0.384l-0.213-0.628c0.426-0.265,1.054-0.443,1.702-0.443
			c1.573,0,1.956,1.071,1.956,2.092v1.924c0,0.446,0.021,0.883,0.075,1.233H15.655z M18.864,40.543h-0.935v-7.547h0.935V40.543z"/>
	</g>
</g>
<g>
</g>
<g>
</g>
<g>
</g>
<g>
</g>
<g>
</g>
<g>
</g>
<g>
</g>
<g>
</g>
<g>
</g>
<g>
</g>
<g>
</g>
<g>
</g>
<g>
</g>
<g>
</g>
<g>
</g>
</svg>
