<?xml version="1.0" encoding="iso-8859-1"?>
<!-- Generator: Adobe Illustrator 16.0.4, SVG Export Plug-In . SVG Version: 6.00 Build 0)  -->
<!DOCTYPE svg PUBLIC "-//W3C//DTD SVG 1.1//EN" "http://www.w3.org/Graphics/SVG/1.1/DTD/svg11.dtd">
<svg version="1.1" id="Capa_1" xmlns="http://www.w3.org/2000/svg" xmlns:xlink="http://www.w3.org/1999/xlink" x="0px" y="0px"
	 width="37.82px" height="45.312px" viewBox="0 0 37.82 45.312" style="enable-background:new 0 0 37.82 45.312;"
	 xml:space="preserve">
<g>
	<g>
		<path style="fill-rule:evenodd;clip-rule:evenodd;fill:#262626;" d="M18.016,24.861c0-0.336,0.192-0.615,0.47-0.77
			c-6.429-0.556-11.493-5.956-11.493-12.523c0-0.953,0.116-1.873,0.315-2.764C2.988,10.909,0,15.327,0,20.459v11.885
			c0,7.161,5.807,12.969,12.968,12.969h5.212c-0.095-0.145-0.164-0.305-0.164-0.486V24.861z"/>
	</g>
	<g>
		<path style="fill-rule:evenodd;clip-rule:evenodd;fill:#262626;" d="M31.989,9.634c0.1,0.633,0.166,1.275,0.166,1.935
			c0,6.934-5.646,12.578-12.581,12.578c-0.056,0-0.109-0.006-0.166-0.006c0.234,0.16,0.398,0.418,0.398,0.721v19.965
			c0,0.182-0.069,0.342-0.162,0.486h5.211c7.16,0,12.965-5.808,12.965-12.969V20.459C37.82,15.932,35.502,11.956,31.989,9.634z"/>
	</g>
	<g>
		<path style="fill-rule:evenodd;clip-rule:evenodd;fill:#262626;" d="M19.574,21.892c6.042,0,10.943-4.902,10.943-10.948
			C30.518,4.902,25.616,0,19.574,0C13.528,0,8.627,4.902,8.627,10.943C8.627,16.989,13.528,21.892,19.574,21.892z M12.003,10.479
			h-1.56c0.235-4.681,3.983-8.431,8.669-8.663c0,0.006-0.004,0.012-0.004,0.02v1.703c0,0.257,0.208,0.465,0.466,0.465
			c0.255,0,0.461-0.208,0.461-0.465V1.836c0-0.008,0-0.014,0-0.02c4.684,0.232,8.43,3.982,8.667,8.663h-1.573
			c-0.256,0-0.464,0.21-0.464,0.464c0,0.26,0.208,0.467,0.464,0.467h1.573c-0.237,4.684-3.982,8.429-8.667,8.666v-1.633
			c0-0.259-0.206-0.468-0.461-0.468c-0.258,0-0.466,0.209-0.466,0.468v1.633c-4.683-0.237-8.43-3.982-8.665-8.666h1.56
			c0.256,0,0.462-0.207,0.462-0.467C12.465,10.689,12.259,10.479,12.003,10.479z"/>
	</g>
	<g>
		<path style="fill-rule:evenodd;clip-rule:evenodd;fill:#262626;" d="M19.574,11.935c0.048,0,0.089-0.019,0.135-0.027
			c0.01,0.009,0.015,0.02,0.023,0.027l3.79,3.289l1.021,0.27l-0.507-1.055l-3.606-3.131c0.032-0.091,0.06-0.186,0.06-0.288
			c0-0.508-0.41-0.916-0.915-0.916c-0.506,0-0.916,0.408-0.916,0.916C18.658,11.524,19.068,11.935,19.574,11.935z"/>
	</g>
</g>
<g>
</g>
<g>
</g>
<g>
</g>
<g>
</g>
<g>
</g>
<g>
</g>
<g>
</g>
<g>
</g>
<g>
</g>
<g>
</g>
<g>
</g>
<g>
</g>
<g>
</g>
<g>
</g>
<g>
</g>
</svg>
