<?xml version="1.0" encoding="utf-8"?>
<!-- Generator: Adobe Illustrator 16.0.4, SVG Export Plug-In . SVG Version: 6.00 Build 0)  -->
<!DOCTYPE svg PUBLIC "-//W3C//DTD SVG 1.1//EN" "http://www.w3.org/Graphics/SVG/1.1/DTD/svg11.dtd">
<svg version="1.1" id="Capa_1" xmlns="http://www.w3.org/2000/svg" xmlns:xlink="http://www.w3.org/1999/xlink" x="0px" y="0px"
	 width="35.157px" height="38.704px" viewBox="0 0 35.157 38.704" enable-background="new 0 0 35.157 38.704" xml:space="preserve">
<path fill="#262626" d="M15.224,19.353c0,1.896-1.543,3.44-3.442,3.44c-1.893,0-3.438-1.545-3.438-3.44
	c0-1.898,1.545-3.438,3.438-3.438C13.682,15.915,15.224,17.455,15.224,19.353z M35.157,12.153l-13.932,4.258
	c0.289,0.926,0.443,1.916,0.443,2.94c0,5.498-4.458,9.955-9.955,9.955c-4.624,0-8.499-3.157-9.622-7.429
	C0.904,21.653,0,20.608,0,19.352c0-1.257,0.904-2.3,2.093-2.526c1.123-4.272,4.998-7.428,9.621-7.428h1.516v0.378h5.228V9.397
	h16.699V12.153z M1.761,19.352c0-0.45,0.039-0.888,0.094-1.321c-0.469,0.258-0.793,0.75-0.793,1.321c0,0.574,0.324,1.066,0.793,1.32
	C1.8,20.239,1.761,19.799,1.761,19.352z M16.288,19.352c0-2.484-2.022-4.504-4.506-4.504c-2.482,0-4.502,2.02-4.502,4.504
	c0,2.482,2.02,4.504,4.502,4.504C14.267,23.856,16.289,21.836,16.288,19.352z"/>
</svg>
