<?xml version="1.0" encoding="iso-8859-1"?>
<!-- Generator: Adobe Illustrator 16.0.4, SVG Export Plug-In . SVG Version: 6.00 Build 0)  -->
<!DOCTYPE svg PUBLIC "-//W3C//DTD SVG 1.1//EN" "http://www.w3.org/Graphics/SVG/1.1/DTD/svg11.dtd">
<svg version="1.1" id="Capa_1" xmlns="http://www.w3.org/2000/svg" xmlns:xlink="http://www.w3.org/1999/xlink" x="0px" y="0px"
	 width="26.482px" height="40.334px" viewBox="0 0 26.482 40.334" style="enable-background:new 0 0 26.482 40.334;"
	 xml:space="preserve">
<g>
	<g>
		<g>
			<path style="fill:#262626;" d="M13.239,40.334c-6.153,0-11.164-5.01-11.164-11.167C2.076,23.008,7.086,18,13.239,18
				c6.163,0,11.17,5.008,11.17,11.167C24.41,35.324,19.402,40.334,13.239,40.334z M13.239,19.973c-5.066,0-9.19,4.125-9.19,9.194
				c0,5.069,4.124,9.193,9.19,9.193c5.071,0,9.196-4.124,9.196-9.193C22.435,24.098,18.31,19.973,13.239,19.973z"/>
		</g>
	</g>
	<path style="fill:#262626;" d="M13.239,20.992c-4.512,0-8.173,3.659-8.173,8.175c0,4.517,3.661,8.177,8.173,8.177
		c4.517,0,8.18-3.66,8.18-8.177C21.419,24.651,17.756,20.992,13.239,20.992z M14.351,35.184h-1.72V24.871l-1.711,1.72v-1.72
		l1.711-1.719h1.72V35.184z"/>
	<g>
		<path style="fill:#262626;" d="M17.76,18.845H8.722v-5.632h9.038V18.845z M9.944,17.624h6.599v-3.191H9.944V17.624z"/>
	</g>
	<g>
		<path style="fill:#262626;" d="M22.18,0l-8.939,8.938L4.306,0L0,4.301l11.329,11.326h3.827L26.482,4.303L22.18,0z M22.18,1.291
			l3.01,3.012l-8.293,8.293l-3.01-3.013L22.18,1.291z"/>
	</g>
</g>
<g>
</g>
<g>
</g>
<g>
</g>
<g>
</g>
<g>
</g>
<g>
</g>
<g>
</g>
<g>
</g>
<g>
</g>
<g>
</g>
<g>
</g>
<g>
</g>
<g>
</g>
<g>
</g>
<g>
</g>
</svg>
